<?xml version="1.0" encoding="utf-8"?>
<!-- Generator: Adobe Illustrator 16.0.0, SVG Export Plug-In . SVG Version: 6.00 Build 0)  -->
<!DOCTYPE svg PUBLIC "-//W3C//DTD SVG 1.1 Tiny//EN" "http://www.w3.org/Graphics/SVG/1.1/DTD/svg11-tiny.dtd">
<svg version="1.1" baseProfile="tiny" xmlns="http://www.w3.org/2000/svg" xmlns:xlink="http://www.w3.org/1999/xlink" x="0px"
	 y="0px" width="400px" height="400px" viewBox="0 0 400 400" xml:space="preserve">
<g id="Layer_4">
</g>
<g id="Layer_1">
</g>
<g id="Layer_5">
</g>
<g id="Layer_2">
</g>
<g id="Layer_6">
</g>
<g id="Layer_3">
</g>
<g id="Layer_8">
</g>
<g id="Layer_9">
</g>
<g id="Layer_10">
</g>
<g id="Layer_12">
</g>
<g id="Layer_13">
</g>
<g id="Layer_11">
</g>
<g id="Layer_16">
</g>
<g id="Layer_14">
	<path fill="#FFFFFF" stroke="#000000" stroke-miterlimit="10" d="M337.5,51.038"/>
	<rect x="65.5" y="128.5" fill="#FFFFFF" stroke="#000000" stroke-miterlimit="10" width="286" height="148"/>
	<path fill="none" stroke="#E5E5E5" stroke-miterlimit="10" d="M220.126,128.625c-0.887,0.625-16.827,151.602-2.543,147.938"/>
	<path fill="none" stroke="#E5E5E5" stroke-miterlimit="10" d="M224.084,128.5c-1.152,0.5-17.306,151.664-3.021,148"/>
	<path fill="none" stroke="#E5E5E5" stroke-miterlimit="10" d="M216.751,128.5c-10.376-6.007,11.749,149.896,10.124,148"/>
	<path fill="#E5E5E5" d="M351,201.25V277H196.1C243.77,264,312,240.32,351,201.25z"/>
	<path fill="none" stroke="#FFCF40" stroke-miterlimit="10" d="M219.126,128.625c-0.887,0.625-16.827,151.602-2.543,147.938"/>
	<path fill="none" stroke="#FFCF40" stroke-miterlimit="10" d="M223.084,128.5c-1.152,0.5-17.306,151.664-3.021,148"/>
	<path fill="none" stroke="#FFCF40" stroke-miterlimit="10" d="M216.751,128.5c-11.116-6.435,11.249,149.313,10.124,148"/>
	<path fill="none" stroke="#E5E5E5" stroke-miterlimit="10" d="M65.366,209.875c-7.333,12.667,290.123-1.62,286.459-15.905"/>
	<path fill="none" stroke="#E5E5E5" stroke-miterlimit="10" d="M65,201c-5.188,14.375,290.635,12.148,286.971-2.136"/>
	<path fill="none" stroke="#E5E5E5" stroke-miterlimit="10" d="M65.232,212.254c-7.333,12.667,290.257,5.357,286.593-8.926"/>
	<polygon fill="#E5E5E5" points="351,149.69 351,155.25 209.989,205.606 209.615,203.74 207.188,204.53 65.469,151.16 65,150.97 
		65,148.49 65.5,148.67 207.25,200.73 209.53,200 209.64,200 209.66,200 209.72,199.95 349.79,150.305 350.54,150.037 
		351.23,149.704 	"/>
	<polyline fill="none" stroke="#000000" stroke-width="0.8208" stroke-miterlimit="10" points="66.321,149.271 208.5,202.5 
		351.971,149.496 	"/>
	<path fill="#FFFFFF" stroke="#000000" stroke-miterlimit="10" d="M19.5,152.616"/>
	<path fill="none" stroke="#FFCF40" stroke-miterlimit="10" d="M65.5,209.375c-7.333,12.667,290.135-1.982,286.471-16.267"/>
	<path fill="none" stroke="#FFCF40" stroke-miterlimit="10" d="M65.5,200.625c-7.333,12.667,290.168,11.91,286.504-2.375"/>
	<path fill="none" stroke="#FFCF40" stroke-miterlimit="10" d="M65.5,211.438c-7.333,12.667,289.956,5.388,286.292-8.896"/>
	<path fill="#D12222" d="M234.79,219.8c-0.69,1.21-1.4,2.271-2.09,3.16c-5.75,7.4-0.94,12.286-1.41,13.935
		c-0.4,1.4-4.37,4.105-7.21,3.105h-0.01c-0.49,0-0.95,0.016-1.351-0.174c-2.7-1.291,1.761-6.974-8.45-4.974
		c-9.569,1.87-27.39,0.578-34.409-17.382c-0.471-1.16-0.88-2.37-1.24-3.67c0-0.04,0.12-0.08,0.12-0.12
		c-0.021-0.07-0.04-0.146-0.061-0.216c-0.25-0.97-0.41-1.917-0.51-2.816c-0.14-1.261-0.17-2.458-0.17-3.589c0,0,0,0,0-0.01
		c0-1.859,1-4.069,1-6.17v-0.01c0-0.21,0.04-0.42,0.13-0.63c0.18-0.39,0.38-0.76,0.58-1.13c0.4-0.72,0.84-1.4,1.32-2.03
		c2.05-2.76,4.67-4.78,7.25-6.25c1.229-0.71,2.45-1.29,3.58-1.76c0.12-0.05,0.229-0.09,0.34-0.14c0.05-0.02,0.02,0.07,0.069,0.07
		h0.011c0.51-0.35,0.989-0.63,1.45-0.86c2.13-1.05,3.6-0.86,3.6-0.86s1.07-0.53,4.59-2.17c3.53-1.64,14.811-5.08,29.25,2.78
		C243.87,194.81,239.86,210.98,234.79,219.8z"/>
	<circle fill="#D12222" cx="209.34" cy="209.227" r="21.715"/>
	<path fill="#B70F0F" d="M230.51,214.054c-2.189,9.67-10.839,16.888-21.17,16.888c-0.416,0-0.831-0.014-1.239-0.034
		C215.319,228.407,223.975,223.547,230.51,214.054z"/>
	<path fill="#B70F0F" d="M188.517,213.964c-2.572-8.277,0.819-17.523,8.64-22.042c0.314-0.183,0.635-0.354,0.953-0.516
		C193.738,196.455,189.311,203.92,188.517,213.964z"/>
	<path fill="#B70F0F" d="M192.13,188.81c-0.02,0.021-0.05,0.04-0.07,0.061c-0.069,0.07-0.13,0.13-0.199,0.2
		c-7.23,7.229-11.391,18.77-13.181,24.399c-0.25-0.97-0.41-1.92-0.51-2.819c-0.14-1.261-0.17-2.46-0.17-3.591c0,0,0,0,0-0.01
		c0-1.859,1-4.069,1-6.17v-0.01c0-0.21,0.04-0.42,0.13-0.63c0.18-0.391,0.38-0.76,0.58-1.13c0.4-0.721,0.84-1.4,1.32-2.03
		c2.069-2.85,4.739-4.94,7.35-6.44C189.67,189.89,190.95,189.29,192.13,188.81z"/>
	<path fill="#B70F0F" d="M221.912,222.219c0,0-3.479-1.114-6.379-2.043c-0.414-0.133-0.816-0.262-1.195-0.383
		c-2.055-2.434-3.588-6.637-5.367-9.306c-0.179,3.024,1,7.05,0.515,10.158c-0.314,0.243-0.649,0.502-0.993,0.768
		c-2.408,1.862-6.299,3.097-6.299,3.097s0.985-2.653,0.973-5.697c-0.002-0.436-0.004-0.857-0.005-1.256
		c2.005-2.333,3.674-4.935,5.81-7.069c-3.025,0.533-5.051,2.423-8.121,2.719c-0.328-0.225-0.678-0.462-1.037-0.707
		c-2.516-1.716-6.533-4.774-6.533-4.774s4.47-0.143,7.361-1.096c0.413-0.137,0.814-0.269,1.191-0.393
		c3.156-0.087,4.469,2.649,7.139,4.251c-1.602-2.669-2.381-3.982-3.971-6.669c0.051-0.372,0.146-0.743,0.257-1.125
		c0.893-3.054,2.231-7.634,2.231-7.634s2.82,3.849,4.701,6.414c0.471,0.642,0.88,1.206,1.172,1.61
		c-0.9,2.887-3.146,4.734-4.391,7.403c1.601-2.491,4.024-4.338,5.656-6.786c0.498-0.018,1.195-0.041,1.99-0.065
		c3.18-0.095,6.95-1.236,6.95-1.236s-1.789,4.872-3.647,7.453c-0.232,0.322-0.488,0.626-0.759,0.896
		c-2.963,0.561-7.166-0.618-10.19-0.262c3.024,1.067,8.65,1.712,10.261,4.244c0.134,0.375,0.276,0.772,0.423,1.182
		C220.681,218.779,221.912,222.219,221.912,222.219z"/>
	<path fill="#E54141" d="M220.912,221.219c0,0-3.479-1.114-6.379-2.043c-0.414-0.133-0.816-0.262-1.195-0.383
		c-2.055-2.434-2.588-5.637-4.367-8.306c-0.179,3.024,0,6.05-0.485,9.158c-0.314,0.243-0.649,0.502-0.993,0.768
		c-2.408,1.862-5.299,4.097-5.299,4.097s-0.015-3.653-0.027-6.697c-0.002-0.436-0.004-0.857-0.005-1.256
		c2.005-2.333,4.674-3.935,6.81-6.069c-3.025,0.533-6.051,1.423-9.121,1.719c-0.328-0.225-0.678-0.462-1.037-0.707
		c-2.516-1.716-5.533-3.774-5.533-3.774s3.47-1.143,6.361-2.096c0.413-0.137,0.814-0.269,1.191-0.393
		c3.156-0.087,5.469,3.649,8.139,5.251c-1.602-2.669-3.381-4.982-4.971-7.669c0.051-0.372,0.146-0.743,0.257-1.125
		c0.893-3.054,2.231-7.634,2.231-7.634s2.82,3.849,4.701,6.414c0.471,0.642,0.88,1.206,1.172,1.61
		c-0.9,2.887-2.146,5.557-3.391,8.226c1.601-2.491,3.024-5.16,4.656-7.608c0.498-0.018,1.195-0.041,1.99-0.065
		c3.18-0.095,7.95-0.236,7.95-0.236s-2.789,3.872-4.647,6.453c-0.232,0.322-0.488,0.626-0.759,0.896
		c-2.963,0.561-6.166,0.382-9.19,0.738c3.024,1.067,7.65,0.712,9.261,3.244c0.134,0.375,0.276,0.772,0.423,1.182
		C219.681,217.779,220.912,221.219,220.912,221.219z"/>
	<path fill="#B70F0F" d="M221.609,213.758c0,0-2.694,0.494-4.94,0.906c-0.321,0.059-0.633,0.115-0.926,0.17
		c-2.22-0.883-4.722-3.119-6.843-4.254c0.952,2.063,3.156,4.308,3.936,6.535c-0.122,0.271-0.252,0.562-0.385,0.857
		c-0.935,2.084-3.07,4.277-3.07,4.277s-0.287-2.104-1.373-4.111c-0.155-0.287-0.306-0.566-0.447-0.828
		c0.5-2.253,0.684-4.564,1.34-6.73c-1.812,1.422-2.482,3.389-4.408,4.671c-0.296-0.032-0.611-0.065-0.936-0.101
		c-2.271-0.244-6.01-0.846-6.01-0.846s2.905-1.676,4.48-3.328c0.225-0.237,0.443-0.467,0.648-0.682
		c2.057-1.176,3.893,0.17,6.225,0.285c-2.003-1.199-2.982-1.792-4.985-3.006c-0.099-0.264-0.167-0.543-0.229-0.834
		c-0.49-2.336-1.226-5.838-1.226-5.838s3.228,1.547,5.379,2.578c0.538,0.257,1.009,0.485,1.344,0.649
		c0.427,2.228-0.404,4.243-0.283,6.45c0.178-2.215,1.127-4.293,1.339-6.49c0.323-0.188,0.776-0.449,1.294-0.746
		c2.068-1.188,4.158-3.277,4.158-3.277s0.541,3.855,0.225,6.219c-0.039,0.295-0.101,0.587-0.184,0.861
		c-1.762,1.419-4.957,2.127-6.832,3.434c2.379-0.365,6.326-1.93,8.287-0.825c0.222,0.2,0.456,0.413,0.697,0.632
		C219.578,211.92,221.609,213.758,221.609,213.758z"/>
	<path fill="#B70F0F" d="M221.932,212.443c0,0-2.631,0.764-4.824,1.399c-0.313,0.091-0.617,0.179-0.903,0.263
		c-2.298-0.655-5.012-2.628-7.236-3.544c1.155,1.956,3.574,3.968,4.573,6.106c-0.094,0.282-0.193,0.584-0.296,0.892
		c-0.72,2.167-2.624,4.564-2.624,4.564s-0.498-2.063-1.78-3.952c-0.184-0.27-0.361-0.532-0.528-0.779
		c0.271-2.291,0.221-4.609,0.655-6.831c-1.659,1.598-2.129,3.622-3.915,5.092c-0.298-0.003-0.615-0.004-0.941-0.006
		c-2.285-0.015-6.064-0.236-6.064-0.236s2.722-1.96,4.123-3.763c0.199-0.259,0.394-0.509,0.576-0.743
		c1.928-1.377,3.89-0.224,6.222-0.344c-2.114-0.991-3.147-1.482-5.263-2.488c-0.125-0.252-0.221-0.523-0.312-0.807
		c-0.724-2.274-1.808-5.685-1.808-5.685s3.367,1.214,5.611,2.023c0.562,0.201,1.053,0.381,1.402,0.511
		c0.649,2.173,0.025,4.262,0.368,6.445c-0.046-2.221,0.688-4.384,0.679-6.592c0.303-0.219,0.727-0.525,1.212-0.872
		c1.938-1.392,3.807-3.68,3.807-3.68s0.927,3.781,0.85,6.164c-0.009,0.298-0.04,0.595-0.096,0.876
		c-1.609,1.589-4.718,2.615-6.451,4.104c2.33-0.603,6.1-2.557,8.161-1.655c0.241,0.177,0.496,0.365,0.758,0.559
		C219.726,210.819,221.932,212.443,221.932,212.443z"/>
	<path fill="#E54141" d="M220.595,213.451c0,0-2.694,0.493-4.941,0.906c-0.32,0.059-0.633,0.115-0.926,0.17
		c-2.22-0.883-3.706-2.813-5.827-3.947c0.952,2.063,2.141,4,2.92,6.227c-0.122,0.272-0.252,0.563-0.385,0.859
		c-0.934,2.084-2.055,4.584-2.055,4.584s-1.303-2.41-2.389-4.418c-0.154-0.287-0.306-0.566-0.447-0.83
		c0.5-2.252,1.699-4.256,2.355-6.422c-1.812,1.422-3.497,3.082-5.424,4.363c-0.295-0.032-0.61-0.064-0.936-0.1
		c-2.271-0.246-4.994-0.539-4.994-0.539s1.891-1.983,3.465-3.637c0.225-0.236,0.443-0.465,0.648-0.682
		c2.057-1.174,4.908,0.479,7.24,0.594c-2.003-1.199-3.998-2.1-6-3.313c-0.099-0.264-0.168-0.543-0.229-0.836
		c-0.49-2.334-1.226-5.838-1.226-5.838s3.227,1.547,5.378,2.578c0.538,0.258,1.01,0.486,1.345,0.65
		c0.427,2.229,0.548,4.434,0.669,6.639c0.177-2.213,0.174-4.482,0.387-6.678c0.322-0.188,0.776-0.45,1.293-0.748
		c2.069-1.188,5.174-2.969,5.174-2.969s-0.475,3.547-0.79,5.912c-0.04,0.295-0.101,0.586-0.185,0.861
		c-1.761,1.418-3.941,2.434-5.816,3.74c2.379-0.365,5.311-2.237,7.272-1.133c0.222,0.201,0.456,0.414,0.697,0.633
		C218.563,211.611,220.595,213.451,220.595,213.451z"/>
	<path fill="#E5E5E5" d="M138,331.166"/>
	<rect x="65.5" y="128.5" fill="none" stroke="#000000" stroke-miterlimit="10" width="286" height="148"/>
</g>
<g id="Layer_15">
</g>
<g id="Layer_7">
	<path fill="#B70F0F" d="M232.7,222.96c-5.75,7.4-0.94,12.44-1.41,14.09c-0.4,1.4-4.931,4.138-7.462,2.95
		c3.21-0.569,4.672-2.75,4.672-2.75s0.38-2-1-6.87c-0.96-3.38,4.1-8.04,7.29-10.58C234.1,221.01,233.39,222.07,232.7,222.96z"/>
</g>
</svg>
