<?xml version="1.0" encoding="utf-8"?>
<!-- Generator: Adobe Illustrator 16.0.0, SVG Export Plug-In . SVG Version: 6.00 Build 0)  -->
<!DOCTYPE svg PUBLIC "-//W3C//DTD SVG 1.1 Tiny//EN" "http://www.w3.org/Graphics/SVG/1.1/DTD/svg11-tiny.dtd">
<svg version="1.1" baseProfile="tiny" xmlns="http://www.w3.org/2000/svg" xmlns:xlink="http://www.w3.org/1999/xlink" x="0px"
	 y="0px" width="400px" height="400px" viewBox="0 0 400 400" xml:space="preserve">
<g id="Layer_1">
</g>
<g id="Layer_5">
</g>
<g id="Layer_4">
</g>
<g id="Layer_6">
</g>
<g id="Layer_3">
</g>
<g id="Layer_2">
</g>
<g id="Layer_7">
</g>
<g id="Layer_12">
</g>
<g id="Layer_11">
</g>
<g id="Layer_10">
</g>
<g id="Layer_13">
</g>
<g id="Layer_8" display="none">
</g>
<g id="Layer_9" display="none">
</g>
<g id="Layer_15">
	<polygon fill="none" stroke="#3F3F3F" stroke-miterlimit="10" points="388.5,315.672 388.5,306.67 225.172,263.994 14.5,286.741 
		14.5,295.668 224.279,274.748 	"/>
</g>
<g id="Layer_14">
	<polygon fill="#FFFFFF" points="178.653,328.13 15.846,287.432 224.702,266.813 387.509,307.512 	"/>
	<polygon points="153.605,321.869 141.082,318.738 157.149,317.152 169.666,320.282 	"/>
	<polygon points="128.56,315.607 116.034,312.478 132.098,310.891 144.627,314.021 	"/>
	<polygon points="103.512,309.346 90.987,306.215 107.055,304.629 119.578,307.76 	"/>
	<polygon points="78.464,303.085 65.939,299.954 82.009,298.369 94.531,301.499 	"/>
	<polygon points="53.416,296.824 40.894,293.693 56.962,292.107 69.484,295.238 	"/>
	<polygon points="28.369,290.563 15.846,287.432 31.914,285.846 44.438,288.977 	"/>
	<polygon fill="#FFFFFF" points="166.129,324.999 153.605,321.869 169.666,320.282 182.191,323.412 	"/>
	<polygon fill="#FFFFFF" points="141.082,318.738 128.56,315.607 144.627,314.021 157.149,317.152 	"/>
	<polygon fill="#FFFFFF" points="116.034,312.478 103.512,309.346 119.578,307.76 132.098,310.891 	"/>
	<polygon fill="#FFFFFF" points="90.987,306.215 78.464,303.085 94.531,301.499 107.055,304.629 	"/>
	<polygon fill="#FFFFFF" points="65.939,299.954 53.416,296.824 69.484,295.238 82.009,298.369 	"/>
	<polygon fill="#FFFFFF" points="40.894,293.693 28.369,290.563 44.438,288.977 56.962,292.107 	"/>
	<polygon fill="#FFFFFF" points="44.438,288.977 31.914,285.846 47.979,284.26 60.501,287.391 	"/>
	<polygon points="182.191,323.412 169.666,320.282 185.736,318.696 198.261,321.828 	"/>
	<polygon points="178.653,328.13 166.129,324.999 182.191,323.412 194.715,326.544 	"/>
	<polygon points="157.149,317.152 144.627,314.021 160.69,312.436 173.213,315.566 	"/>
	<polygon points="132.098,310.891 119.578,307.76 135.643,306.174 148.166,309.305 	"/>
	<polygon points="107.055,304.629 94.531,301.499 110.596,299.912 123.119,303.044 	"/>
	<polygon points="82.009,298.369 69.484,295.238 85.548,293.652 98.072,296.783 	"/>
	<polygon points="56.962,292.107 44.438,288.977 60.501,287.391 73.025,290.521 	"/>
	<polygon fill="#FFFFFF" points="194.715,326.544 182.191,323.412 198.261,321.828 210.784,324.958 	"/>
	<polygon fill="#FFFFFF" points="169.666,320.282 157.149,317.152 173.213,315.566 185.736,318.696 	"/>
	<polygon fill="#FFFFFF" points="144.627,314.021 132.098,310.891 148.166,309.305 160.69,312.436 	"/>
	<polygon fill="#FFFFFF" points="119.578,307.76 107.055,304.629 123.119,303.044 135.643,306.174 	"/>
	<polygon fill="#FFFFFF" points="94.531,301.499 82.009,298.369 98.072,296.783 110.596,299.912 	"/>
	<polygon fill="#FFFFFF" points="69.484,295.238 56.962,292.107 73.025,290.521 85.548,293.652 	"/>
	<polygon points="210.784,324.958 198.261,321.828 214.328,320.241 226.853,323.372 	"/>
	<polygon points="185.736,318.696 173.213,315.566 189.28,313.98 201.805,317.11 	"/>
	<polygon points="160.69,312.436 148.166,309.305 164.234,307.719 176.758,310.85 	"/>
	<polygon points="135.643,306.174 123.119,303.044 139.187,301.457 151.71,304.588 	"/>
	<polygon points="110.596,299.912 98.072,296.783 114.14,295.196 126.662,298.326 	"/>
	<polygon points="85.548,293.652 73.025,290.521 89.092,288.936 101.615,292.066 	"/>
	<polygon points="60.501,287.391 47.979,284.26 64.045,282.674 76.569,285.805 	"/>
	<polygon fill="#FFFFFF" points="198.261,321.828 185.736,318.696 201.805,317.11 214.328,320.241 	"/>
	<polygon fill="#FFFFFF" points="173.213,315.566 160.69,312.436 176.758,310.85 189.28,313.98 	"/>
	<polygon fill="#FFFFFF" points="148.166,309.305 135.643,306.174 151.71,304.588 164.228,307.718 	"/>
	<polygon fill="#FFFFFF" points="123.119,303.044 110.596,299.912 126.662,298.326 139.187,301.457 	"/>
	<polygon fill="#FFFFFF" points="98.072,296.783 85.548,293.652 101.615,292.066 114.14,295.196 	"/>
	<polygon fill="#FFFFFF" points="73.025,290.521 60.501,287.391 76.569,285.805 89.092,288.936 	"/>
	<polygon fill="#FFFFFF" points="76.569,285.805 64.045,282.674 80.109,281.088 92.632,284.218 	"/>
	<polygon points="214.328,320.241 201.805,317.11 217.869,315.524 230.392,318.655 	"/>
	<polygon points="189.28,313.98 176.758,310.85 192.82,309.264 205.344,312.395 	"/>
	<polygon points="164.234,307.719 151.71,304.588 167.773,303.002 180.297,306.133 	"/>
	<polygon points="139.187,301.457 126.662,298.326 142.727,296.74 155.25,299.871 	"/>
	<polygon points="114.14,295.196 101.615,292.066 117.68,290.479 130.203,293.61 	"/>
	<polygon points="89.092,288.936 76.569,285.805 92.632,284.218 105.156,287.35 	"/>
	<polygon fill="#FFFFFF" points="226.853,323.372 214.328,320.241 230.392,318.655 242.915,321.786 	"/>
	<polygon fill="#FFFFFF" points="201.805,317.11 189.28,313.98 205.344,312.395 217.869,315.524 	"/>
	<polygon fill="#FFFFFF" points="176.758,310.85 164.228,307.718 180.297,306.133 192.821,309.263 	"/>
	<polygon fill="#FFFFFF" points="151.71,304.588 139.187,301.457 155.25,299.871 167.773,303.002 	"/>
	<polygon fill="#FFFFFF" points="126.662,298.326 114.14,295.196 130.203,293.61 142.727,296.74 	"/>
	<polygon fill="#FFFFFF" points="101.615,292.066 89.092,288.936 105.156,287.35 117.68,290.479 	"/>
	<polygon points="242.915,321.786 230.392,318.655 246.459,317.069 258.982,320.199 	"/>
	<polygon points="217.869,315.524 205.342,312.395 221.413,310.809 233.936,313.938 	"/>
	<polygon points="192.82,309.264 180.297,306.133 196.366,304.547 208.889,307.678 	"/>
	<polygon points="167.773,303.002 155.248,299.871 171.318,298.285 183.842,301.416 	"/>
	<polygon points="142.727,296.74 130.203,293.61 146.271,292.023 158.795,295.154 	"/>
	<polygon points="117.68,290.479 105.156,287.35 121.225,285.763 133.748,288.894 	"/>
	<polygon points="92.632,284.218 80.109,281.088 96.175,279.502 108.701,282.633 	"/>
	<polygon fill="#FFFFFF" points="230.392,318.655 217.869,315.524 233.936,313.938 246.459,317.069 	"/>
	<polygon fill="#FFFFFF" points="205.344,312.395 192.82,309.264 208.889,307.678 221.413,310.809 	"/>
	<polygon fill="#FFFFFF" points="180.297,306.133 167.773,303.002 183.842,301.416 196.366,304.547 	"/>
	<polygon fill="#FFFFFF" points="155.25,299.871 142.727,296.74 158.795,295.154 171.318,298.285 	"/>
	<polygon fill="#FFFFFF" points="130.203,293.61 117.68,290.479 133.747,288.894 146.271,292.023 	"/>
	<polygon fill="#FFFFFF" points="105.156,287.35 92.632,284.218 108.701,282.633 121.225,285.763 	"/>
	<polygon fill="#FFFFFF" points="108.701,282.633 96.177,279.502 112.24,277.916 124.764,281.047 	"/>
	<polygon points="246.459,317.069 233.936,313.938 250,312.352 262.523,315.483 	"/>
	<polygon points="221.413,310.809 208.889,307.678 224.951,306.092 237.477,309.223 	"/>
	<polygon points="196.366,304.547 183.842,301.416 199.904,299.83 212.428,302.96 	"/>
	<polygon points="171.318,298.285 158.795,295.154 174.857,293.568 187.382,296.699 	"/>
	<polygon points="146.271,292.023 133.748,288.894 149.811,287.308 162.335,290.438 	"/>
	<polygon points="121.225,285.763 108.701,282.633 124.764,281.047 137.285,284.177 	"/>
	<polygon fill="#FFFFFF" points="258.982,320.199 246.459,317.069 262.523,315.483 275.047,318.614 	"/>
	<polygon fill="#FFFFFF" points="233.936,313.938 221.413,310.809 237.477,309.223 250,312.352 	"/>
	<polygon fill="#FFFFFF" points="208.889,307.678 196.366,304.547 212.43,302.961 224.951,306.092 	"/>
	<polygon fill="#FFFFFF" points="183.842,301.416 171.318,298.285 187.382,296.699 199.904,299.83 	"/>
	<polygon fill="#FFFFFF" points="158.795,295.154 146.271,292.023 162.335,290.438 174.857,293.568 	"/>
	<polygon fill="#FFFFFF" points="133.747,288.894 121.225,285.763 137.287,284.177 149.811,287.308 	"/>
	<polygon points="275.047,318.614 262.523,315.483 278.591,313.896 291.113,317.028 	"/>
	<polygon points="250,312.352 237.477,309.223 253.544,307.637 266.067,310.767 	"/>
	<polygon points="224.951,306.092 212.428,302.96 228.496,301.375 241.021,304.506 	"/>
	<polygon points="199.904,299.83 187.382,296.699 203.449,295.113 215.974,298.244 	"/>
	<polygon points="174.857,293.568 162.335,290.438 178.402,288.852 190.926,291.982 	"/>
	<polygon points="149.811,287.308 137.285,284.177 153.354,282.591 165.88,285.722 	"/>
	<polygon points="124.764,281.047 112.24,277.916 128.309,276.33 140.832,279.461 	"/>
	<polygon fill="#FFFFFF" points="262.523,315.483 250,312.352 266.067,310.767 278.591,313.896 	"/>
	<polygon fill="#FFFFFF" points="237.477,309.223 224.951,306.092 241.021,304.506 253.544,307.637 	"/>
	<polygon fill="#FFFFFF" points="212.43,302.961 199.904,299.83 215.974,298.244 228.496,301.375 	"/>
	<polygon fill="#FFFFFF" points="187.382,296.699 174.857,293.568 190.926,291.982 203.449,295.113 	"/>
	<polygon fill="#FFFFFF" points="162.335,290.438 149.811,287.308 165.88,285.722 178.402,288.852 	"/>
	<polygon fill="#FFFFFF" points="137.287,284.177 124.764,281.047 140.832,279.461 153.354,282.591 	"/>
	<polygon fill="#FFFFFF" points="140.832,279.461 128.307,276.33 144.372,274.744 156.896,277.874 	"/>
	<polygon points="278.591,313.896 266.067,310.767 282.131,309.181 294.654,312.311 	"/>
	<polygon points="253.544,307.637 241.021,304.506 257.084,302.92 269.605,306.049 	"/>
	<polygon points="228.496,301.375 215.974,298.244 232.037,296.658 244.561,299.789 	"/>
	<polygon points="203.449,295.113 190.926,291.982 206.99,290.396 219.514,293.527 	"/>
	<polygon points="178.402,288.852 165.88,285.722 181.943,284.136 194.466,287.267 	"/>
	<polygon points="153.354,282.591 140.832,279.461 156.896,277.874 169.42,281.005 	"/>
	<polygon fill="#FFFFFF" points="291.113,317.028 278.591,313.896 294.654,312.311 307.177,315.441 	"/>
	<polygon fill="#FFFFFF" points="266.067,310.767 253.544,307.637 269.608,306.051 282.131,309.181 	"/>
	<polygon fill="#FFFFFF" points="241.021,304.506 228.496,301.375 244.561,299.789 257.084,302.92 	"/>
	<polygon fill="#FFFFFF" points="215.974,298.244 203.449,295.113 219.514,293.527 232.035,296.658 	"/>
	<polygon fill="#FFFFFF" points="190.926,291.982 178.402,288.852 194.466,287.267 206.99,290.396 	"/>
	<polygon fill="#FFFFFF" points="165.88,285.722 153.354,282.591 169.42,281.005 181.943,284.135 	"/>
	<polygon points="307.178,315.441 294.654,312.311 310.723,310.725 323.245,313.855 	"/>
	<polygon points="282.131,309.181 269.605,306.049 285.674,304.463 298.197,307.595 	"/>
	<polygon points="257.084,302.92 244.561,299.789 260.628,298.203 273.151,301.334 	"/>
	<polygon points="232.037,296.658 219.514,293.527 235.581,291.941 248.104,295.072 	"/>
	<polygon points="206.99,290.396 194.465,287.266 210.533,285.68 223.058,288.811 	"/>
	<polygon points="181.943,284.136 169.42,281.005 185.485,279.419 198.01,282.55 	"/>
	<polygon points="156.896,277.874 144.369,274.743 160.439,273.158 172.963,276.288 	"/>
	<polygon fill="#FFFFFF" points="294.654,312.311 282.131,309.181 298.198,307.595 310.723,310.725 	"/>
	<polygon fill="#FFFFFF" points="269.608,306.051 257.084,302.92 273.151,301.334 285.674,304.463 	"/>
	<polygon fill="#FFFFFF" points="244.561,299.789 232.035,296.658 248.104,295.072 260.627,298.203 	"/>
	<polygon fill="#FFFFFF" points="219.514,293.527 206.99,290.396 223.058,288.811 235.581,291.941 	"/>
	<polygon fill="#FFFFFF" points="194.466,287.267 181.943,284.136 198.01,282.55 210.533,285.68 	"/>
	<polygon fill="#FFFFFF" points="169.42,281.005 156.896,277.874 172.963,276.288 185.485,279.419 	"/>
	<polygon fill="#FFFFFF" points="172.963,276.288 160.439,273.158 176.502,271.571 189.026,274.702 	"/>
	<polygon points="310.723,310.725 298.197,307.595 314.263,306.009 326.786,309.139 	"/>
	<polygon points="285.674,304.463 273.151,301.334 289.215,299.748 301.739,302.877 	"/>
	<polygon points="260.628,298.203 248.104,295.072 264.168,293.486 276.691,296.617 	"/>
	<polygon points="235.581,291.941 223.057,288.811 239.12,287.225 251.645,290.355 	"/>
	<polygon points="210.533,285.68 198.01,282.55 214.074,280.964 226.597,284.094 	"/>
	<polygon points="185.485,279.419 172.961,276.288 189.026,274.702 201.548,277.833 	"/>
	<polygon fill="#FFFFFF" points="323.245,313.855 310.723,310.725 326.786,309.139 339.309,312.27 	"/>
	<polygon fill="#FFFFFF" points="298.198,307.595 285.674,304.463 301.739,302.877 314.263,306.009 	"/>
	<polygon fill="#FFFFFF" points="273.151,301.334 260.627,298.203 276.691,296.617 289.215,299.748 	"/>
	<polygon fill="#FFFFFF" points="248.104,295.072 235.581,291.941 251.645,290.355 264.168,293.486 	"/>
	<polygon fill="#FFFFFF" points="223.058,288.811 210.533,285.68 226.597,284.094 239.12,287.225 	"/>
	<polygon fill="#FFFFFF" points="198.01,282.55 185.485,279.419 201.551,277.833 214.074,280.964 	"/>
	<polygon points="339.309,312.27 326.786,309.139 342.854,307.553 355.378,310.684 	"/>
	<polygon points="314.263,306.009 301.739,302.877 317.807,301.292 330.33,304.422 	"/>
	<polygon points="289.215,299.748 276.691,296.617 292.76,295.031 305.284,298.161 	"/>
	<polygon points="264.168,293.486 251.645,290.355 267.713,288.77 280.236,291.9 	"/>
	<polygon points="239.12,287.225 226.597,284.094 242.665,282.508 255.189,285.639 	"/>
	<polygon points="214.074,280.964 201.548,277.833 217.617,276.247 230.141,279.377 	"/>
	<polygon points="189.026,274.702 176.502,271.571 192.571,269.985 205.094,273.116 	"/>
	<polygon fill="#FFFFFF" points="326.786,309.139 314.263,306.009 330.33,304.422 342.854,307.553 	"/>
	<polygon fill="#FFFFFF" points="301.739,302.877 289.215,299.748 305.284,298.161 317.807,301.292 	"/>
	<polygon fill="#FFFFFF" points="276.691,296.617 264.168,293.486 280.236,291.9 292.76,295.031 	"/>
	<polygon fill="#FFFFFF" points="251.645,290.355 239.12,287.225 255.189,285.639 267.713,288.77 	"/>
	<polygon fill="#FFFFFF" points="226.597,284.094 214.074,280.964 230.141,279.377 242.665,282.508 	"/>
	<polygon fill="#FFFFFF" points="201.551,277.833 189.026,274.702 205.094,273.116 217.617,276.247 	"/>
	<polygon fill="#FFFFFF" points="205.094,273.116 192.571,269.985 208.64,268.4 221.156,271.529 	"/>
	<polygon points="342.854,307.553 330.33,304.422 346.398,302.837 358.918,305.967 	"/>
	<polygon points="317.807,301.292 305.284,298.161 321.353,296.576 333.869,299.705 	"/>
	<polygon points="292.76,295.031 280.236,291.9 296.3,290.314 308.83,293.445 	"/>
	<polygon points="267.713,288.77 255.189,285.639 271.259,284.053 283.775,287.184 	"/>
	<polygon points="242.665,282.508 230.141,279.377 246.205,277.791 258.727,280.922 	"/>
	<polygon points="217.617,276.247 205.094,273.116 221.164,271.531 233.686,274.661 	"/>
	<polygon fill="#FFFFFF" points="355.378,310.684 342.854,307.553 358.918,305.967 371.441,309.098 	"/>
	<polygon fill="#FFFFFF" points="330.33,304.422 317.807,301.292 333.869,299.706 346.398,302.837 	"/>
	<polygon fill="#FFFFFF" points="305.284,298.161 292.76,295.031 308.83,293.445 321.353,296.576 	"/>
	<polygon fill="#FFFFFF" points="280.236,291.9 267.713,288.77 283.775,287.184 296.3,290.314 	"/>
	<polygon fill="#FFFFFF" points="255.189,285.639 242.665,282.508 258.733,280.922 271.259,284.053 	"/>
	<polygon fill="#FFFFFF" points="230.141,279.377 217.617,276.247 233.686,274.661 246.205,277.791 	"/>
	<polygon points="371.441,309.098 358.918,305.967 374.985,304.381 387.509,307.512 	"/>
	<polygon points="346.398,302.837 333.869,299.706 349.938,298.119 362.462,301.25 	"/>
	<polygon points="321.353,296.576 308.826,293.445 324.892,291.859 337.414,294.989 	"/>
	<polygon points="296.3,290.314 283.775,287.184 299.844,285.598 312.366,288.729 	"/>
	<polygon points="271.259,284.053 258.733,280.922 274.797,279.336 287.32,282.467 	"/>
	<polygon points="246.205,277.791 233.686,274.661 249.75,273.074 262.272,276.205 	"/>
	<polygon points="221.164,271.531 208.64,268.4 224.702,266.813 237.226,269.944 	"/>
	<polygon fill="#FFFFFF" points="358.918,305.967 346.392,302.836 362.462,301.25 374.984,304.381 	"/>
	<polygon fill="#FFFFFF" points="333.869,299.706 321.353,296.576 337.414,294.989 349.938,298.119 	"/>
	<polygon fill="#FFFFFF" points="308.83,293.445 296.3,290.314 312.366,288.729 324.892,291.858 	"/>
	<polygon fill="#FFFFFF" points="283.775,287.184 271.251,284.053 287.32,282.467 299.844,285.598 	"/>
	<polygon fill="#FFFFFF" points="258.733,280.922 246.205,277.791 262.272,276.205 274.797,279.336 	"/>
	<polygon fill="#FFFFFF" points="233.686,274.661 221.164,271.531 237.226,269.944 249.749,273.075 	"/>
	<polygon fill="#3F3F3F" points="14,288 14,297 177.648,340.666 389,317.549 389,308.625 177.524,329.914 	"/>
</g>
<g id="Layer_16">
	<path fill="#FFFFFF" stroke="#000000" stroke-miterlimit="10" d="M123.066,292.5H76.693c0,0,2.166-2.01,2.25-2.813
		c0.107-1.047-2.197-2.76-2.25-3.813c-0.05-0.978,1.189-2.822,1.75-3.625c1.41-2.035,5.461-5.197,6.75-7.313
		c4.738-7.777,9.707-27.086,7-35.781c-0.547-1.75-3.553-4.448-5.25-5.141c-0.377-0.152-1.338,0.279-1.625-0.008
		c-0.396-0.397-0.396-1.856,0-2.254c0.375-0.375,1.635,0.203,2.125-0.002c1.232-0.518,3.461-1.759,3.75-3.063
		c0.973-4.385-6-16.188-6-16.188H96.5v-5h-3v-4h3v-4h5v4h3v4h-3v5h13.066c0,0-6.973,11.803-6,16.188
		c0.289,1.305,2.518,2.92,3.75,3.438c0.49,0.205,1.75-0.563,2.125-0.188c0.396,0.397,0.396,1.759,0,2.156
		c-0.287,0.287-1.25-0.199-1.625-0.047c-1.697,0.692-4.705,3.352-5.25,5.102c-2.711,8.695,2.262,27.961,7,35.738
		c1.287,2.115,5.338,5.209,6.75,7.244c0.557,0.803,1.8,2.52,1.75,3.497c-0.053,1.053-2.36,3.013-2.25,4.062
		C120.9,290.492,123.066,292.5,123.066,292.5z"/>
	<path stroke="#FFFFFF" stroke-miterlimit="10" d="M147.816,310.5h-46.373c0,0,2.166-2.01,2.25-2.813
		c0.107-1.047-2.197-2.76-2.25-3.813c-0.05-0.978,1.189-2.822,1.75-3.625c1.41-2.035,5.461-5.197,6.75-7.313
		c4.738-7.777,9.707-27.086,7-35.781c-0.547-1.75-3.553-4.448-5.25-5.141c-0.377-0.152-1.338,0.279-1.625-0.008
		c-0.396-0.397-0.396-1.856,0-2.254c0.375-0.375,1.635,0.203,2.125-0.002c1.232-0.518,3.461-1.759,3.75-3.063
		c0.973-4.385-6-16.188-6-16.188H121.5v-5h-3v-4h3v-4h5v4h3v4h-3v5h12.816c0,0-6.973,11.803-6,16.188
		c0.289,1.305,2.518,2.92,3.75,3.438c0.49,0.205,1.75-0.563,2.125-0.188c0.396,0.397,0.396,1.759,0,2.156
		c-0.287,0.287-1.25-0.199-1.625-0.047c-1.697,0.692-4.705,3.352-5.25,5.102c-2.711,8.695,2.262,27.961,7,35.738
		c1.287,2.115,5.338,5.209,6.75,7.244c0.557,0.803,1.8,2.52,1.75,3.497c-0.053,1.053-2.36,3.013-2.25,4.062
		C145.65,308.492,147.816,310.5,147.816,310.5z"/>
</g>
<g id="Layer_17">
	<g>
		<polygon fill="#FFFFFF" points="170.646,61.769 67.916,46.305 43.5,96.087 75.513,134.746 73.071,170.379 132.213,198.5 
			167.48,184.122 252.952,190.724 287.663,159.705 270.254,136.917 304.263,103.548 283.865,53.359 		"/>
		<path d="M170.415,65.589l-25.976-4.2c-8.555-1.331-17.1-2.728-25.664-3.99l-25.684-3.863c-8.574-1.196-17.136-2.478-25.723-3.598
			l3.845-2.015L45.322,96.981l-0.259-2.189L75.931,134.4l0.11,0.142l0.013,0.242c0.164,2.995,0.237,5.983,0.352,8.974
			c0.102,2.99,0.168,5.978,0.225,8.965c0.108,5.974,0.176,11.945,0.178,17.912l-2.128-3.638c5.1,1.982,10.165,4.038,15.24,6.073
			c5.05,2.088,10.124,4.125,15.15,6.261l7.555,3.176l7.528,3.229c5.023,2.143,10.024,4.335,15.018,6.541l-5.559-0.158
			c2.905-1.281,5.802-2.583,8.72-3.832l8.741-3.781c5.82-2.539,11.688-4.961,17.528-7.447l1.546-0.658l1.92,0.116
			c3.566,0.216,7.127,0.498,10.69,0.752l10.687,0.78l10.681,0.869l5.34,0.439l5.337,0.479l10.672,0.984l10.664,1.082
			c3.556,0.349,7.107,0.75,10.659,1.15s7.104,0.781,10.652,1.228l-4.802,1.624c3.015-2.448,5.994-4.936,9.037-7.352
			c3.038-2.422,6.046-4.878,9.113-7.268c3.055-2.403,6.104-4.813,9.193-7.177l4.626-3.557l4.654-3.523l-0.46,4.854l-3.846-6.084
			l-3.794-6.124c-1.241-2.06-2.507-4.1-3.717-6.183c-1.215-2.079-2.455-4.139-3.633-6.247l-0.231-0.416l0.283-0.301l32.682-34.721
			l-0.551,2.657l-22.394-49.377l4.594,2.851c-4.702,0.558-9.406,1.083-14.115,1.55c-4.707,0.492-9.418,0.92-14.129,1.365
			l-14.139,1.235l-14.147,1.118l-14.155,1.015c-2.358,0.175-4.718,0.337-7.081,0.456c-2.36,0.156-4.729,0.204-7.094,0.292
			c-4.735,0.106-9.479,0.094-14.22,0.133c-2.371,0.022-4.739,0.063-7.104,0.146c-2.368,0.051-4.728,0.217-7.092,0.319
			L170.415,65.589z M170.72,57.933c2.235-0.229,4.475-0.41,6.705-0.695c2.353-0.268,4.701-0.577,7.048-0.905
			c4.695-0.661,9.386-1.374,14.085-1.969c2.352-0.262,4.701-0.564,7.059-0.759c2.354-0.231,4.712-0.42,7.071-0.595l14.149-1.088
			l14.157-0.985l14.166-0.868c4.725-0.255,9.447-0.528,14.176-0.737c4.726-0.234,9.456-0.41,14.189-0.553l3.527-0.106l1.066,2.957
			l18.401,51l0.587,1.627l-1.138,1.031l-35.336,32.016l0.052-0.716c1.725,1.689,3.386,3.428,5.071,5.147
			c1.692,1.715,3.328,3.473,4.988,5.211l4.911,5.271l4.858,5.31l2.038,2.227l-2.498,2.627l-4.023,4.231l-4.052,4.198
			c-2.696,2.805-5.432,5.566-8.162,8.333c-2.718,2.78-5.495,5.494-8.242,8.241c-2.742,2.753-5.548,5.436-8.318,8.157l-1.743,1.712
			l-3.06-0.088c-3.574-0.103-7.144-0.273-10.715-0.423c-3.57-0.15-7.142-0.299-10.709-0.5l-10.704-0.568l-10.695-0.667l-5.348-0.346
			l-5.344-0.386l-10.688-0.782l-10.681-0.871c-3.56-0.295-7.121-0.564-10.678-0.898l3.465-0.542
			c-5.914,2.307-11.803,4.677-17.738,6.932l-8.893,3.408c-2.96,1.147-5.941,2.242-8.914,3.358l-3.024,1.135l-2.535-1.293
			c-4.862-2.48-9.719-4.975-14.552-7.52l-7.257-3.801l-7.231-3.854c-4.831-2.55-9.613-5.2-14.42-7.799
			c-4.782-2.651-9.574-5.282-14.331-7.987l-2.438-1.387l0.311-2.251c0.815-5.911,1.696-11.817,2.619-17.721
			c0.464-2.952,0.937-5.902,1.445-8.851c0.521-2.948,1.001-5.898,1.572-8.842l0.123,0.383l-33.158-37.71l-0.826-0.94l0.567-1.249
			l22.94-50.505l1.126-2.479l2.719,0.464c8.535,1.458,17.096,2.752,25.643,4.133l25.682,3.869
			c8.558,1.314,17.135,2.495,25.701,3.741L170.72,57.933z"/>
	</g>
	<text transform="matrix(1 0 0 1 67.918 118.7397)" font-family="'Century'" font-size="75.9618">Board</text>
	<text transform="matrix(1 0 0 1 92.5635 170.3789)" font-family="'Century'" font-size="59.6843">Game</text>
</g>
<g id="Layer_18">
	<path fill="#FFFFFF" stroke="#000000" stroke-width="0.7413" stroke-miterlimit="10" d="M315.406,259.383
		c-3.374,1.448-33.756,0.831-35.008,0c-2.478-1.65-17.396-27.156-17.392-30.521c0.005-2.362,16.078-29.309,17.136-30.006
		c1.224-0.808,32.985-1.231,35.264-0.164c2.683,1.257,17.171,28.533,17.465,30.346C333.453,232.638,317.445,258.508,315.406,259.383
		z"/>
	<path fill="#FFFFFF" stroke="#000000" stroke-width="0.3866" stroke-miterlimit="10" d="M315.406,199.949
		c0.846,2.61-17.553,29.089-17.553,29.089s12.117,23.771,16.6,28.694"/>
	<path fill="#FFFFFF" stroke="#000000" stroke-width="0.3866" stroke-miterlimit="10" d="M264.261,228.955
		c0,0,30.183,1.564,33.593,0.083"/>
	<circle stroke="#000000" stroke-width="0.3866" stroke-miterlimit="10" cx="279.239" cy="241.214" r="1.933"/>
	<circle stroke="#000000" stroke-width="0.3866" stroke-miterlimit="10" cx="291.609" cy="241.214" r="1.933"/>
	<circle stroke="#000000" stroke-width="0.3866" stroke-miterlimit="10" cx="306.685" cy="229.616" r="1.933"/>
	<circle fill="#FF0000" cx="288.8" cy="213.486" r="2.899"/>
	<circle stroke="#000000" stroke-width="0.3866" stroke-miterlimit="10" cx="326.399" cy="230.776" r="1.934"/>
	<circle stroke="#000000" stroke-width="0.3866" stroke-miterlimit="10" cx="297.021" cy="251.651" r="1.933"/>
	<circle stroke="#000000" stroke-width="0.3866" stroke-miterlimit="10" cx="285.811" cy="252.036" r="1.933"/>
	<path fill="#FFFFFF" stroke="#000000" stroke-width="0.508" stroke-miterlimit="10" d="M345.057,210.021
		c-1.866-1.688-10.168-20.785-10.008-21.802c0.318-2.015,11.938-18.598,14.034-19.558c1.473-0.672,22.85,1.634,23.586,2.093
		c0.853,0.531,10.196,20.191,10.183,21.915c-0.017,2.03-12.86,18.85-13.905,19.55C366.871,213.612,346.186,211.038,345.057,210.021z
		"/>
	<path fill="#FFFFFF" stroke="#000000" stroke-width="0.2649" stroke-miterlimit="10" d="M382.069,193.027
		c-1.382,1.273-23.133-2.615-23.133-2.615s-11.341,14.343-13.125,18.542"/>
	<path fill="#FFFFFF" stroke="#000000" stroke-width="0.2649" stroke-miterlimit="10" d="M349.385,169.469
		c0,0,7.654,19.245,9.552,20.943"/>
	<circle stroke="#000000" stroke-width="0.2649" stroke-miterlimit="10" cx="346.32" cy="180.493" r="1.325"/>
	<circle stroke="#000000" stroke-width="0.2649" stroke-miterlimit="10" cx="351.589" cy="190.753" r="1.325"/>
	<circle stroke="#000000" stroke-width="0.2649" stroke-miterlimit="10" cx="363.092" cy="202.417" r="1.324"/>
	<circle stroke="#000000" stroke-width="0.2649" stroke-miterlimit="10" cx="345.489" cy="189.642" r="1.325"/>
	<circle stroke="#000000" stroke-width="0.2649" stroke-miterlimit="10" cx="361.1" cy="196.079" r="1.324"/>
	<circle stroke="#000000" stroke-width="0.2649" stroke-miterlimit="10" cx="364.051" cy="175.719" r="1.324"/>
	<circle stroke="#000000" stroke-width="0.2649" stroke-miterlimit="10" cx="357.701" cy="175.281" r="1.325"/>
	<circle stroke="#000000" stroke-width="0.2649" stroke-miterlimit="10" cx="367.616" cy="184.703" r="1.324"/>
	<circle stroke="#000000" stroke-width="0.2649" stroke-miterlimit="10" cx="361.94" cy="184.514" r="1.324"/>
	<circle stroke="#000000" stroke-width="0.2649" stroke-miterlimit="10" cx="343.958" cy="198.917" r="1.325"/>
	<circle stroke="#000000" stroke-width="0.2649" stroke-miterlimit="10" cx="374.294" cy="185.326" r="1.324"/>
	<circle stroke="#000000" stroke-width="0.2649" stroke-miterlimit="10" cx="370.054" cy="176.09" r="1.325"/>
	<circle stroke="#000000" stroke-width="0.2649" stroke-miterlimit="10" cx="365.133" cy="208.18" r="1.325"/>
	<circle stroke="#000000" stroke-width="0.2649" stroke-miterlimit="10" cx="339.611" cy="188.527" r="1.324"/>
</g>
<g id="Layer_19">
</g>
<g id="Layer_20">
</g>
<g id="Layer_21">
</g>
<g id="Layer_22">
</g>
<g id="Layer_23">
</g>
<g id="Layer_24">
</g>
</svg>
