<?xml version="1.0" encoding="utf-8"?>
<!-- Generator: Adobe Illustrator 16.0.0, SVG Export Plug-In . SVG Version: 6.00 Build 0)  -->
<!DOCTYPE svg PUBLIC "-//W3C//DTD SVG 1.1 Tiny//EN" "http://www.w3.org/Graphics/SVG/1.1/DTD/svg11-tiny.dtd">
<svg version="1.1" baseProfile="tiny" xmlns="http://www.w3.org/2000/svg" xmlns:xlink="http://www.w3.org/1999/xlink" x="0px"
	 y="0px" width="400px" height="400px" viewBox="0 0 400 400" xml:space="preserve">
<g id="Layer_1">
</g>
<g id="Layer_5">
</g>
<g id="Layer_4">
</g>
<g id="Layer_6">
</g>
<g id="Layer_3">
</g>
<g id="Layer_2">
</g>
<g id="Layer_7">
</g>
<g id="Layer_12">
</g>
<g id="Layer_11">
</g>
<g id="Layer_10">
</g>
<g id="Layer_13">
</g>
<g id="Layer_8" display="none">
</g>
<g id="Layer_9" display="none">
</g>
<g id="Layer_15">
</g>
<g id="Layer_14">
</g>
<g id="Layer_16">
</g>
<g id="Layer_17">
</g>
<g id="Layer_18">
</g>
<g id="Layer_19">
</g>
<g id="Layer_20">
</g>
<g id="Layer_21">
</g>
<g id="Layer_22">
	<path fill="none" stroke="#FFFFFF" stroke-width="2.7" stroke-miterlimit="10" d="M295.201,335.112
		c-3.853,10.089-3.333,11.251-13.422,7.397l-33.631-12.845c-10.089-3.853-10.608-5.015-6.755-15.104l26.975-70.624
		c3.853-10.089,4.373-8.927,14.462-5.074l33.631,12.845c10.089,3.854,9.569,2.691,5.715,12.781L295.201,335.112z"/>
	<path fill="#FFFFFF" stroke="#000000" stroke-miterlimit="10" d="M105.5,56.274v75.6c0,9.171-0.498,10.626-7.122,10.626h-0.226
		c-0.62,0-1.079,0.004-1.836,0.014c-0.656,0.009-1.358-0.014-2.114-0.014H55.466c-0.432,0-0.837-0.004-1.225-0.004
		c-0.045,0-0.089,0.004-0.134,0.004h-0.1c-0.135,0-0.261,0.064-0.387,0.056c-0.091,0-0.132,0.037-0.221,0.027
		c-5.949-0.297-5.9-1.862-5.9-10.709v-75.6c0-9.387-0.049-10.774,7.052-10.774c0.152,0,0.267,0,0.437,0h0.226
		c0.891,0,1.881,0,2.988,0h36c1.008,0,1.926,0,2.753,0c0.01,0,0.01,0,0.019,0c3.447,0,5.418,0,6.534,1h0.009
		c0.469,1,0.783,1.058,0.999,1.787l0.009,0.069c0.045,0.145,0.33,0.314,0.366,0.477C105.251,50.425,105.5,52.809,105.5,56.274z"/>
	<path fill="#CC6666" d="M60.326,134.916l-0.019,0.036l-0.045,0.081l-4.536,7.587l-0.252-0.278c-0.486,0-0.936-0.342-1.367-0.342
		h-0.1c-0.126,0-0.261,0.314-0.387,0.306c-0.091,0-0.156,0.162-0.246,0.152c-6.211-0.252-6.375-1.62-6.375-10.584v-2.16l0.426-0.72
		l4.659-7.515l8.049,13.302l0.113,0.081L60.326,134.916z"/>
	<polygon fill="#CC6666" points="68.156,94.52 60.226,107.865 68.156,121.403 76.183,107.961 	"/>
	<polygon fill="#CC6666" points="60.326,81.006 60.308,81.042 52.098,94.443 47,86.082 47,75.804 52.098,67.56 60.144,80.871 	"/>
	<polygon fill="#663806" points="60.326,107.961 60.308,107.998 52.098,121.407 47,113.046 47,102.759 52.098,94.515 
		60.144,107.826 	"/>
	<polygon fill="#663806" points="68.156,67.563 60.226,80.908 68.156,94.446 76.183,81.004 	"/>
	<polygon fill="#663806" points="76.185,134.916 76.166,135.115 71.549,143 64.826,143 60.308,135.115 60.227,134.898 
		60.244,134.822 68.155,121.5 76.103,134.792 	"/>
	<polygon fill="#8E1B1B" points="92.042,134.916 92.024,135.115 87.407,143 80.685,143 76.166,135.115 76.085,134.898 
		76.103,134.822 84.014,121.5 91.961,134.792 	"/>
	<polygon fill="#8E1B1B" points="84.014,67.563 76.083,80.908 84.014,94.446 92.04,81.004 	"/>
	<path fill="#CC6666" d="M98.602,142.629c-0.621,0.018-1.416,0.027-2.173,0.036l-4.349-7.524l-0.136-0.189l-0.042-0.135
		l-0.079-0.036l0.061-0.108l7.988-13.193l5.128,8.586v1.809C105,140.946,104.965,142.395,98.602,142.629z"/>
	<polygon fill="#CC6666" points="99.871,67.56 105,76.155 105,85.857 99.871,94.443 92.023,81.042 91.942,80.907 91.961,80.871 	"/>
	<polygon fill="#663806" points="99.871,94.515 105,103.11 105,112.812 99.871,121.407 92.023,107.998 91.942,107.862 
		91.961,107.826 	"/>
	<path fill="none" d="M55.475,142.666v0.009h-0.009c-0.432,0-0.837-0.018-1.225-0.018c-0.045,0-0.089-0.009-0.134-0.009
		C54.539,142.656,54.988,142.666,55.475,142.666z"/>
	<path fill="none" d="M105,130.767v1.107c0,9.171,0.226,10.557-6.399,10.755c6.363-0.234,6.399-1.683,6.399-10.755v-1.809V130.767z"
		/>
	<polygon fill="#AD9B8A" points="84.014,94.52 76.083,107.865 84.014,121.403 92.04,107.961 	"/>
	<polygon fill="#CC6666" points="76.185,54.051 76.166,54.087 68.155,67.488 60.308,54.087 60.227,53.952 60.244,54.179 65.267,46 
		71.063,46 76.103,54.179 	"/>
	<path fill="#663806" d="M60.326,54.051l-0.019,0.036l-8.234,13.401l-4.647-7.623L47,59.127v-2.853c0-3.528,0.004-5.904,0.426-7.506
		c0.252-0.981,0.636-1.665,1.266-2.151c1.098-0.846,2.883-1.071,5.817-1.125c0.152,0,0.313-0.009,0.482-0.009l5.138,8.433
		l0.099,0.072l0.035,0.018l0.045,0.036L60.326,54.051z"/>
	<path fill="#663806" d="M104.523,48.408c0.479,1.593,0.477,4.06,0.477,7.866v2.628l-5.129,8.586l-7.848-13.401l-0.081-0.135
		l0.019-0.036l5.013-8.433c3.456,0.036,5.428,0.225,6.543,1.224l0.998,1.683L104.523,48.408z"/>
	<path fill="none" d="M48.68,46.617l-1.277,2.151C47.654,47.787,48.05,47.103,48.68,46.617z"/>
	<polygon fill="#AD9B8A" points="92.042,54.051 92.024,54.087 84.014,67.488 76.166,54.087 76.085,53.952 76.103,54.179 81.125,46 
		86.921,46 91.961,54.179 	"/>
	<path fill="none" stroke="#FFFFFF" stroke-width="3" stroke-miterlimit="10" d="M105.5,130.974c0,10.8,0.402,11.526-10.398,11.526
		h-36c-10.8,0-11.602-0.726-11.602-11.526v-75.6c0-10.8,0.802-9.874,11.602-9.874h36c10.801,0,10.398-0.926,10.398,9.874V130.974z"
		/>
	<path fill="#FFFFFF" stroke="#000000" stroke-miterlimit="10" d="M168.5,56.274v75.6c0,9.171,0.402,10.626-6.223,10.626h-0.225
		c-0.621,0-1.079,0.004-1.836,0.014c-0.657,0.009-1.359-0.014-2.115-0.014h-38.735c-0.432,0-0.837-0.004-1.225-0.004
		c-0.045,0-0.09,0.004-0.135,0.004h-0.099c-0.135,0-0.262,0.064-0.387,0.056c-0.091,0-0.082,0.037-0.172,0.027
		c-5.949-0.297-5.85-1.862-5.85-10.709v-75.6c0-9.387-0.1-10.774,7.002-10.774c0.152,0,0.216,0,0.387,0h0.225
		c0.892,0,1.881,0,2.988,0h36c1.009,0,1.926,0,2.754,0c0.01,0,0.01,0,0.019,0c3.447,0,5.418,0,6.534,1h0.009
		c0.468,1,0.782,1.058,0.999,1.787l0.009,0.069c0.045,0.145-0.12,0.314-0.084,0.477C168.701,50.425,168.5,52.809,168.5,56.274z"/>
	<path fill="#CC6666" d="M124.227,134.916l-0.019,0.036l-0.045,0.081l-4.536,7.587l-0.252-0.278c-0.486,0-0.937-0.342-1.368-0.342
		h-0.099c-0.126,0-0.262,0.314-0.387,0.306c-0.091,0-0.106,0.162-0.196,0.152c-6.21-0.252-6.325-1.62-6.325-10.584v-2.16l0.376-0.72
		l4.635-7.515l8.035,13.302l0.108,0.081L124.227,134.916z"/>
	<polygon fill="#CC6666" points="132.057,94.52 124.126,107.865 132.057,121.403 140.083,107.961 	"/>
	<polygon fill="#CC6666" points="124.227,81.006 124.208,81.042 116.048,94.443 111,86.082 111,75.804 116.048,67.56 
		124.069,80.871 	"/>
	<polygon fill="#663806" points="124.227,107.961 124.208,107.998 116.048,121.407 111,113.046 111,102.759 116.048,94.515 
		124.069,107.826 	"/>
	<polygon fill="#663806" points="132.057,67.563 124.126,80.908 132.057,94.446 140.083,81.004 	"/>
	<polygon fill="#663806" points="140.084,134.916 140.065,135.115 135.449,143 128.727,143 124.208,135.115 124.127,134.898 
		124.145,134.822 132.056,121.5 140.003,134.792 	"/>
	<polygon fill="#8E1B1B" points="155.941,134.916 155.924,135.115 151.307,143 144.584,143 140.065,135.115 139.985,134.898 
		140.003,134.822 147.914,121.5 155.86,134.792 	"/>
	<polygon fill="#8E1B1B" points="147.914,67.563 139.983,80.908 147.914,94.446 155.939,81.004 	"/>
	<path fill="#CC6666" d="M162.051,142.629c-0.619,0.018-1.19,0.027-1.947,0.036l-4.236-7.524l-0.08-0.189l-0.012-0.135l-0.065-0.036
		l0.066-0.108l7.543-13.193l4.681,8.586v1.809C168,140.946,168.414,142.395,162.051,142.629z"/>
	<polygon fill="#CC6666" points="163.32,67.56 168,76.155 168,85.857 163.32,94.443 155.698,81.042 155.73,80.907 155.578,80.871 	
		"/>
	<polygon fill="#663806" points="163.32,94.515 168,103.11 168,112.812 163.32,121.407 155.698,107.998 155.73,107.862 
		155.578,107.826 	"/>
	<path fill="none" d="M119.375,142.666v0.009h-0.009c-0.432,0-0.837-0.018-1.225-0.018c-0.045,0-0.09-0.009-0.135-0.009
		C118.438,142.656,118.889,142.666,119.375,142.666z"/>
	<path fill="none" d="M168,130.767v1.107c0,9.171,0.225,10.557-6.399,10.755c6.363-0.234,6.399-1.683,6.399-10.755v-1.809V130.767z"
		/>
	<polygon fill="#AD9B8A" points="147.914,94.52 139.983,107.865 147.914,121.403 155.939,107.961 	"/>
	<polygon fill="#CC6666" points="140.084,54.051 140.065,54.087 132.056,67.488 124.208,54.087 124.127,53.952 124.145,54.179 
		129.167,46 134.963,46 140.003,54.179 	"/>
	<path fill="#663806" d="M124.227,54.051l-0.019,0.036l-8.234,13.401l-4.598-7.623L111,59.127v-2.853
		c0-3.528-0.047-5.904,0.376-7.506c0.252-0.981,0.61-1.665,1.241-2.151c1.098-0.846,2.87-1.071,5.804-1.125
		c0.153,0,0.306-0.009,0.478-0.009l5.134,8.433l0.097,0.072l0.035,0.018l0.045,0.036L124.227,54.051z"/>
	<path fill="#663806" d="M167.973,48.408c0.479,1.593,0.027,4.06,0.027,7.866v2.628l-4.68,8.586l-7.622-13.401l0.032-0.135
		l0.074-0.036l5.041-8.433c3.455,0.036,5.441,0.225,6.557,1.224l0.781,1.683L167.973,48.408z"/>
	<path fill="none" d="M112.58,46.617l-1.278,2.151C111.554,47.787,111.949,47.103,112.58,46.617z"/>
	<polygon fill="#AD9B8A" points="155.941,54.051 155.924,54.087 147.914,67.488 140.065,54.087 139.985,53.952 140.003,54.179 
		145.024,46 150.821,46 155.86,54.179 	"/>
	<path fill="none" stroke="#FFFFFF" stroke-width="3" stroke-miterlimit="10" d="M168.5,130.974c0,10.8,1.302,11.526-9.498,11.526
		h-36c-10.8,0-11.502-0.726-11.502-11.526v-75.6c0-10.8,0.702-9.874,11.502-9.874h36c10.8,0,9.498-0.926,9.498,9.874V130.974z"/>
	<path fill="#FFFFFF" stroke="#000000" stroke-miterlimit="10" d="M231.5,56.274v75.6c0,9.171,0.402,10.626-6.223,10.626h-0.225
		c-0.621,0-1.079,0.004-1.836,0.014c-0.657,0.009-1.359-0.014-2.115-0.014h-38.735c-0.432,0-0.837-0.004-1.225-0.004
		c-0.045,0-0.09,0.004-0.135,0.004h-0.099c-0.135,0-0.262,0.064-0.387,0.056c-0.091,0-0.082,0.037-0.172,0.027
		c-5.949-0.297-5.85-1.862-5.85-10.709v-75.6c0-9.387-0.1-10.774,7.002-10.774c0.152,0,0.216,0,0.387,0h0.225
		c0.892,0,1.881,0,2.988,0h36c1.009,0,1.926,0,2.754,0c0.01,0,0.01,0,0.019,0c3.447,0,5.418,0,6.534,1h0.009
		c0.468,1,0.782,1.058,0.999,1.787l0.009,0.069c0.045,0.145-0.12,0.314-0.084,0.477C231.701,50.425,231.5,52.809,231.5,56.274z"/>
	<path fill="#CC6666" d="M187.227,134.916l-0.019,0.036l-0.045,0.081l-4.536,7.587l-0.252-0.278c-0.486,0-0.937-0.342-1.368-0.342
		h-0.099c-0.126,0-0.262,0.314-0.387,0.306c-0.091,0-0.106,0.162-0.196,0.152c-6.21-0.252-6.325-1.62-6.325-10.584v-2.16l0.376-0.72
		l4.635-7.515l8.035,13.302l0.108,0.081L187.227,134.916z"/>
	<polygon fill="#CC6666" points="195.057,94.52 187.126,107.865 195.057,121.403 203.083,107.961 	"/>
	<polygon fill="#CC6666" points="187.227,81.006 187.208,81.042 179.048,94.443 174,86.082 174,75.804 179.048,67.56 
		187.069,80.871 	"/>
	<polygon fill="#663806" points="187.227,107.961 187.208,107.998 179.048,121.407 174,113.046 174,102.759 179.048,94.515 
		187.069,107.826 	"/>
	<polygon fill="#663806" points="195.057,67.563 187.126,80.908 195.057,94.446 203.083,81.004 	"/>
	<polygon fill="#663806" points="203.084,134.916 203.065,135.115 198.449,143 191.727,143 187.208,135.115 187.127,134.898 
		187.145,134.822 195.056,121.5 203.003,134.792 	"/>
	<polygon fill="#8E1B1B" points="218.941,134.916 218.924,135.115 214.307,143 207.584,143 203.065,135.115 202.985,134.898 
		203.003,134.822 210.914,121.5 218.86,134.792 	"/>
	<polygon fill="#8E1B1B" points="210.914,67.563 202.983,80.908 210.914,94.446 218.939,81.004 	"/>
	<path fill="#CC6666" d="M225.051,142.629c-0.619,0.018-1.19,0.027-1.947,0.036l-4.236-7.524l-0.08-0.189l-0.012-0.135l-0.065-0.036
		l0.066-0.108l7.543-13.193l4.681,8.586v1.809C231,140.946,231.414,142.395,225.051,142.629z"/>
	<polygon fill="#CC6666" points="226.32,67.56 231,76.155 231,85.857 226.32,94.443 218.698,81.042 218.73,80.907 218.578,80.871 	
		"/>
	<polygon fill="#663806" points="226.32,94.515 231,103.11 231,112.812 226.32,121.407 218.698,107.998 218.73,107.862 
		218.578,107.826 	"/>
	<path fill="none" d="M182.375,142.666v0.009h-0.009c-0.432,0-0.837-0.018-1.225-0.018c-0.045,0-0.09-0.009-0.135-0.009
		C181.438,142.656,181.889,142.666,182.375,142.666z"/>
	<path fill="none" d="M231,130.767v1.107c0,9.171,0.225,10.557-6.399,10.755c6.363-0.234,6.399-1.683,6.399-10.755v-1.809V130.767z"
		/>
	<polygon fill="#AD9B8A" points="210.914,94.52 202.983,107.865 210.914,121.403 218.939,107.961 	"/>
	<polygon fill="#CC6666" points="203.084,54.051 203.065,54.087 195.056,67.488 187.208,54.087 187.127,53.952 187.145,54.179 
		192.167,46 197.963,46 203.003,54.179 	"/>
	<path fill="#663806" d="M187.227,54.051l-0.019,0.036l-8.234,13.401l-4.598-7.623L174,59.127v-2.853
		c0-3.528-0.047-5.904,0.376-7.506c0.252-0.981,0.61-1.665,1.241-2.151c1.098-0.846,2.87-1.071,5.804-1.125
		c0.153,0,0.306-0.009,0.478-0.009l5.134,8.433l0.097,0.072l0.035,0.018l0.045,0.036L187.227,54.051z"/>
	<path fill="#663806" d="M230.973,48.408c0.479,1.593,0.027,4.06,0.027,7.866v2.628l-4.68,8.586l-7.622-13.401l0.032-0.135
		l0.074-0.036l5.041-8.433c3.455,0.036,5.441,0.225,6.557,1.224l0.781,1.683L230.973,48.408z"/>
	<path fill="none" d="M175.58,46.617l-1.278,2.151C174.554,47.787,174.949,47.103,175.58,46.617z"/>
	<polygon fill="#AD9B8A" points="218.941,54.051 218.924,54.087 210.914,67.488 203.065,54.087 202.985,53.952 203.003,54.179 
		208.024,46 213.821,46 218.86,54.179 	"/>
	<path fill="none" stroke="#FFFFFF" stroke-width="3" stroke-miterlimit="10" d="M231.5,130.974c0,10.8,1.302,11.526-9.498,11.526
		h-36c-10.8,0-11.502-0.726-11.502-11.526v-75.6c0-10.8,0.702-9.874,11.502-9.874h36c10.8,0,9.498-0.926,9.498,9.874V130.974z"/>
	<path fill="#FFFFFF" stroke="#000000" stroke-miterlimit="10" d="M294.5,56.274v75.6c0,9.171,0.402,10.626-6.223,10.626h-0.225
		c-0.621,0-1.079,0.004-1.836,0.014c-0.657,0.009-1.359-0.014-2.115-0.014h-38.735c-0.432,0-0.837-0.004-1.225-0.004
		c-0.045,0-0.09,0.004-0.135,0.004h-0.099c-0.135,0-0.262,0.064-0.387,0.056c-0.091,0-0.082,0.037-0.172,0.027
		c-5.949-0.297-5.85-1.862-5.85-10.709v-75.6c0-9.387-0.1-10.774,7.002-10.774c0.152,0,0.216,0,0.387,0h0.225
		c0.892,0,1.881,0,2.988,0h36c1.009,0,1.926,0,2.754,0c0.01,0,0.01,0,0.019,0c3.447,0,5.418,0,6.534,1h0.009
		c0.468,1,0.782,1.058,0.999,1.787l0.009,0.069c0.045,0.145-0.12,0.314-0.084,0.477C294.701,50.425,294.5,52.809,294.5,56.274z"/>
	<path fill="#CC6666" d="M250.227,134.916l-0.019,0.036l-0.045,0.081l-4.536,7.587l-0.252-0.278c-0.486,0-0.937-0.342-1.368-0.342
		h-0.099c-0.126,0-0.262,0.314-0.387,0.306c-0.091,0-0.106,0.162-0.196,0.152c-6.21-0.252-6.325-1.62-6.325-10.584v-2.16l0.376-0.72
		l4.635-7.515l8.035,13.302l0.108,0.081L250.227,134.916z"/>
	<polygon fill="#CC6666" points="258.057,94.52 250.126,107.865 258.057,121.403 266.083,107.961 	"/>
	<polygon fill="#CC6666" points="250.227,81.006 250.208,81.042 242.048,94.443 237,86.082 237,75.804 242.048,67.56 
		250.069,80.871 	"/>
	<polygon fill="#663806" points="250.227,107.961 250.208,107.998 242.048,121.407 237,113.046 237,102.759 242.048,94.515 
		250.069,107.826 	"/>
	<polygon fill="#663806" points="258.057,67.563 250.126,80.908 258.057,94.446 266.083,81.004 	"/>
	<polygon fill="#663806" points="266.084,134.916 266.065,135.115 261.449,143 254.727,143 250.208,135.115 250.127,134.898 
		250.145,134.822 258.056,121.5 266.003,134.792 	"/>
	<polygon fill="#8E1B1B" points="281.941,134.916 281.924,135.115 277.307,143 270.584,143 266.065,135.115 265.985,134.898 
		266.003,134.822 273.914,121.5 281.86,134.792 	"/>
	<polygon fill="#8E1B1B" points="273.914,67.563 265.983,80.908 273.914,94.446 281.939,81.004 	"/>
	<path fill="#CC6666" d="M288.051,142.629c-0.619,0.018-1.19,0.027-1.947,0.036l-4.236-7.524l-0.08-0.189l-0.012-0.135l-0.065-0.036
		l0.066-0.108l7.543-13.193l4.681,8.586v1.809C294,140.946,294.414,142.395,288.051,142.629z"/>
	<polygon fill="#CC6666" points="289.32,67.56 294,76.155 294,85.857 289.32,94.443 281.698,81.042 281.73,80.907 281.578,80.871 	
		"/>
	<polygon fill="#663806" points="289.32,94.515 294,103.11 294,112.812 289.32,121.407 281.698,107.998 281.73,107.862 
		281.578,107.826 	"/>
	<path fill="none" d="M245.375,142.666v0.009h-0.009c-0.432,0-0.837-0.018-1.225-0.018c-0.045,0-0.09-0.009-0.135-0.009
		C244.438,142.656,244.889,142.666,245.375,142.666z"/>
	<path fill="none" d="M294,130.767v1.107c0,9.171,0.225,10.557-6.399,10.755c6.363-0.234,6.399-1.683,6.399-10.755v-1.809V130.767z"
		/>
	<polygon fill="#AD9B8A" points="273.914,94.52 265.983,107.865 273.914,121.403 281.939,107.961 	"/>
	<polygon fill="#CC6666" points="266.084,54.051 266.065,54.087 258.056,67.488 250.208,54.087 250.127,53.952 250.145,54.179 
		255.167,46 260.963,46 266.003,54.179 	"/>
	<path fill="#663806" d="M250.227,54.051l-0.019,0.036l-8.234,13.401l-4.598-7.623L237,59.127v-2.853
		c0-3.528-0.047-5.904,0.376-7.506c0.252-0.981,0.61-1.665,1.241-2.151c1.098-0.846,2.87-1.071,5.804-1.125
		c0.153,0,0.306-0.009,0.478-0.009l5.134,8.433l0.097,0.072l0.035,0.018l0.045,0.036L250.227,54.051z"/>
	<path fill="#663806" d="M293.973,48.408c0.479,1.593,0.027,4.06,0.027,7.866v2.628l-4.68,8.586l-7.622-13.401l0.032-0.135
		l0.074-0.036l5.041-8.433c3.455,0.036,5.441,0.225,6.557,1.224l0.781,1.683L293.973,48.408z"/>
	<path fill="none" d="M238.58,46.617l-1.278,2.151C237.554,47.787,237.949,47.103,238.58,46.617z"/>
	<polygon fill="#AD9B8A" points="281.941,54.051 281.924,54.087 273.914,67.488 266.065,54.087 265.985,53.952 266.003,54.179 
		271.024,46 276.821,46 281.86,54.179 	"/>
	<path fill="none" stroke="#FFFFFF" stroke-width="3" stroke-miterlimit="10" d="M294.5,130.974c0,10.8,1.302,11.526-9.498,11.526
		h-36c-10.8,0-11.502-0.726-11.502-11.526v-75.6c0-10.8,0.702-9.874,11.502-9.874h36c10.8,0,9.498-0.926,9.498,9.874V130.974z"/>
	<path fill="#FFFFFF" stroke="#000000" stroke-miterlimit="10" d="M294.5,159.774v75.6c0,9.171,0.402,11.126-6.223,11.126h-0.225
		c-0.621,0-1.079,0.005-1.836,0.014c-0.657,0.01-1.359-0.014-2.115-0.014h-38.735c-0.432,0-0.837-0.004-1.225-0.004
		c-0.045,0-0.09,0.004-0.135,0.004h-0.099c-0.135,0-0.262-0.186-0.387-0.194c-0.091,0-0.082-0.089-0.172-0.097
		c-5.949-0.297-5.85-1.988-5.85-10.835v-75.6c0-9.387-0.1-10.852,7.002-11.023c0.152,0,0.216-0.251,0.387-0.251h0.225
		c0.892,0,1.881,0,2.988,0h36c1.009,0,1.926,0,2.754,0c0.01,0,0.01,0,0.019,0c3.447,0,5.418,0,6.534,1h0.009
		c0.468,1,0.782,1.308,0.999,2.037l0.009,0.194c0.045,0.145-0.12,0.377-0.084,0.539C294.701,153.862,294.5,156.309,294.5,159.774z"
		/>
	<path fill="#CC6666" d="M250.227,238.416l-0.019,0.036l-0.045,0.081l-4.536,7.586l-0.252-0.028c-0.486,0-0.937-0.091-1.368-0.091
		h-0.099c-0.126,0-0.262,0.063-0.387,0.056c-0.091,0-0.106,0.036-0.196,0.026c-6.21-0.25-6.325-1.744-6.325-10.708v-2.16l0.376-0.72
		l4.635-7.515l8.035,13.302l0.108,0.081L250.227,238.416z"/>
	<polygon fill="#CC6666" points="258.057,198.019 250.126,211.364 258.057,224.902 266.083,211.461 	"/>
	<polygon fill="#CC6666" points="250.227,184.506 250.208,184.542 242.048,197.943 237,189.582 237,179.304 242.048,171.06 
		250.069,184.371 	"/>
	<polygon fill="#663806" points="250.227,211.461 250.208,211.498 242.048,224.907 237,216.547 237,206.26 242.048,198.015 
		250.069,211.326 	"/>
	<polygon fill="#663806" points="258.057,171.063 250.126,184.408 258.057,197.946 266.083,184.504 	"/>
	<polygon fill="#663806" points="266.084,238.416 266.065,238.865 261.449,247 254.727,247 250.208,238.865 250.127,238.523 
		250.145,238.385 258.056,225.031 266.003,238.307 	"/>
	<polygon fill="#8E1B1B" points="281.941,238.416 281.924,238.865 277.307,247 270.584,247 266.065,238.865 265.985,238.523 
		266.003,238.385 273.914,225.031 281.86,238.307 	"/>
	<polygon fill="#8E1B1B" points="273.914,171.063 265.983,184.408 273.914,197.946 281.939,184.504 	"/>
	<path fill="#CC6666" d="M288.051,246.129c-0.619,0.02-1.19,0.027-1.947,0.037l-4.236-7.525l-0.08-0.188l-0.012-0.136l-0.065-0.035
		l0.066-0.109l7.543-13.192l4.681,8.586v1.809C294,244.446,294.414,245.895,288.051,246.129z"/>
	<polygon fill="#CC6666" points="289.32,171.06 294,179.655 294,189.357 289.32,197.943 281.698,184.542 281.73,184.407 
		281.578,184.371 	"/>
	<polygon fill="#663806" points="289.32,198.015 294,206.61 294,216.313 289.32,224.907 281.698,211.498 281.73,211.362 
		281.578,211.326 	"/>
	<path fill="none" d="M245.375,246.166v0.008h-0.009c-0.432,0-0.837-0.018-1.225-0.018c-0.045,0-0.09-0.008-0.135-0.008
		C244.438,246.156,244.889,246.166,245.375,246.166z"/>
	<path fill="none" d="M294,234.267v1.107c0,9.171,0.225,10.558-6.399,10.755c6.363-0.234,6.399-1.683,6.399-10.755v-1.809V234.267z"
		/>
	<polygon fill="#AD9B8A" points="273.914,198.019 265.983,211.364 273.914,224.902 281.939,211.461 	"/>
	<polygon fill="#CC6666" points="266.084,157.551 266.065,157.587 258.056,170.988 250.208,157.587 250.127,157.452 
		250.145,157.429 255.167,149 260.963,149 266.003,157.429 	"/>
	<path fill="#663806" d="M250.227,157.551l-0.019,0.036l-8.234,13.401l-4.598-7.623L237,162.627v-2.853
		c0-3.528-0.047-5.904,0.376-7.506c0.252-0.981,0.61-1.665,1.241-2.151c1.098-0.846,2.87-1.071,5.804-1.125
		c0.153,0,0.306-0.009,0.478-0.009l5.134,8.433l0.097,0.072l0.035,0.018l0.045,0.036L250.227,157.551z"/>
	<path fill="#663806" d="M293.973,151.908c0.479,1.593,0.027,4.06,0.027,7.866v2.628l-4.68,8.586l-7.622-13.401l0.032-0.135
		l0.074-0.036l5.041-8.433c3.455,0.036,5.441,0.225,6.557,1.224l0.781,1.683L293.973,151.908z"/>
	<path fill="none" d="M238.58,150.117l-1.278,2.151C237.554,151.287,237.949,150.603,238.58,150.117z"/>
	<polygon fill="#AD9B8A" points="281.941,157.551 281.924,157.587 273.914,170.988 266.065,157.587 265.985,157.452 
		266.003,157.429 271.024,149 276.821,149 281.86,157.429 	"/>
	<path fill="none" stroke="#FFFFFF" stroke-width="3" stroke-miterlimit="10" d="M294.5,234.475c0,10.799,1.302,12.025-9.498,12.025
		h-36c-10.8,0-11.502-1.227-11.502-12.025v-75.601c0-10.8,0.702-10.374,11.502-10.374h36c10.8,0,9.498-0.426,9.498,10.374V234.475z"
		/>
	<path fill="#FFFFFF" stroke="#000000" stroke-miterlimit="10" d="M231.5,159.774v75.6c0,9.171,0.402,11.126-6.223,11.126h-0.225
		c-0.621,0-1.079,0.005-1.836,0.014c-0.657,0.01-1.359-0.014-2.115-0.014h-38.735c-0.432,0-0.837-0.004-1.225-0.004
		c-0.045,0-0.09,0.004-0.135,0.004h-0.099c-0.135,0-0.262-0.186-0.387-0.194c-0.091,0-0.082-0.089-0.172-0.097
		c-5.949-0.297-5.85-1.988-5.85-10.835v-75.6c0-9.387-0.1-10.852,7.002-11.023c0.152,0,0.216-0.251,0.387-0.251h0.225
		c0.892,0,1.881,0,2.988,0h36c1.009,0,1.926,0,2.754,0c0.01,0,0.01,0,0.019,0c3.447,0,5.418,0,6.534,1h0.009
		c0.468,1,0.782,1.308,0.999,2.037l0.009,0.194c0.045,0.145-0.12,0.377-0.084,0.539C231.701,153.862,231.5,156.309,231.5,159.774z"
		/>
	<path fill="#CC6666" d="M187.227,238.416l-0.019,0.036l-0.045,0.081l-4.536,7.586l-0.252-0.028c-0.486,0-0.937-0.091-1.368-0.091
		h-0.099c-0.126,0-0.262,0.063-0.387,0.056c-0.091,0-0.106,0.036-0.196,0.026c-6.21-0.25-6.325-1.744-6.325-10.708v-2.16l0.376-0.72
		l4.635-7.515l8.035,13.302l0.108,0.081L187.227,238.416z"/>
	<polygon fill="#CC6666" points="195.057,198.019 187.126,211.364 195.057,224.902 203.083,211.461 	"/>
	<polygon fill="#CC6666" points="187.227,184.506 187.208,184.542 179.048,197.943 174,189.582 174,179.304 179.048,171.06 
		187.069,184.371 	"/>
	<polygon fill="#663806" points="187.227,211.461 187.208,211.498 179.048,224.907 174,216.547 174,206.26 179.048,198.015 
		187.069,211.326 	"/>
	<polygon fill="#663806" points="195.057,171.063 187.126,184.408 195.057,197.946 203.083,184.504 	"/>
	<polygon fill="#663806" points="203.084,238.416 203.065,238.865 198.449,247 191.727,247 187.208,238.865 187.127,238.523 
		187.145,238.385 195.056,225.031 203.003,238.307 	"/>
	<polygon fill="#8E1B1B" points="218.941,238.416 218.924,238.865 214.307,247 207.584,247 203.065,238.865 202.985,238.523 
		203.003,238.385 210.914,225.031 218.86,238.307 	"/>
	<polygon fill="#8E1B1B" points="210.914,171.063 202.983,184.408 210.914,197.946 218.939,184.504 	"/>
	<path fill="#CC6666" d="M225.051,246.129c-0.619,0.02-1.19,0.027-1.947,0.037l-4.236-7.525l-0.08-0.188l-0.012-0.136l-0.065-0.035
		l0.066-0.109l7.543-13.192l4.681,8.586v1.809C231,244.446,231.414,245.895,225.051,246.129z"/>
	<polygon fill="#CC6666" points="226.32,171.06 231,179.655 231,189.357 226.32,197.943 218.698,184.542 218.73,184.407 
		218.578,184.371 	"/>
	<polygon fill="#663806" points="226.32,198.015 231,206.61 231,216.313 226.32,224.907 218.698,211.498 218.73,211.362 
		218.578,211.326 	"/>
	<path fill="none" d="M182.375,246.166v0.008h-0.009c-0.432,0-0.837-0.018-1.225-0.018c-0.045,0-0.09-0.008-0.135-0.008
		C181.438,246.156,181.889,246.166,182.375,246.166z"/>
	<path fill="none" d="M231,234.267v1.107c0,9.171,0.225,10.558-6.399,10.755c6.363-0.234,6.399-1.683,6.399-10.755v-1.809V234.267z"
		/>
	<polygon fill="#AD9B8A" points="210.914,198.019 202.983,211.364 210.914,224.902 218.939,211.461 	"/>
	<polygon fill="#CC6666" points="203.084,157.551 203.065,157.587 195.056,170.988 187.208,157.587 187.127,157.452 
		187.145,157.429 192.167,149 197.963,149 203.003,157.429 	"/>
	<path fill="#663806" d="M187.227,157.551l-0.019,0.036l-8.234,13.401l-4.598-7.623L174,162.627v-2.853
		c0-3.528-0.047-5.904,0.376-7.506c0.252-0.981,0.61-1.665,1.241-2.151c1.098-0.846,2.87-1.071,5.804-1.125
		c0.153,0,0.306-0.009,0.478-0.009l5.134,8.433l0.097,0.072l0.035,0.018l0.045,0.036L187.227,157.551z"/>
	<path fill="#663806" d="M230.973,151.908c0.479,1.593,0.027,4.06,0.027,7.866v2.628l-4.68,8.586l-7.622-13.401l0.032-0.135
		l0.074-0.036l5.041-8.433c3.455,0.036,5.441,0.225,6.557,1.224l0.781,1.683L230.973,151.908z"/>
	<path fill="none" d="M175.58,150.117l-1.278,2.151C174.554,151.287,174.949,150.603,175.58,150.117z"/>
	<polygon fill="#AD9B8A" points="218.941,157.551 218.924,157.587 210.914,170.988 203.065,157.587 202.985,157.452 
		203.003,157.429 208.024,149 213.821,149 218.86,157.429 	"/>
	<path fill="none" stroke="#FFFFFF" stroke-width="3" stroke-miterlimit="10" d="M231.5,234.475c0,10.799,1.302,12.025-9.498,12.025
		h-36c-10.8,0-11.502-1.227-11.502-12.025v-75.601c0-10.8,0.702-10.374,11.502-10.374h36c10.8,0,9.498-0.426,9.498,10.374V234.475z"
		/>
	<path fill="#FFFFFF" stroke="#000000" stroke-miterlimit="10" d="M168.5,159.774v75.6c0,9.171,0.402,11.126-6.223,11.126h-0.225
		c-0.621,0-1.079,0.005-1.836,0.014c-0.657,0.01-1.359-0.014-2.115-0.014h-38.735c-0.432,0-0.837-0.004-1.225-0.004
		c-0.045,0-0.09,0.004-0.135,0.004h-0.099c-0.135,0-0.262-0.186-0.387-0.194c-0.091,0-0.082-0.089-0.172-0.097
		c-5.949-0.297-5.85-1.988-5.85-10.835v-75.6c0-9.387-0.1-10.852,7.002-11.023c0.152,0,0.216-0.251,0.387-0.251h0.225
		c0.892,0,1.881,0,2.988,0h36c1.009,0,1.926,0,2.754,0c0.01,0,0.01,0,0.019,0c3.447,0,5.418,0,6.534,1h0.009
		c0.468,1,0.782,1.308,0.999,2.037l0.009,0.194c0.045,0.145-0.12,0.377-0.084,0.539C168.701,153.862,168.5,156.309,168.5,159.774z"
		/>
	<path fill="#CC6666" d="M124.227,238.416l-0.019,0.036l-0.045,0.081l-4.536,7.586l-0.252-0.028c-0.486,0-0.937-0.091-1.368-0.091
		h-0.099c-0.126,0-0.262,0.063-0.387,0.056c-0.091,0-0.106,0.036-0.196,0.026c-6.21-0.25-6.325-1.744-6.325-10.708v-2.16l0.376-0.72
		l4.635-7.515l8.035,13.302l0.108,0.081L124.227,238.416z"/>
	<polygon fill="#CC6666" points="132.057,198.019 124.126,211.364 132.057,224.902 140.083,211.461 	"/>
	<polygon fill="#CC6666" points="124.227,184.506 124.208,184.542 116.048,197.943 111,189.582 111,179.304 116.048,171.06 
		124.069,184.371 	"/>
	<polygon fill="#663806" points="124.227,211.461 124.208,211.498 116.048,224.907 111,216.547 111,206.26 116.048,198.015 
		124.069,211.326 	"/>
	<polygon fill="#663806" points="132.057,171.063 124.126,184.408 132.057,197.946 140.083,184.504 	"/>
	<polygon fill="#663806" points="140.084,238.416 140.065,238.865 135.449,247 128.727,247 124.208,238.865 124.127,238.523 
		124.145,238.385 132.056,225.031 140.003,238.307 	"/>
	<polygon fill="#8E1B1B" points="155.941,238.416 155.924,238.865 151.307,247 144.584,247 140.065,238.865 139.985,238.523 
		140.003,238.385 147.914,225.031 155.86,238.307 	"/>
	<polygon fill="#8E1B1B" points="147.914,171.063 139.983,184.408 147.914,197.946 155.939,184.504 	"/>
	<path fill="#CC6666" d="M162.051,246.129c-0.619,0.02-1.19,0.027-1.947,0.037l-4.236-7.525l-0.08-0.188l-0.012-0.136l-0.065-0.035
		l0.066-0.109l7.543-13.192l4.681,8.586v1.809C168,244.446,168.414,245.895,162.051,246.129z"/>
	<polygon fill="#CC6666" points="163.32,171.06 168,179.655 168,189.357 163.32,197.943 155.698,184.542 155.73,184.407 
		155.578,184.371 	"/>
	<polygon fill="#663806" points="163.32,198.015 168,206.61 168,216.313 163.32,224.907 155.698,211.498 155.73,211.362 
		155.578,211.326 	"/>
	<path fill="none" d="M119.375,246.166v0.008h-0.009c-0.432,0-0.837-0.018-1.225-0.018c-0.045,0-0.09-0.008-0.135-0.008
		C118.438,246.156,118.889,246.166,119.375,246.166z"/>
	<path fill="none" d="M168,234.267v1.107c0,9.171,0.225,10.558-6.399,10.755c6.363-0.234,6.399-1.683,6.399-10.755v-1.809V234.267z"
		/>
	<polygon fill="#AD9B8A" points="147.914,198.019 139.983,211.364 147.914,224.902 155.939,211.461 	"/>
	<polygon fill="#CC6666" points="140.084,157.551 140.065,157.587 132.056,170.988 124.208,157.587 124.127,157.452 
		124.145,157.429 129.167,149 134.963,149 140.003,157.429 	"/>
	<path fill="#663806" d="M124.227,157.551l-0.019,0.036l-8.234,13.401l-4.598-7.623L111,162.627v-2.853
		c0-3.528-0.047-5.904,0.376-7.506c0.252-0.981,0.61-1.665,1.241-2.151c1.098-0.846,2.87-1.071,5.804-1.125
		c0.153,0,0.306-0.009,0.478-0.009l5.134,8.433l0.097,0.072l0.035,0.018l0.045,0.036L124.227,157.551z"/>
	<path fill="#663806" d="M167.973,151.908c0.479,1.593,0.027,4.06,0.027,7.866v2.628l-4.68,8.586l-7.622-13.401l0.032-0.135
		l0.074-0.036l5.041-8.433c3.455,0.036,5.441,0.225,6.557,1.224l0.781,1.683L167.973,151.908z"/>
	<path fill="none" d="M112.58,150.117l-1.278,2.151C111.554,151.287,111.949,150.603,112.58,150.117z"/>
	<polygon fill="#AD9B8A" points="155.941,157.551 155.924,157.587 147.914,170.988 140.065,157.587 139.985,157.452 
		140.003,157.429 145.024,149 150.821,149 155.86,157.429 	"/>
	<path fill="none" stroke="#FFFFFF" stroke-width="3" stroke-miterlimit="10" d="M168.5,234.475c0,10.799,1.302,12.025-9.498,12.025
		h-36c-10.8,0-11.502-1.227-11.502-12.025v-75.601c0-10.8,0.702-10.374,11.502-10.374h36c10.8,0,9.498-0.426,9.498,10.374V234.475z"
		/>
	<path fill="#FFFFFF" stroke="#000000" stroke-miterlimit="10" d="M105.5,159.774v75.6c0,9.171-0.498,11.126-7.122,11.126h-0.226
		c-0.62,0-1.079,0.005-1.836,0.014c-0.656,0.01-1.358-0.014-2.114-0.014H55.466c-0.432,0-0.837-0.004-1.225-0.004
		c-0.045,0-0.089,0.004-0.134,0.004h-0.1c-0.135,0-0.261-0.186-0.387-0.194c-0.091,0-0.132-0.089-0.221-0.097
		c-5.949-0.297-5.9-1.988-5.9-10.835v-75.6c0-9.387-0.049-10.852,7.052-11.023c0.152,0,0.267-0.251,0.437-0.251h0.226
		c0.891,0,1.881,0,2.988,0h36c1.008,0,1.926,0,2.753,0c0.01,0,0.01,0,0.019,0c3.447,0,5.418,0,6.534,1h0.009
		c0.469,1,0.783,1.308,0.999,2.037l0.009,0.194c0.045,0.145,0.33,0.377,0.366,0.539C105.251,153.862,105.5,156.309,105.5,159.774z"
		/>
	<path fill="#CC6666" d="M60.326,238.416l-0.019,0.036l-0.045,0.081l-4.536,7.586l-0.252-0.028c-0.486,0-0.936-0.091-1.367-0.091
		h-0.1c-0.126,0-0.261,0.063-0.387,0.056c-0.091,0-0.156,0.036-0.246,0.026c-6.211-0.25-6.375-1.744-6.375-10.708v-2.16l0.426-0.72
		l4.659-7.515l8.049,13.302l0.113,0.081L60.326,238.416z"/>
	<polygon fill="#CC6666" points="68.156,198.019 60.226,211.364 68.156,224.902 76.183,211.461 	"/>
	<polygon fill="#CC6666" points="60.326,184.506 60.308,184.542 52.098,197.943 47,189.582 47,179.304 52.098,171.06 
		60.144,184.371 	"/>
	<polygon fill="#663806" points="60.326,211.461 60.308,211.498 52.098,224.907 47,216.547 47,206.26 52.098,198.015 
		60.144,211.326 	"/>
	<polygon fill="#663806" points="68.156,171.063 60.226,184.408 68.156,197.946 76.183,184.504 	"/>
	<polygon fill="#663806" points="76.185,238.416 76.166,238.865 71.549,247 64.826,247 60.308,238.865 60.227,238.523 
		60.244,238.385 68.155,225.031 76.103,238.307 	"/>
	<polygon fill="#8E1B1B" points="92.042,238.416 92.024,238.865 87.407,247 80.685,247 76.166,238.865 76.085,238.523 
		76.103,238.385 84.014,225.031 91.961,238.307 	"/>
	<polygon fill="#8E1B1B" points="84.014,171.063 76.083,184.408 84.014,197.946 92.04,184.504 	"/>
	<path fill="#CC6666" d="M98.602,246.129c-0.621,0.02-1.416,0.027-2.173,0.037l-4.349-7.525l-0.136-0.188l-0.042-0.136l-0.079-0.035
		l0.061-0.109l7.988-13.192l5.128,8.586v1.809C105,244.446,104.965,245.895,98.602,246.129z"/>
	<polygon fill="#CC6666" points="99.871,171.06 105,179.655 105,189.357 99.871,197.943 92.023,184.542 91.942,184.407 
		91.961,184.371 	"/>
	<polygon fill="#663806" points="99.871,198.015 105,206.61 105,216.313 99.871,224.907 92.023,211.498 91.942,211.362 
		91.961,211.326 	"/>
	<path fill="none" d="M55.475,246.166v0.008h-0.009c-0.432,0-0.837-0.018-1.225-0.018c-0.045,0-0.089-0.008-0.134-0.008
		C54.539,246.156,54.988,246.166,55.475,246.166z"/>
	<path fill="none" d="M105,234.267v1.107c0,9.171,0.226,10.558-6.399,10.755c6.363-0.234,6.399-1.683,6.399-10.755v-1.809V234.267z"
		/>
	<polygon fill="#AD9B8A" points="84.014,198.019 76.083,211.364 84.014,224.902 92.04,211.461 	"/>
	<polygon fill="#CC6666" points="76.185,157.551 76.166,157.587 68.155,170.988 60.308,157.587 60.227,157.452 60.244,157.429 
		65.267,149 71.063,149 76.103,157.429 	"/>
	<path fill="#663806" d="M60.326,157.551l-0.019,0.036l-8.234,13.401l-4.647-7.623L47,162.627v-2.853
		c0-3.528,0.004-5.904,0.426-7.506c0.252-0.981,0.636-1.665,1.266-2.151c1.098-0.846,2.883-1.071,5.817-1.125
		c0.152,0,0.313-0.009,0.482-0.009l5.138,8.433l0.099,0.072l0.035,0.018l0.045,0.036L60.326,157.551z"/>
	<path fill="#663806" d="M104.523,151.908c0.479,1.593,0.477,4.06,0.477,7.866v2.628l-5.129,8.586l-7.848-13.401l-0.081-0.135
		l0.019-0.036l5.013-8.433c3.456,0.036,5.428,0.225,6.543,1.224l0.998,1.683L104.523,151.908z"/>
	<path fill="none" d="M48.68,150.117l-1.277,2.151C47.654,151.287,48.05,150.603,48.68,150.117z"/>
	<polygon fill="#AD9B8A" points="92.042,157.551 92.024,157.587 84.014,170.988 76.166,157.587 76.085,157.452 76.103,157.429 
		81.125,149 86.921,149 91.961,157.429 	"/>
	<path fill="none" stroke="#FFFFFF" stroke-width="3" stroke-miterlimit="10" d="M105.5,234.475
		c0,10.799,0.402,12.025-10.398,12.025h-36c-10.8,0-11.602-1.227-11.602-12.025v-75.601c0-10.8,0.802-10.374,11.602-10.374h36
		c10.801,0,10.398-0.426,10.398,10.374V234.475z"/>
	<path fill="#FFFFFF" stroke="#000000" stroke-width="0.9" stroke-miterlimit="10" d="M321.855,265.329l-26.975,70.624
		c-3.272,8.566-3.854,10.09-10.042,7.725l-0.21-0.08c-0.58-0.221-1.01-0.38-1.721-0.641c-0.616-0.227-1.264-0.498-1.971-0.769
		l-36.186-13.821c-0.403-0.153-0.78-0.302-1.143-0.441c-0.042-0.016-0.085-0.027-0.127-0.043l-0.093-0.035
		c-0.125-0.049-0.236-0.115-0.351-0.168c-0.084-0.033-0.165-0.07-0.246-0.111c-5.451-2.4-4.878-3.902-1.721-12.167l26.975-70.624
		c3.349-8.769,3.787-9.916,10.481-7.543c0.143,0.055,0.3,0.1,0.459,0.16l0.21,0.081c0.833,0.317,1.757,0.671,2.792,1.065
		l33.63,12.846c0.942,0.359,1.8,0.687,2.573,0.982c0.009,0.003,0.009,0.003,0.018,0.006c3.219,1.23,5.061,1.934,5.782,3.173
		l0.008,0.003c0.117,1.008,0.332,1.326,0.274,2.084l-0.028,0.098c-0.01,0.15-0.042,0.337-0.066,0.5
		C323.948,259.85,323.092,262.093,321.855,265.329z"/>
	<path fill="#CC6666" d="M252.061,322.854l-0.03,0.026l-0.071,0.061l-6.943,5.469l-0.177-0.246
		c-0.454-0.172-0.792-0.548-1.195-0.701l-0.094-0.035c-0.116-0.045-0.315,0.094-0.43,0.041c-0.084-0.031-0.205,0.035-0.286-0.006
		c-5.712-2.45-5.381-3.848-2.182-12.223l0.77-2.018l0.678-0.512l7.046-5.354l2.777,15.3l0.08,0.118L252.061,322.854z"/>
	<polygon fill="#CC6666" points="273.789,287.91 261.619,297.547 264.196,313.024 276.49,303.331 	"/>
	<polygon fill="#CC6666" points="271.295,272.493 271.266,272.52 258.791,282.102 256.99,272.463 260.658,262.861 268.384,256.987 
		271.163,272.297 	"/>
	<polygon fill="#663806" points="261.679,297.674 261.647,297.701 249.171,307.289 247.37,297.652 251.04,288.043 258.766,282.168 
		261.545,297.478 	"/>
	<polygon fill="#663806" points="283.407,262.729 271.237,272.365 273.815,287.842 286.109,278.148 	"/>
	<polygon fill="#663806" points="266.874,328.513 266.765,328.75 259.615,334.526 253.336,332.127 251.95,323.092 251.963,322.832 
		252.012,322.752 264.158,313.122 266.841,328.371 	"/>
	<polygon fill="#8E1B1B" points="281.688,334.17 281.578,334.408 274.431,340.185 268.149,337.786 266.765,328.75 266.777,328.488 
		266.826,328.41 278.973,318.779 281.656,334.029 	"/>
	<polygon fill="#8E1B1B" points="298.221,268.386 286.051,278.023 288.628,293.5 300.923,283.807 	"/>
	<path fill="#CC6666" d="M284.855,343.637c-0.587-0.205-1.229-0.439-1.938-0.702l-1.325-8.561l-0.033-0.214l0.022-0.137
		l-0.056-0.059l0.099-0.08l11.963-9.553l1.519,9.771l-0.645,1.69C291.224,344.268,290.884,345.688,284.855,343.637z"/>
	<polygon fill="#CC6666" points="312.825,273.961 314.342,283.741 310.88,292.805 303.234,299.076 300.79,283.796 300.814,283.661 
		300.765,283.604 	"/>
	<polygon fill="#663806" points="303.208,299.143 304.724,308.922 301.262,317.985 293.612,324.264 291.171,308.977 
		291.196,308.842 291.147,308.783 	"/>
	<path fill="none" d="M244.763,328.362l-0.002,0.008l-0.009-0.003c-0.403-0.153-0.775-0.314-1.138-0.453
		c-0.041-0.016-0.08-0.041-0.122-0.057C243.892,328.021,244.31,328.189,244.763,328.362z"/>
	<path fill="none" d="M294.855,334.758l-0.395,1.035c-3.272,8.566-3.558,9.941-9.815,7.764c6.028,2.051,6.578,0.711,9.815-7.764
		l0.645-1.69L294.855,334.758z"/>
	<polygon fill="#AD9B8A" points="288.603,293.568 276.433,303.205 279.011,318.682 291.305,308.988 	"/>
	<polygon fill="#CC6666" points="295.729,252.97 295.697,252.998 283.433,262.658 280.884,247.34 280.856,247.184 280.805,247.367 
		288.428,241.482 293.843,243.551 295.619,253.025 	"/>
	<path fill="#663806" d="M280.913,247.312l-0.029,0.028l-12.475,9.58l-1.644-8.787l-0.157-0.852l1.018-2.664
		c1.259-3.297,2.132-5.507,3.099-6.852c0.586-0.826,1.199-1.324,1.962-1.554c1.327-0.398,3.081,0.03,5.841,1.026
		c0.143,0.055,0.298,0.104,0.457,0.165l1.792,9.712l0.066,0.102l0.027,0.031l0.029,0.049L280.913,247.312z"/>
	<path fill="#663806" d="M324.006,257.73c-0.122,1.658-1.213,3.882-2.57,7.438l-0.938,2.455l-7.646,6.271l-2.445-15.279l0.026-0.135
		l0.055-0.018l7.706-6.084c3.216,1.267,4.996,2.149,5.682,3.48l0.231,1.891L324.006,257.73z"/>
	<path fill="none" d="M272.687,236.212l-1.962,1.554C271.311,236.939,271.924,236.441,272.687,236.212z"/>
	<polygon fill="#AD9B8A" points="310.541,258.627 310.512,258.655 298.247,268.316 295.697,252.998 295.67,252.842 295.619,253.025 
		303.243,247.141 308.657,249.209 310.434,258.684 	"/>
	<path fill="none" stroke="#FFFFFF" stroke-width="2.7" stroke-miterlimit="10" d="M295.201,335.112
		c-3.853,10.089-3.333,11.251-13.422,7.397l-33.631-12.845c-10.089-3.853-10.608-5.015-6.755-15.104l26.975-70.624
		c3.853-10.089,4.373-8.927,14.462-5.074l33.631,12.845c10.089,3.854,9.569,2.691,5.715,12.781L295.201,335.112z"/>
	<path fill="#FFFFFF" stroke="#000000" stroke-miterlimit="10" d="M357.5,56.274v75.6c0,9.171,0.402,10.626-6.223,10.626h-0.225
		c-0.621,0-1.079,0.004-1.836,0.014c-0.657,0.009-1.359-0.014-2.115-0.014h-38.735c-0.432,0-0.837-0.004-1.225-0.004
		c-0.045,0-0.09,0.004-0.135,0.004h-0.099c-0.135,0-0.262,0.064-0.387,0.056c-0.091,0-0.082,0.037-0.172,0.027
		c-5.949-0.297-5.85-1.862-5.85-10.709v-75.6c0-9.387-0.1-10.774,7.002-10.774c0.152,0,0.216,0,0.387,0h0.225
		c0.892,0,1.881,0,2.988,0h36c1.009,0,1.926,0,2.754,0c0.01,0,0.01,0,0.019,0c3.447,0,5.418,0,6.534,1h0.009
		c0.468,1,0.782,1.058,0.999,1.787l0.009,0.069c0.045,0.145-0.12,0.314-0.084,0.477C357.701,50.425,357.5,52.809,357.5,56.274z"/>
	<path fill="#CC6666" d="M313.227,134.916l-0.019,0.036l-0.045,0.081l-4.536,7.587l-0.252-0.278c-0.486,0-0.937-0.342-1.368-0.342
		h-0.099c-0.126,0-0.262,0.314-0.387,0.306c-0.091,0-0.106,0.162-0.196,0.152c-6.21-0.252-6.325-1.62-6.325-10.584v-2.16l0.376-0.72
		l4.635-7.515l8.035,13.302l0.108,0.081L313.227,134.916z"/>
	<polygon fill="#CC6666" points="321.057,94.52 313.126,107.865 321.057,121.403 329.083,107.961 	"/>
	<polygon fill="#CC6666" points="313.227,81.006 313.208,81.042 305.048,94.443 300,86.082 300,75.804 305.048,67.56 
		313.069,80.871 	"/>
	<polygon fill="#663806" points="313.227,107.961 313.208,107.998 305.048,121.407 300,113.046 300,102.759 305.048,94.515 
		313.069,107.826 	"/>
	<polygon fill="#663806" points="321.057,67.563 313.126,80.908 321.057,94.446 329.083,81.004 	"/>
	<polygon fill="#663806" points="329.084,134.916 329.065,135.115 324.449,143 317.727,143 313.208,135.115 313.127,134.898 
		313.145,134.822 321.056,121.5 329.003,134.792 	"/>
	<polygon fill="#8E1B1B" points="344.941,134.916 344.924,135.115 340.307,143 333.584,143 329.065,135.115 328.985,134.898 
		329.003,134.822 336.914,121.5 344.86,134.792 	"/>
	<polygon fill="#8E1B1B" points="336.914,67.563 328.983,80.908 336.914,94.446 344.939,81.004 	"/>
	<path fill="#CC6666" d="M351.051,142.629c-0.619,0.018-1.19,0.027-1.947,0.036l-4.236-7.524l-0.08-0.189l-0.012-0.135l-0.065-0.036
		l0.066-0.108l7.543-13.193l4.681,8.586v1.809C357,140.946,357.414,142.395,351.051,142.629z"/>
	<polygon fill="#CC6666" points="352.32,67.56 357,76.155 357,85.857 352.32,94.443 344.698,81.042 344.73,80.907 344.578,80.871 	
		"/>
	<polygon fill="#663806" points="352.32,94.515 357,103.11 357,112.812 352.32,121.407 344.698,107.998 344.73,107.862 
		344.578,107.826 	"/>
	<path fill="none" d="M308.375,142.666v0.009h-0.009c-0.432,0-0.837-0.018-1.225-0.018c-0.045,0-0.09-0.009-0.135-0.009
		C307.438,142.656,307.889,142.666,308.375,142.666z"/>
	<path fill="none" d="M357,130.767v1.107c0,9.171,0.225,10.557-6.399,10.755c6.363-0.234,6.399-1.683,6.399-10.755v-1.809V130.767z"
		/>
	<polygon fill="#AD9B8A" points="336.914,94.52 328.983,107.865 336.914,121.403 344.939,107.961 	"/>
	<polygon fill="#CC6666" points="329.084,54.051 329.065,54.087 321.056,67.488 313.208,54.087 313.127,53.952 313.145,54.179 
		318.167,46 323.963,46 329.003,54.179 	"/>
	<path fill="#663806" d="M313.227,54.051l-0.019,0.036l-8.234,13.401l-4.598-7.623L300,59.127v-2.853
		c0-3.528-0.047-5.904,0.376-7.506c0.252-0.981,0.61-1.665,1.241-2.151c1.098-0.846,2.87-1.071,5.804-1.125
		c0.153,0,0.306-0.009,0.478-0.009l5.134,8.433l0.097,0.072l0.035,0.018l0.045,0.036L313.227,54.051z"/>
	<path fill="#663806" d="M356.973,48.408c0.479,1.593,0.027,4.06,0.027,7.866v2.628l-4.68,8.586l-7.622-13.401l0.032-0.135
		l0.074-0.036l5.041-8.433c3.455,0.036,5.441,0.225,6.557,1.224l0.781,1.683L356.973,48.408z"/>
	<path fill="none" d="M301.58,46.617l-1.278,2.151C300.554,47.787,300.949,47.103,301.58,46.617z"/>
	<polygon fill="#AD9B8A" points="344.941,54.051 344.924,54.087 336.914,67.488 329.065,54.087 328.985,53.952 329.003,54.179 
		334.024,46 339.821,46 344.86,54.179 	"/>
	<path fill="none" stroke="#FFFFFF" stroke-width="3" stroke-miterlimit="10" d="M357.5,130.974c0,10.8,1.302,11.526-9.498,11.526
		h-36c-10.8,0-11.502-0.726-11.502-11.526v-75.6c0-10.8,0.702-9.874,11.502-9.874h36c10.8,0,9.498-0.926,9.498,9.874V130.974z"/>
	<path fill="#FFFFFF" stroke="#000000" stroke-width="0.9" stroke-miterlimit="10" d="M310.824,146.791l53.457,53.457
		c6.484,6.485,7.638,7.637,2.953,12.322l-0.159,0.159c-0.438,0.438-0.761,0.766-1.289,1.308c-0.457,0.47-0.971,0.95-1.505,1.485
		l-27.391,27.391c-0.305,0.305-0.594,0.588-0.868,0.863c-0.031,0.031-0.061,0.066-0.093,0.098l-0.07,0.07
		c-0.095,0.096-0.2,0.168-0.296,0.25c-0.063,0.064-0.132,0.123-0.201,0.18c-4.417,3.998-5.555,2.86-11.81-3.396l-53.458-53.457
		c-6.638-6.638-7.506-7.506-2.605-12.648c0.107-0.108,0.213-0.233,0.334-0.354l0.158-0.159c0.631-0.63,1.33-1.33,2.113-2.113
		l25.456-25.456c0.713-0.713,1.362-1.361,1.947-1.947c0.006-0.006,0.006-0.006,0.013-0.013c2.438-2.438,3.831-3.831,5.257-3.984
		l0.006-0.006c0.968,0.305,1.347,0.239,2.015,0.601l0.077,0.065c0.134,0.07,0.291,0.176,0.431,0.265
		C306.678,142.644,308.374,144.34,310.824,146.791z"/>
	<path fill="#CC6666" d="M334.842,233.988l0.013,0.039l0.025,0.089l2.157,8.572l-0.296,0.062c-0.344,0.344-0.824,0.499-1.129,0.805
		l-0.07,0.07c-0.089,0.088-0.042,0.327-0.137,0.41c-0.064,0.064-0.053,0.201-0.123,0.259c-4.568,4.214-5.71,3.34-12.048-2.999
		l-1.527-1.527l-0.191-0.826l-2.011-8.617l15.102,3.711l0.14-0.025L334.842,233.988z"/>
	<polygon fill="#CC6666" points="311.813,199.887 315.643,214.932 330.823,218.897 326.994,203.717 	"/>
	<polygon fill="#CC6666" points="296.722,195.869 296.733,195.907 300.388,211.206 290.854,208.916 283.587,201.648 
		281.378,192.197 296.489,195.911 	"/>
	<polygon fill="#663806" points="315.782,214.93 315.795,214.969 319.454,230.273 309.921,227.982 302.646,220.709 300.439,211.257 
		315.548,214.971 	"/>
	<polygon fill="#663806" points="292.753,180.827 296.581,195.871 311.762,199.835 307.933,184.656 	"/>
	<polygon fill="#663806" points="346.055,222.775 346.227,222.974 348.582,231.857 343.828,236.611 335.014,234.187 
		334.781,234.068 334.729,233.992 330.896,218.973 345.912,222.748 	"/>
	<polygon fill="#8E1B1B" points="357.269,211.563 357.44,211.761 359.795,220.645 355.041,225.397 346.227,222.974 345.994,222.855 
		345.941,222.778 342.109,207.759 357.126,211.535 	"/>
	<polygon fill="#8E1B1B" points="303.965,169.614 307.795,184.658 322.975,188.624 319.146,173.443 	"/>
	<path fill="#CC6666" d="M367.202,212.537c-0.425,0.451-0.903,0.941-1.432,1.482l-8.355-2.285l-0.211-0.057l-0.114-0.076
		l-0.075,0.025l-0.033-0.121l-3.837-14.822l9.539,2.603l1.279,1.279C370.378,206.98,371.535,207.871,367.202,212.537z"/>
	<polygon fill="#CC6666" points="315.019,158.558 324.564,161.167 331.424,168.027 334.027,177.567 319.081,173.56 318.969,173.482 
		318.896,173.504 	"/>
	<polygon fill="#663806" points="334.078,177.618 343.624,180.227 350.484,187.087 353.094,196.633 338.143,192.621 
		338.029,192.543 337.956,192.564 	"/>
	<path fill="none" d="M336.891,242.899l0.006,0.006l-0.006,0.007c-0.305,0.305-0.604,0.578-0.878,0.854
		c-0.031,0.031-0.069,0.057-0.101,0.088C336.223,243.555,336.547,243.243,336.891,242.899z"/>
	<path fill="none" d="M363.181,199.783l0.782,0.783c6.484,6.485,7.624,7.306,3.08,12.131c4.334-4.667,3.335-5.717-3.08-12.131
		l-1.279-1.279L363.181,199.783z"/>
	<polygon fill="#AD9B8A" points="323.026,188.675 326.855,203.719 342.036,207.684 338.206,192.504 	"/>
	<polygon fill="#CC6666" points="288.875,165.596 288.888,165.634 292.699,180.774 277.675,176.848 277.521,176.81 277.667,176.93 
		275.408,167.569 279.507,163.47 288.882,165.717 	"/>
	<path fill="#663806" d="M277.661,176.809l0.014,0.039l3.652,15.298l-8.693-2.086l-0.84-0.204l-2.018-2.018
		c-2.494-2.494-4.155-4.193-4.989-5.625c-0.515-0.872-0.719-1.635-0.617-2.425c0.178-1.374,1.286-2.8,3.321-4.913
		c0.108-0.108,0.218-0.23,0.338-0.35l9.597,2.329l0.121-0.019l0.039-0.013l0.057-0.006L277.661,176.809z"/>
	<path fill="#663806" d="M304.765,141.725c1.465,0.789,3.049,2.692,5.741,5.384l1.858,1.858l2.604,9.54l-14.946-4.006l-0.113-0.078
		l0.007-0.058l-2.408-9.518c2.47-2.418,4.002-3.684,5.497-3.766l1.82,0.561L304.765,141.725z"/>
	<path fill="none" d="M264.17,179.788l0.617,2.425C264.272,181.34,264.068,180.577,264.17,179.788z"/>
	<polygon fill="#AD9B8A" points="300.088,154.383 300.101,154.421 303.912,169.561 288.888,165.634 288.734,165.596 
		288.882,165.717 286.622,156.356 290.72,152.257 300.095,154.504 	"/>
	<path fill="none" stroke="#FFFFFF" stroke-width="2.7" stroke-miterlimit="10" d="M363.645,199.611
		c7.638,7.637,8.91,7.637,1.272,15.273l-25.454,25.456c-7.638,7.637-8.911,7.637-16.548,0l-53.457-53.457
		c-7.637-7.637-6.363-7.637,1.273-15.273l25.455-25.456c7.637-7.637,6.364-7.637,14.001,0L363.645,199.611z"/>
	<path fill="#FFFFFF" stroke="#000000" stroke-miterlimit="10" d="M357.5,264.174v75.6c0,9.172,0.402,10.727-6.223,10.727h-0.225
		c-0.621,0-1.079,0.004-1.836,0.014c-0.657,0.01-1.359-0.014-2.115-0.014h-38.735c-0.432,0-0.837-0.004-1.225-0.004
		c-0.045,0-0.09,0.004-0.135,0.004h-0.099c-0.135,0-0.262,0.014-0.387,0.006c-0.091,0-0.082,0.011-0.172,0.003
		c-5.949-0.298-5.85-1.888-5.85-10.735v-75.6c0-9.387-0.1-10.553,7.002-10.723c0.152,0,0.216,0.049,0.387,0.049h0.225
		c0.892,0,1.881,0,2.988,0h36c1.009,0,1.926,0,2.754,0c0.01,0,0.01,0,0.019,0c3.447,0,5.418,0,6.534,1h0.009
		c0.468,1,0.782,1.008,0.999,1.736l0.009,0.045c0.045,0.145-0.12,0.302-0.084,0.463C357.701,258.337,357.5,260.709,357.5,264.174z"
		/>
	<path fill="#CC6666" d="M313.227,342.816l-0.019,0.035l-0.045,0.082l-4.536,7.586l-0.252-0.229c-0.486,0-0.937-0.291-1.368-0.291
		h-0.099c-0.126,0-0.262,0.264-0.387,0.256c-0.091,0-0.106,0.136-0.196,0.127c-6.21-0.252-6.325-1.645-6.325-10.609v-2.16
		l0.376-0.719l4.635-7.516l8.035,13.303l0.108,0.08L313.227,342.816z"/>
	<polygon fill="#CC6666" points="321.057,302.419 313.126,315.764 321.057,329.303 329.083,315.861 	"/>
	<polygon fill="#CC6666" points="313.227,288.906 313.208,288.941 305.048,302.344 300,293.982 300,283.704 305.048,275.46 
		313.069,288.771 	"/>
	<polygon fill="#663806" points="313.227,315.861 313.208,315.898 305.048,329.307 300,320.946 300,310.66 305.048,302.416 
		313.069,315.726 	"/>
	<polygon fill="#663806" points="321.057,275.463 313.126,288.809 321.057,302.346 329.083,288.904 	"/>
	<polygon fill="#663806" points="329.084,342.816 329.065,343.065 324.449,351 317.727,351 313.208,343.065 313.127,342.823 
		313.145,342.735 321.056,329.406 329.003,342.694 	"/>
	<polygon fill="#8E1B1B" points="344.941,342.816 344.924,343.065 340.307,351 333.584,351 329.065,343.065 328.985,342.823 
		329.003,342.735 336.914,329.406 344.86,342.694 	"/>
	<polygon fill="#8E1B1B" points="336.914,275.463 328.983,288.809 336.914,302.346 344.939,288.904 	"/>
	<path fill="#CC6666" d="M351.051,350.529c-0.619,0.019-1.19,0.027-1.947,0.036l-4.236-7.524l-0.08-0.189l-0.012-0.135l-0.065-0.035
		l0.066-0.109l7.543-13.193l4.681,8.586v1.809C357,348.846,357.414,350.295,351.051,350.529z"/>
	<polygon fill="#CC6666" points="352.32,275.46 357,284.055 357,293.758 352.32,302.344 344.698,288.941 344.73,288.807 
		344.578,288.771 	"/>
	<polygon fill="#663806" points="352.32,302.416 357,311.01 357,320.713 352.32,329.307 344.698,315.898 344.73,315.762 
		344.578,315.726 	"/>
	<path fill="none" d="M308.375,350.565v0.009h-0.009c-0.432,0-0.837-0.018-1.225-0.018c-0.045,0-0.09-0.009-0.135-0.009
		C307.438,350.557,307.889,350.565,308.375,350.565z"/>
	<path fill="none" d="M357,338.666v1.107c0,9.172,0.225,10.559-6.399,10.756c6.363-0.234,6.399-1.684,6.399-10.756v-1.809V338.666z"
		/>
	<polygon fill="#AD9B8A" points="336.914,302.419 328.983,315.764 336.914,329.303 344.939,315.861 	"/>
	<polygon fill="#CC6666" points="329.084,261.951 329.065,261.987 321.056,275.389 313.208,261.987 313.127,261.852 
		313.145,262.129 318.167,254 323.963,254 329.003,262.129 	"/>
	<path fill="#663806" d="M313.227,261.951l-0.019,0.036l-8.234,13.401l-4.598-7.623L300,267.027v-2.854
		c0-3.527-0.047-5.904,0.376-7.506c0.252-0.98,0.61-1.664,1.241-2.151c1.098-0.845,2.87-1.07,5.804-1.125
		c0.153,0,0.306-0.009,0.478-0.009l5.134,8.434l0.097,0.072l0.035,0.018l0.045,0.035L313.227,261.951z"/>
	<path fill="#663806" d="M356.973,256.309c0.479,1.592,0.027,4.059,0.027,7.865v2.629l-4.68,8.586l-7.622-13.401l0.032-0.136
		l0.074-0.035l5.041-8.434c3.455,0.036,5.441,0.225,6.557,1.225l0.781,1.684L356.973,256.309z"/>
	<path fill="none" d="M301.58,254.517l-1.278,2.151C300.554,255.688,300.949,255.004,301.58,254.517z"/>
	<polygon fill="#AD9B8A" points="344.941,261.951 344.924,261.987 336.914,275.389 329.065,261.987 328.985,261.852 
		329.003,262.129 334.024,254 339.821,254 344.86,262.129 	"/>
	<path fill="none" stroke="#FFFFFF" stroke-width="3" stroke-miterlimit="10" d="M357.5,338.874c0,10.8,1.302,11.626-9.498,11.626
		h-36c-10.8,0-11.502-0.826-11.502-11.626v-75.601c0-10.799,0.702-9.773,11.502-9.773h36c10.8,0,9.498-1.025,9.498,9.773V338.874z"
		/>
	<path fill="#FFFFFF" stroke="#000000" stroke-miterlimit="10" d="M231.5,264.174v75.6c0,9.172,0.402,10.727-6.223,10.727h-0.225
		c-0.621,0-1.079,0.004-1.836,0.014c-0.657,0.01-1.359-0.014-2.115-0.014h-38.735c-0.432,0-0.837-0.004-1.225-0.004
		c-0.045,0-0.09,0.004-0.135,0.004h-0.099c-0.135,0-0.262,0.014-0.387,0.006c-0.091,0-0.082,0.011-0.172,0.003
		c-5.949-0.298-5.85-1.888-5.85-10.735v-75.6c0-9.387-0.1-10.553,7.002-10.723c0.152,0,0.216,0.049,0.387,0.049h0.225
		c0.892,0,1.881,0,2.988,0h36c1.009,0,1.926,0,2.754,0c0.01,0,0.01,0,0.019,0c3.447,0,5.418,0,6.534,1h0.009
		c0.468,1,0.782,1.008,0.999,1.736l0.009,0.045c0.045,0.145-0.12,0.302-0.084,0.463C231.701,258.337,231.5,260.709,231.5,264.174z"
		/>
	<path fill="#CC6666" d="M187.227,342.816l-0.019,0.035l-0.045,0.082l-4.536,7.586l-0.252-0.229c-0.486,0-0.937-0.291-1.368-0.291
		h-0.099c-0.126,0-0.262,0.264-0.387,0.256c-0.091,0-0.106,0.136-0.196,0.127c-6.21-0.252-6.325-1.645-6.325-10.609v-2.16
		l0.376-0.719l4.635-7.516l8.035,13.303l0.108,0.08L187.227,342.816z"/>
	<polygon fill="#CC6666" points="195.057,302.419 187.126,315.764 195.057,329.303 203.083,315.861 	"/>
	<polygon fill="#CC6666" points="187.227,288.906 187.208,288.941 179.048,302.344 174,293.982 174,283.704 179.048,275.46 
		187.069,288.771 	"/>
	<polygon fill="#663806" points="187.227,315.861 187.208,315.898 179.048,329.307 174,320.946 174,310.66 179.048,302.416 
		187.069,315.726 	"/>
	<polygon fill="#663806" points="195.057,275.463 187.126,288.809 195.057,302.346 203.083,288.904 	"/>
	<polygon fill="#663806" points="203.084,342.816 203.065,343.065 198.449,351 191.727,351 187.208,343.065 187.127,342.823 
		187.145,342.735 195.056,329.406 203.003,342.694 	"/>
	<polygon fill="#8E1B1B" points="218.941,342.816 218.924,343.065 214.307,351 207.584,351 203.065,343.065 202.985,342.823 
		203.003,342.735 210.914,329.406 218.86,342.694 	"/>
	<polygon fill="#8E1B1B" points="210.914,275.463 202.983,288.809 210.914,302.346 218.939,288.904 	"/>
	<path fill="#CC6666" d="M225.051,350.529c-0.619,0.019-1.19,0.027-1.947,0.036l-4.236-7.524l-0.08-0.189l-0.012-0.135l-0.065-0.035
		l0.066-0.109l7.543-13.193l4.681,8.586v1.809C231,348.846,231.414,350.295,225.051,350.529z"/>
	<polygon fill="#CC6666" points="226.32,275.46 231,284.055 231,293.758 226.32,302.344 218.698,288.941 218.73,288.807 
		218.578,288.771 	"/>
	<polygon fill="#663806" points="226.32,302.416 231,311.01 231,320.713 226.32,329.307 218.698,315.898 218.73,315.762 
		218.578,315.726 	"/>
	<path fill="none" d="M182.375,350.565v0.009h-0.009c-0.432,0-0.837-0.018-1.225-0.018c-0.045,0-0.09-0.009-0.135-0.009
		C181.438,350.557,181.889,350.565,182.375,350.565z"/>
	<path fill="none" d="M231,338.666v1.107c0,9.172,0.225,10.559-6.399,10.756c6.363-0.234,6.399-1.684,6.399-10.756v-1.809V338.666z"
		/>
	<polygon fill="#AD9B8A" points="210.914,302.419 202.983,315.764 210.914,329.303 218.939,315.861 	"/>
	<polygon fill="#CC6666" points="203.084,261.951 203.065,261.987 195.056,275.389 187.208,261.987 187.127,261.852 
		187.145,262.129 192.167,254 197.963,254 203.003,262.129 	"/>
	<path fill="#663806" d="M187.227,261.951l-0.019,0.036l-8.234,13.401l-4.598-7.623L174,267.027v-2.854
		c0-3.527-0.047-5.904,0.376-7.506c0.252-0.98,0.61-1.664,1.241-2.151c1.098-0.845,2.87-1.07,5.804-1.125
		c0.153,0,0.306-0.009,0.478-0.009l5.134,8.434l0.097,0.072l0.035,0.018l0.045,0.035L187.227,261.951z"/>
	<path fill="#663806" d="M230.973,256.309c0.479,1.592,0.027,4.059,0.027,7.865v2.629l-4.68,8.586l-7.622-13.401l0.032-0.136
		l0.074-0.035l5.041-8.434c3.455,0.036,5.441,0.225,6.557,1.225l0.781,1.684L230.973,256.309z"/>
	<path fill="none" d="M175.58,254.517l-1.278,2.151C174.554,255.688,174.949,255.004,175.58,254.517z"/>
	<polygon fill="#AD9B8A" points="218.941,261.951 218.924,261.987 210.914,275.389 203.065,261.987 202.985,261.852 
		203.003,262.129 208.024,254 213.821,254 218.86,262.129 	"/>
	<path fill="none" stroke="#FFFFFF" stroke-width="3" stroke-miterlimit="10" d="M231.5,338.874c0,10.8,1.302,11.626-9.498,11.626
		h-36c-10.8,0-11.502-0.826-11.502-11.626v-75.601c0-10.799,0.702-9.773,11.502-9.773h36c10.8,0,9.498-1.025,9.498,9.773V338.874z"
		/>
	<path fill="#FFFFFF" stroke="#000000" stroke-miterlimit="10" d="M168.5,264.174v75.6c0,9.172,0.402,10.727-6.223,10.727h-0.225
		c-0.621,0-1.079,0.004-1.836,0.014c-0.657,0.01-1.359-0.014-2.115-0.014h-38.735c-0.432,0-0.837-0.004-1.225-0.004
		c-0.045,0-0.09,0.004-0.135,0.004h-0.099c-0.135,0-0.262,0.014-0.387,0.006c-0.091,0-0.082,0.011-0.172,0.003
		c-5.949-0.298-5.85-1.888-5.85-10.735v-75.6c0-9.387-0.1-10.553,7.002-10.723c0.152,0,0.216,0.049,0.387,0.049h0.225
		c0.892,0,1.881,0,2.988,0h36c1.009,0,1.926,0,2.754,0c0.01,0,0.01,0,0.019,0c3.447,0,5.418,0,6.534,1h0.009
		c0.468,1,0.782,1.008,0.999,1.736l0.009,0.045c0.045,0.145-0.12,0.302-0.084,0.463C168.701,258.337,168.5,260.709,168.5,264.174z"
		/>
	<path fill="#CC6666" d="M124.227,342.816l-0.019,0.035l-0.045,0.082l-4.536,7.586l-0.252-0.229c-0.486,0-0.937-0.291-1.368-0.291
		h-0.099c-0.126,0-0.262,0.264-0.387,0.256c-0.091,0-0.106,0.136-0.196,0.127c-6.21-0.252-6.325-1.645-6.325-10.609v-2.16
		l0.376-0.719l4.635-7.516l8.035,13.303l0.108,0.08L124.227,342.816z"/>
	<polygon fill="#CC6666" points="132.057,302.419 124.126,315.764 132.057,329.303 140.083,315.861 	"/>
	<polygon fill="#CC6666" points="124.227,288.906 124.208,288.941 116.048,302.344 111,293.982 111,283.704 116.048,275.46 
		124.069,288.771 	"/>
	<polygon fill="#663806" points="124.227,315.861 124.208,315.898 116.048,329.307 111,320.946 111,310.66 116.048,302.416 
		124.069,315.726 	"/>
	<polygon fill="#663806" points="132.057,275.463 124.126,288.809 132.057,302.346 140.083,288.904 	"/>
	<polygon fill="#663806" points="140.084,342.816 140.065,343.065 135.449,351 128.727,351 124.208,343.065 124.127,342.823 
		124.145,342.735 132.056,329.406 140.003,342.694 	"/>
	<polygon fill="#8E1B1B" points="155.941,342.816 155.924,343.065 151.307,351 144.584,351 140.065,343.065 139.985,342.823 
		140.003,342.735 147.914,329.406 155.86,342.694 	"/>
	<polygon fill="#8E1B1B" points="147.914,275.463 139.983,288.809 147.914,302.346 155.939,288.904 	"/>
	<path fill="#CC6666" d="M162.051,350.529c-0.619,0.019-1.19,0.027-1.947,0.036l-4.236-7.524l-0.08-0.189l-0.012-0.135l-0.065-0.035
		l0.066-0.109l7.543-13.193l4.681,8.586v1.809C168,348.846,168.414,350.295,162.051,350.529z"/>
	<polygon fill="#CC6666" points="163.32,275.46 168,284.055 168,293.758 163.32,302.344 155.698,288.941 155.73,288.807 
		155.578,288.771 	"/>
	<polygon fill="#663806" points="163.32,302.416 168,311.01 168,320.713 163.32,329.307 155.698,315.898 155.73,315.762 
		155.578,315.726 	"/>
	<path fill="none" d="M119.375,350.565v0.009h-0.009c-0.432,0-0.837-0.018-1.225-0.018c-0.045,0-0.09-0.009-0.135-0.009
		C118.438,350.557,118.889,350.565,119.375,350.565z"/>
	<path fill="none" d="M168,338.666v1.107c0,9.172,0.225,10.559-6.399,10.756c6.363-0.234,6.399-1.684,6.399-10.756v-1.809V338.666z"
		/>
	<polygon fill="#AD9B8A" points="147.914,302.419 139.983,315.764 147.914,329.303 155.939,315.861 	"/>
	<polygon fill="#CC6666" points="140.084,261.951 140.065,261.987 132.056,275.389 124.208,261.987 124.127,261.852 
		124.145,262.129 129.167,254 134.963,254 140.003,262.129 	"/>
	<path fill="#663806" d="M124.227,261.951l-0.019,0.036l-8.234,13.401l-4.598-7.623L111,267.027v-2.854
		c0-3.527-0.047-5.904,0.376-7.506c0.252-0.98,0.61-1.664,1.241-2.151c1.098-0.845,2.87-1.07,5.804-1.125
		c0.153,0,0.306-0.009,0.478-0.009l5.134,8.434l0.097,0.072l0.035,0.018l0.045,0.035L124.227,261.951z"/>
	<path fill="#663806" d="M167.973,256.309c0.479,1.592,0.027,4.059,0.027,7.865v2.629l-4.68,8.586l-7.622-13.401l0.032-0.136
		l0.074-0.035l5.041-8.434c3.455,0.036,5.441,0.225,6.557,1.225l0.781,1.684L167.973,256.309z"/>
	<path fill="none" d="M112.58,254.517l-1.278,2.151C111.554,255.688,111.949,255.004,112.58,254.517z"/>
	<polygon fill="#AD9B8A" points="155.941,261.951 155.924,261.987 147.914,275.389 140.065,261.987 139.985,261.852 
		140.003,262.129 145.024,254 150.821,254 155.86,262.129 	"/>
	<path fill="none" stroke="#FFFFFF" stroke-width="3" stroke-miterlimit="10" d="M168.5,338.874c0,10.8,1.302,11.626-9.498,11.626
		h-36c-10.8,0-11.502-0.826-11.502-11.626v-75.601c0-10.799,0.702-9.773,11.502-9.773h36c10.8,0,9.498-1.025,9.498,9.773V338.874z"
		/>
	<path fill="#FFFFFF" stroke="#000000" stroke-miterlimit="10" d="M105.5,264.174v75.6c0,9.172-0.498,10.727-7.122,10.727h-0.226
		c-0.62,0-1.079,0.004-1.836,0.014c-0.656,0.01-1.358-0.014-2.114-0.014H55.466c-0.432,0-0.837-0.004-1.225-0.004
		c-0.045,0-0.089,0.004-0.134,0.004h-0.1c-0.135,0-0.261,0.014-0.387,0.006c-0.091,0-0.132,0.011-0.221,0.003
		c-5.949-0.298-5.9-1.888-5.9-10.735v-75.6c0-9.387-0.049-10.553,7.052-10.723c0.152,0,0.267,0.049,0.437,0.049h0.226
		c0.891,0,1.881,0,2.988,0h36c1.008,0,1.926,0,2.753,0c0.01,0,0.01,0,0.019,0c3.447,0,5.418,0,6.534,1h0.009
		c0.469,1,0.783,1.008,0.999,1.736l0.009,0.045c0.045,0.145,0.33,0.302,0.366,0.463C105.251,258.337,105.5,260.709,105.5,264.174z"
		/>
	<path fill="#CC6666" d="M60.326,342.816l-0.019,0.035l-0.045,0.082l-4.536,7.586l-0.252-0.229c-0.486,0-0.936-0.291-1.367-0.291
		h-0.1c-0.126,0-0.261,0.264-0.387,0.256c-0.091,0-0.156,0.136-0.246,0.127C47.164,350.131,47,348.738,47,339.773v-2.16l0.426-0.719
		l4.659-7.516l8.049,13.303l0.113,0.08L60.326,342.816z"/>
	<polygon fill="#CC6666" points="68.156,302.419 60.226,315.764 68.156,329.303 76.183,315.861 	"/>
	<polygon fill="#CC6666" points="60.326,288.906 60.308,288.941 52.098,302.344 47,293.982 47,283.704 52.098,275.46 
		60.144,288.771 	"/>
	<polygon fill="#663806" points="60.326,315.861 60.308,315.898 52.098,329.307 47,320.946 47,310.66 52.098,302.416 
		60.144,315.726 	"/>
	<polygon fill="#663806" points="68.156,275.463 60.226,288.809 68.156,302.346 76.183,288.904 	"/>
	<polygon fill="#663806" points="76.185,342.816 76.166,343.065 71.549,351 64.826,351 60.308,343.065 60.227,342.823 
		60.244,342.735 68.155,329.406 76.103,342.694 	"/>
	<polygon fill="#8E1B1B" points="92.042,342.816 92.024,343.065 87.407,351 80.685,351 76.166,343.065 76.085,342.823 
		76.103,342.735 84.014,329.406 91.961,342.694 	"/>
	<polygon fill="#8E1B1B" points="84.014,275.463 76.083,288.809 84.014,302.346 92.04,288.904 	"/>
	<path fill="#CC6666" d="M98.602,350.529c-0.621,0.019-1.416,0.027-2.173,0.036l-4.349-7.524l-0.136-0.189l-0.042-0.135
		l-0.079-0.035l0.061-0.109l7.988-13.193l5.128,8.586v1.809C105,348.846,104.965,350.295,98.602,350.529z"/>
	<polygon fill="#CC6666" points="99.871,275.46 105,284.055 105,293.758 99.871,302.344 92.023,288.941 91.942,288.807 
		91.961,288.771 	"/>
	<polygon fill="#663806" points="99.871,302.416 105,311.01 105,320.713 99.871,329.307 92.023,315.898 91.942,315.762 
		91.961,315.726 	"/>
	<path fill="none" d="M55.475,350.565v0.009h-0.009c-0.432,0-0.837-0.018-1.225-0.018c-0.045,0-0.089-0.009-0.134-0.009
		C54.539,350.557,54.988,350.565,55.475,350.565z"/>
	<path fill="none" d="M105,338.666v1.107c0,9.172,0.226,10.559-6.399,10.756c6.363-0.234,6.399-1.684,6.399-10.756v-1.809V338.666z"
		/>
	<polygon fill="#AD9B8A" points="84.014,302.419 76.083,315.764 84.014,329.303 92.04,315.861 	"/>
	<polygon fill="#CC6666" points="76.185,261.951 76.166,261.987 68.155,275.389 60.308,261.987 60.227,261.852 60.244,262.129 
		65.267,254 71.063,254 76.103,262.129 	"/>
	<path fill="#663806" d="M60.326,261.951l-0.019,0.036l-8.234,13.401l-4.647-7.623L47,267.027v-2.854
		c0-3.527,0.004-5.904,0.426-7.506c0.252-0.98,0.636-1.664,1.266-2.151c1.098-0.845,2.883-1.07,5.817-1.125
		c0.152,0,0.313-0.009,0.482-0.009l5.138,8.434l0.099,0.072l0.035,0.018l0.045,0.035L60.326,261.951z"/>
	<path fill="#663806" d="M104.523,256.309c0.479,1.592,0.477,4.059,0.477,7.865v2.629l-5.129,8.586l-7.848-13.401l-0.081-0.136
		l0.019-0.035l5.013-8.434c3.456,0.036,5.428,0.225,6.543,1.225l0.998,1.684L104.523,256.309z"/>
	<path fill="none" d="M48.68,254.517l-1.277,2.151C47.654,255.688,48.05,255.004,48.68,254.517z"/>
	<polygon fill="#AD9B8A" points="92.042,261.951 92.024,261.987 84.014,275.389 76.166,261.987 76.085,261.852 76.103,262.129 
		81.125,254 86.921,254 91.961,262.129 	"/>
	<path fill="none" stroke="#FFFFFF" stroke-width="3" stroke-miterlimit="10" d="M105.5,338.874c0,10.8,0.402,11.626-10.398,11.626
		h-36c-10.8,0-11.602-0.826-11.602-11.626v-75.601c0-10.799,0.802-9.773,11.602-9.773h36c10.801,0,10.398-1.025,10.398,9.773
		V338.874z"/>
</g>
<g id="Layer_23">
	<path fill="#FFFFFF" stroke="#000000" stroke-width="0.9" stroke-miterlimit="10" d="M295.236,335.024
		c-3.854,10.089-3.687,11.218-13.775,7.364l-33.631-12.846c-10.089-3.854-10.257-4.98-6.403-15.07l26.975-70.623
		c3.853-10.09,4.021-8.963,14.11-5.108l33.63,12.845c10.09,3.854,9.921,2.727,6.068,12.816L295.236,335.024z"/>
	<path d="M290.583,267.296c0,0-22.677,12.044-25.657,19.534c-1.549,3.892-0.316,8.952,2.372,11.363
		c3.773,3.383,10.877-2.026,10.877-2.026l-7.309,10.864l7.769,2.967l1.698-12.837c0,0,2.202,7.62,7.574,8.837
		c2.741,0.621,7.312-1.874,8.826-6.916C299.064,291.325,290.583,267.296,290.583,267.296z"/>
	<path d="M276.201,240.248c0,0-3.4,1.807-3.849,2.93c-0.231,0.583-0.047,1.342,0.357,1.703c0.565,0.508,1.619-0.271,1.619-0.271
		l-1.109,1.661l1.166,0.445l0.267-1.957c0,0,0.337,1.126,1.142,1.309c0.412,0.094,1.101-0.288,1.328-1.045
		C277.472,243.859,276.201,240.248,276.201,240.248z"/>
	<path d="M290.006,332.834c0,0-3.402,1.809-3.85,2.931c-0.232,0.583-0.048,1.344,0.355,1.705c0.566,0.507,1.562-0.118,1.562-0.118
		l-1.169,1.816l1.165,0.445l0.326-2.111c0,0,0.366,1.05,1.172,1.231c0.412,0.093,1.115-0.327,1.343-1.083
		C291.26,336.485,290.006,332.834,290.006,332.834z"/>
	<path fill="#FFFFFF" stroke="#000000" stroke-width="0.9" stroke-miterlimit="10" d="M363.579,199.544
		c7.637,7.637,8.734,7.945,1.098,15.582l-25.456,25.456c-7.637,7.637-8.734,7.328-16.371-0.309l-53.457-53.456
		c-7.637-7.637-6.539-7.33,1.099-14.967l25.455-25.455c7.637-7.637,6.539-7.944,14.176-0.307L363.579,199.544z"/>
	<path d="M299.852,176.141c0,0,1.737,25.618,7.357,31.396c2.921,3.002,8.043,3.943,11.343,2.475
		c4.628-2.063,2.59-10.756,2.59-10.756l6.934,11.107l5.881-5.881l-11.025-6.791c0,0,7.855,1.101,11.158-3.307
		c1.687-2.248,1.274-7.439-2.709-10.88C325.25,178.209,299.852,176.141,299.852,176.141z"/>
	<path d="M269.926,178.863c0,0,0.262,3.842,1.104,4.709c0.437,0.45,1.205,0.591,1.699,0.371c0.695-0.31,0.414-1.59,0.414-1.59
		l1.064,1.69l0.882-0.882l-1.678-1.043c0,0,1.166,0.153,1.662-0.507c0.253-0.338,0.185-1.123-0.413-1.639
		C273.741,179.179,269.926,178.863,269.926,178.863z"/>
	<path d="M359.443,203.425c0,0,0.262,3.845,1.104,4.711c0.438,0.45,1.207,0.592,1.701,0.371c0.694-0.31,0.531-1.474,0.531-1.474
		l1.18,1.81l0.882-0.883l-1.795-1.16c0,0,1.108,0.095,1.604-0.567c0.253-0.337,0.156-1.15-0.441-1.666
		C363.29,203.771,359.443,203.425,359.443,203.425z"/>
</g>
<g id="Layer_24">
	<path fill="#FFFFFF" stroke="#000000" stroke-width="4.5" stroke-miterlimit="10" d="M169.866,253.715
		c-0.252,16.199-0.252,16.199-16.454,15.947l-53.999-0.84c-16.201-0.254-16.201-0.254-15.949-16.453l1.77-113.403
		c0.252-16.2,0.252-16.2,16.451-15.948l54.004,0.842c16.198,0.253,16.198,0.253,15.945,16.452L169.866,253.715z"/>
	<path fill="#FFFFFF" stroke="#000000" stroke-width="4.5" stroke-miterlimit="10" d="M247.531,222.013
		c8.203,13.972,8.203,13.972-5.769,22.177l-46.569,27.348c-13.973,8.204-13.973,8.204-22.179-5.768l-57.43-97.803
		c-8.204-13.969-8.204-13.969,5.767-22.174l46.572-27.349c13.971-8.204,13.971-8.204,22.175,5.769L247.531,222.013z"/>
	<path fill="#FFFFFF" stroke="#000000" stroke-width="4.5" stroke-miterlimit="10" d="M327.907,249.087
		c0.941,16.175,0.941,16.175-15.233,17.117l-53.916,3.146c-16.173,0.942-16.173,0.942-17.118-15.232l-6.6-113.225
		c-0.945-16.174-0.945-16.174,15.229-17.117l53.92-3.144c16.173-0.944,16.173-0.944,17.115,15.231L327.907,249.087z"/>
	<path fill="#FFFFFF" stroke="#000000" stroke-width="4.5" stroke-miterlimit="10" d="M263.94,250.278
		c-2.196,16.052-2.196,16.052-18.251,13.858l-53.508-7.317c-16.052-2.195-16.052-2.195-13.858-18.249l15.367-112.371
		c2.196-16.052,2.196-16.052,18.248-13.857l53.511,7.317c16.053,2.195,16.053,2.195,13.856,18.249L263.94,250.278z"/>
	<path fill="#FFFFFF" d="M302.375,167.375c-6.762-9.052-12.435-20.422-27.685-23.639c-14.052-2.964-108.896-8.611-123.028-4.289
		c-8.432,2.57-14.988,2.736-27.537,15.678c-3.446,3.554-7.367,19.245-14.75,27.25c-7.292,7.907-11.37,6.797-11.433,9.057
		c-0.412,15.115-3.663,63.875-3.663,63.875l73.602-0.298l18.623-3.507l82.75-0.335l45.751-2.468c0,0,6.564-47.631-0.655-60.238
		C311.064,182.727,306.268,172.579,302.375,167.375z"/>
	<text transform="matrix(1 0 0 1 120.6123 194.6333)" font-family="'Century'" font-size="58">CARD</text>
	<text transform="matrix(1 0 0 1 97.6123 244.1387)" font-family="'Century'" font-size="57">M</text>
	<text transform="matrix(1 0 0 1 151.4121 244.1387)" font-family="'Century'" font-size="57">A</text>
	<text transform="matrix(1 0 0 1 189.4297 244.1387)" font-family="'Century'" font-size="57">T</text>
	<text transform="matrix(1 0 0 1 227.4492 244.1387)" font-family="'Century'" font-size="57">C</text>
	<text transform="matrix(1 0 0 1 268.6123 244.1387)" font-family="'Century'" font-size="57">H</text>
</g>
</svg>
