<?xml version="1.0" encoding="utf-8"?>
<!-- Generator: Adobe Illustrator 16.0.0, SVG Export Plug-In . SVG Version: 6.00 Build 0)  -->
<!DOCTYPE svg PUBLIC "-//W3C//DTD SVG 1.1 Tiny//EN" "http://www.w3.org/Graphics/SVG/1.1/DTD/svg11-tiny.dtd">
<svg version="1.1" baseProfile="tiny" xmlns="http://www.w3.org/2000/svg" xmlns:xlink="http://www.w3.org/1999/xlink" x="0px"
	 y="0px" width="400px" height="400px" viewBox="0 0 400 400" xml:space="preserve">
<g id="Layer_1">
</g>
<g id="Layer_5">
</g>
<g id="Layer_4">
</g>
<g id="Layer_6">
</g>
<g id="Layer_3">
</g>
<g id="Layer_2">
</g>
<g id="Layer_7">
</g>
<g id="Layer_12">
</g>
<g id="Layer_11">
</g>
<g id="Layer_10">
</g>
<g id="Layer_13">
</g>
<g id="Layer_8" display="none">
</g>
<g id="Layer_9" display="none">
</g>
<g id="Layer_15">
</g>
<g id="Layer_14">
</g>
<g id="Layer_16">
</g>
<g id="Layer_17">
</g>
<g id="Layer_18">
</g>
<g id="Layer_19">
	
		<rect x="281.221" y="33.544" transform="matrix(-0.205 -0.9788 0.9788 -0.205 307.7609 332.2765)" fill="#FFFFFF" stroke="#000000" stroke-width="0.8947" stroke-miterlimit="10" width="15.211" height="15.21"/>
	
		<rect x="46.142" y="98.329" transform="matrix(-0.205 -0.9788 0.9788 -0.205 -38.9189 180.2567)" fill="#FFFFFF" stroke="#000000" stroke-width="0.8947" stroke-miterlimit="10" width="15.211" height="15.21"/>
	
		<rect x="61.03" y="95.211" transform="matrix(-0.205 -0.9788 0.9788 -0.205 -17.9271 191.0706)" fill="#FFFFFF" stroke="#000000" stroke-width="0.8947" stroke-miterlimit="10" width="15.21" height="15.211"/>
	
		<rect x="75.917" y="92.092" transform="matrix(-0.205 -0.9788 0.9788 -0.205 3.0645 201.8837)" fill="#FFFFFF" stroke="#000000" stroke-width="0.8947" stroke-miterlimit="10" width="15.21" height="15.21"/>
	
		<rect x="90.804" y="88.973" transform="matrix(-0.205 -0.9788 0.9788 -0.205 24.0555 212.6959)" fill="#FFFFFF" stroke="#000000" stroke-width="0.8947" stroke-miterlimit="10" width="15.211" height="15.211"/>
	
		<rect x="105.691" y="85.855" transform="matrix(-0.205 -0.9788 0.9788 -0.205 45.0476 223.5097)" fill="#FFFFFF" stroke="#000000" stroke-width="0.8947" stroke-miterlimit="10" width="15.21" height="15.21"/>
	
		<rect x="120.579" y="82.735" transform="matrix(-0.205 -0.9788 0.9788 -0.205 66.0391 234.3225)" fill="#FFFFFF" stroke="#000000" stroke-width="0.8947" stroke-miterlimit="10" width="15.211" height="15.212"/>
	
		<rect x="135.467" y="79.618" transform="matrix(-0.205 -0.9788 0.9788 -0.205 87.0319 245.1367)" fill="#FFFFFF" stroke="#000000" stroke-width="0.8947" stroke-miterlimit="10" width="15.21" height="15.21"/>
	
		<rect x="150.354" y="76.498" transform="matrix(-0.205 -0.9788 0.9788 -0.205 108.0226 255.9492)" fill="#FFFFFF" stroke="#000000" stroke-width="0.8947" stroke-miterlimit="10" width="15.211" height="15.211"/>
	
		<rect x="165.241" y="73.38" transform="matrix(-0.2051 -0.9787 0.9787 -0.2051 129.0267 266.7656)" fill="#FFFFFF" stroke="#000000" stroke-width="0.8947" stroke-miterlimit="10" width="15.21" height="15.211"/>
	
		<rect x="180.129" y="70.262" transform="matrix(-0.205 -0.9788 0.9788 -0.205 150.0072 277.5763)" fill="#FFFFFF" stroke="#000000" stroke-width="0.8947" stroke-miterlimit="10" width="15.21" height="15.21"/>
	
		<rect x="195.015" y="67.142" transform="matrix(-0.2051 -0.9787 0.9787 -0.2051 171.0238 288.3923)" fill="#FFFFFF" stroke="#000000" stroke-width="0.8947" stroke-miterlimit="10" width="15.211" height="15.212"/>
	
		<rect x="209.904" y="64.024" transform="matrix(-0.2051 -0.9787 0.9787 -0.2051 192.0052 299.2045)" fill="#FFFFFF" stroke="#000000" stroke-width="0.8947" stroke-miterlimit="10" width="15.21" height="15.21"/>
	
		<rect x="224.791" y="60.906" transform="matrix(-0.205 -0.9788 0.9788 -0.205 212.9811 310.0155)" fill="#FFFFFF" stroke="#000000" stroke-width="0.8947" stroke-miterlimit="10" width="15.211" height="15.21"/>
	
		<rect x="254.565" y="54.668" transform="matrix(-0.2051 -0.9787 0.9787 -0.2051 254.9825 331.6424)" fill="#FFFFFF" stroke="#000000" stroke-width="0.8947" stroke-miterlimit="10" width="15.21" height="15.211"/>
	
		<rect x="269.453" y="51.55" transform="matrix(-0.205 -0.9788 0.9788 -0.205 275.9579 342.4552)" fill="#FFFFFF" stroke="#000000" stroke-width="0.8947" stroke-miterlimit="10" width="15.21" height="15.21"/>
	
		<rect x="284.34" y="48.431" transform="matrix(-0.2051 -0.9787 0.9787 -0.2051 296.9677 353.2674)" fill="#FFFFFF" stroke="#000000" stroke-width="0.8947" stroke-miterlimit="10" width="15.21" height="15.211"/>
	
		<rect x="49.26" y="113.216" transform="matrix(-0.2051 -0.9787 0.9787 -0.2051 -49.7272 201.2554)" fill="#FFFFFF" stroke="#000000" stroke-width="0.8947" stroke-miterlimit="10" width="15.21" height="15.211"/>
	
		<rect x="79.035" y="106.979" transform="matrix(-0.2051 -0.9787 0.9787 -0.2051 -7.7425 222.881)" fill="#FFFFFF" stroke="#000000" stroke-width="0.8947" stroke-miterlimit="10" width="15.21" height="15.211"/>
	
		<rect x="227.909" y="75.793" transform="matrix(-0.2051 -0.9787 0.9787 -0.2051 202.1844 331.0091)" fill="#FFFFFF" stroke="#000000" stroke-width="0.8947" stroke-miterlimit="10" width="15.21" height="15.211"/>
	
		<rect x="287.459" y="63.318" transform="matrix(-0.2051 -0.9787 0.9787 -0.2051 286.1553 374.2606)" fill="#FFFFFF" stroke="#000000" stroke-width="0.8947" stroke-miterlimit="10" width="15.21" height="15.211"/>
	
		<rect x="52.379" y="128.104" transform="matrix(-0.205 -0.9788 0.9788 -0.205 -60.5455 222.2405)" fill="#FFFFFF" stroke="#000000" stroke-width="0.8947" stroke-miterlimit="10" width="15.21" height="15.211"/>
	
		<rect x="82.154" y="121.867" transform="matrix(-0.2051 -0.9787 0.9787 -0.2051 -18.5554 243.8732)" fill="#FFFFFF" stroke="#000000" stroke-width="0.8947" stroke-miterlimit="10" width="15.211" height="15.211"/>
	
		<rect x="111.929" y="115.63" transform="matrix(-0.205 -0.9788 0.9788 -0.205 23.4216 265.4935)" fill="#FFFFFF" stroke="#000000" stroke-width="0.8947" stroke-miterlimit="10" width="15.211" height="15.21"/>
	
		<rect x="126.816" y="112.511" transform="matrix(-0.205 -0.9788 0.9788 -0.205 44.4135 276.3066)" fill="#FFFFFF" stroke="#000000" stroke-width="0.8947" stroke-miterlimit="10" width="15.21" height="15.21"/>
	
		<rect x="141.703" y="109.392" transform="matrix(-0.205 -0.9788 0.9788 -0.205 65.405 287.1197)" fill="#FFFFFF" stroke="#000000" stroke-width="0.8947" stroke-miterlimit="10" width="15.21" height="15.211"/>
	
		<rect x="156.591" y="106.273" transform="matrix(-0.2051 -0.9787 0.9787 -0.2051 86.4082 297.9376)" fill="#FFFFFF" stroke="#000000" stroke-width="0.8947" stroke-miterlimit="10" width="15.21" height="15.211"/>
	
		<rect x="171.478" y="103.155" transform="matrix(-0.2051 -0.9787 0.9787 -0.2051 107.4012 308.7507)" fill="#FFFFFF" stroke="#000000" stroke-width="0.8947" stroke-miterlimit="10" width="15.21" height="15.211"/>
	
		<rect x="201.254" y="96.918" transform="matrix(-0.205 -0.9788 0.9788 -0.205 149.373 330.3732)" fill="#FFFFFF" stroke="#000000" stroke-width="0.8947" stroke-miterlimit="10" width="15.21" height="15.21"/>
	
		<rect x="231.028" y="90.68" transform="matrix(-0.205 -0.9788 0.9788 -0.205 191.3562 351.9993)" fill="#FFFFFF" stroke="#000000" stroke-width="0.8947" stroke-miterlimit="10" width="15.21" height="15.21"/>
	
		<rect x="245.915" y="87.561" transform="matrix(-0.2051 -0.9787 0.9787 -0.2051 212.364 362.8145)" fill="#FFFFFF" stroke="#000000" stroke-width="0.8947" stroke-miterlimit="10" width="15.21" height="15.211"/>
	
		<rect x="260.802" y="84.443" transform="matrix(-0.2051 -0.9787 0.9787 -0.2051 233.357 373.6276)" fill="#FFFFFF" stroke="#000000" stroke-width="0.8947" stroke-miterlimit="10" width="15.21" height="15.211"/>
	
		<rect x="290.578" y="78.206" transform="matrix(-0.205 -0.9788 0.9788 -0.205 275.3218 395.2519)" fill="#FFFFFF" stroke="#000000" stroke-width="0.8947" stroke-miterlimit="10" width="15.211" height="15.21"/>
	
		<rect x="55.498" y="142.991" transform="matrix(-0.2051 -0.9787 0.9787 -0.2051 -71.3533 243.2397)" fill="#FFFFFF" stroke="#000000" stroke-width="0.8947" stroke-miterlimit="10" width="15.211" height="15.211"/>
	
		<rect x="115.048" y="130.517" transform="matrix(-0.205 -0.9788 0.9788 -0.205 12.6086 286.4855)" fill="#FFFFFF" stroke="#000000" stroke-width="0.8947" stroke-miterlimit="10" width="15.21" height="15.21"/>
	
		<rect x="174.598" y="118.043" transform="matrix(-0.205 -0.9788 0.9788 -0.205 96.576 329.7385)" fill="#FFFFFF" stroke="#000000" stroke-width="0.8947" stroke-miterlimit="10" width="15.21" height="15.21"/>
	
		<rect x="204.372" y="111.805" transform="matrix(-0.205 -0.9788 0.9788 -0.205 138.5579 351.3638)" fill="#FFFFFF" stroke="#000000" stroke-width="0.8947" stroke-miterlimit="10" width="15.211" height="15.21"/>
	
		<rect x="293.696" y="93.093" transform="matrix(-0.2051 -0.9787 0.9787 -0.2051 264.5296 416.2461)" fill="#FFFFFF" stroke="#000000" stroke-width="0.8947" stroke-miterlimit="10" width="15.21" height="15.211"/>
	
		<rect x="58.617" y="157.878" transform="matrix(-0.205 -0.9788 0.9788 -0.205 -82.1718 264.2239)" fill="#FFFFFF" stroke="#000000" stroke-width="0.8947" stroke-miterlimit="10" width="15.21" height="15.211"/>
	
		<rect x="73.504" y="154.76" transform="matrix(-0.205 -0.9788 0.9788 -0.205 -61.1804 275.0365)" fill="#FFFFFF" stroke="#000000" stroke-width="0.8947" stroke-miterlimit="10" width="15.211" height="15.211"/>
	
		<rect x="88.391" y="151.641" transform="matrix(-0.2051 -0.9787 0.9787 -0.2051 -40.1804 285.8594)" fill="#FFFFFF" stroke="#000000" stroke-width="0.8947" stroke-miterlimit="10" width="15.21" height="15.211"/>
	
		<rect x="118.166" y="145.404" transform="matrix(-0.2051 -0.9787 0.9787 -0.2051 1.8045 307.4846)" fill="#FFFFFF" stroke="#000000" stroke-width="0.8947" stroke-miterlimit="10" width="15.21" height="15.211"/>
	
		<rect x="147.94" y="139.167" transform="matrix(-0.2051 -0.9787 0.9787 -0.2051 43.8004 329.1164)" fill="#FFFFFF" stroke="#000000" stroke-width="0.8947" stroke-miterlimit="10" width="15.211" height="15.211"/>
	
		<rect x="162.829" y="136.049" transform="matrix(-0.205 -0.9788 0.9788 -0.205 64.7712 339.9174)" fill="#FFFFFF" stroke="#000000" stroke-width="0.8947" stroke-miterlimit="10" width="15.21" height="15.21"/>
	
		<rect x="177.715" y="132.929" transform="matrix(-0.2051 -0.9787 0.9787 -0.2051 85.7743 350.7352)" fill="#FFFFFF" stroke="#000000" stroke-width="0.8947" stroke-miterlimit="10" width="15.211" height="15.211"/>
	
		<rect x="207.49" y="126.692" transform="matrix(-0.2051 -0.9787 0.9787 -0.2051 127.7605 372.3612)" fill="#FFFFFF" stroke="#000000" stroke-width="0.8947" stroke-miterlimit="10" width="15.21" height="15.211"/>
	
		<rect x="222.378" y="123.574" transform="matrix(-0.205 -0.9788 0.9788 -0.205 148.7377 383.1692)" fill="#FFFFFF" stroke="#000000" stroke-width="0.8947" stroke-miterlimit="10" width="15.21" height="15.21"/>
	
		<rect x="237.265" y="120.454" transform="matrix(-0.2051 -0.9787 0.9787 -0.2051 169.746 393.987)" fill="#FFFFFF" stroke="#000000" stroke-width="0.8947" stroke-miterlimit="10" width="15.21" height="15.212"/>
	
		<rect x="252.153" y="117.337" transform="matrix(-0.205 -0.9788 0.9788 -0.205 190.7202 404.7958)" fill="#FFFFFF" stroke="#000000" stroke-width="0.8947" stroke-miterlimit="10" width="15.211" height="15.21"/>
	
		<rect x="267.04" y="114.218" transform="matrix(-0.2051 -0.9787 0.9787 -0.2051 211.7312 415.613)" fill="#FFFFFF" stroke="#000000" stroke-width="0.8947" stroke-miterlimit="10" width="15.21" height="15.211"/>
	
		<rect x="296.815" y="107.98" transform="matrix(-0.205 -0.9788 0.9788 -0.205 253.6964 437.2356)" fill="#FFFFFF" stroke="#000000" stroke-width="0.8947" stroke-miterlimit="10" width="15.21" height="15.211"/>
	
		<rect x="61.735" y="172.766" transform="matrix(-0.2051 -0.9787 0.9787 -0.2051 -92.9794 285.2252)" fill="#FFFFFF" stroke="#000000" stroke-width="0.8947" stroke-miterlimit="10" width="15.211" height="15.211"/>
	
		<rect x="91.51" y="166.528" transform="matrix(-0.205 -0.9788 0.9788 -0.205 -51.002 306.8411)" fill="#FFFFFF" stroke="#000000" stroke-width="0.8947" stroke-miterlimit="10" width="15.211" height="15.211"/>
	
		<rect x="121.284" y="160.291" transform="matrix(-0.2051 -0.9787 0.9787 -0.2051 -9.0092 328.4762)" fill="#FFFFFF" stroke="#000000" stroke-width="0.8947" stroke-miterlimit="10" width="15.211" height="15.212"/>
	
		<rect x="151.06" y="154.054" transform="matrix(-0.205 -0.9788 0.9788 -0.205 32.966 350.0954)" fill="#FFFFFF" stroke="#000000" stroke-width="0.8947" stroke-miterlimit="10" width="15.21" height="15.211"/>
	
		<rect x="210.609" y="141.579" transform="matrix(-0.2051 -0.9787 0.9787 -0.2051 116.9466 393.3537)" fill="#FFFFFF" stroke="#000000" stroke-width="0.8947" stroke-miterlimit="10" width="15.211" height="15.211"/>
	
		<rect x="299.933" y="122.867" transform="matrix(-0.2051 -0.9787 0.9787 -0.2051 242.9019 458.2308)" fill="#FFFFFF" stroke="#000000" stroke-width="0.8947" stroke-miterlimit="10" width="15.211" height="15.211"/>
	
		<rect x="64.854" y="187.654" transform="matrix(-0.205 -0.9788 0.9788 -0.205 -103.7985 306.207)" fill="#FFFFFF" stroke="#000000" stroke-width="0.8947" stroke-miterlimit="10" width="15.211" height="15.21"/>
	
		<rect x="94.628" y="181.416" transform="matrix(-0.2051 -0.9787 0.9787 -0.2051 -61.8068 327.8434)" fill="#FFFFFF" stroke="#000000" stroke-width="0.8947" stroke-miterlimit="10" width="15.211" height="15.211"/>
	
		<rect x="109.516" y="178.298" transform="matrix(-0.2051 -0.9787 0.9787 -0.2051 -40.8041 338.6674)" fill="#FFFFFF" stroke="#000000" stroke-width="0.8947" stroke-miterlimit="10" width="15.211" height="15.211"/>
	
		<rect x="124.404" y="175.179" transform="matrix(-0.205 -0.9788 0.9788 -0.205 -19.8314 349.4602)" fill="#FFFFFF" stroke="#000000" stroke-width="0.8947" stroke-miterlimit="10" width="15.211" height="15.21"/>
	
		<rect x="153.741" y="169.481" transform="matrix(-0.2051 -0.9787 0.9787 -0.2051 21.5486 370.7789)" fill="#00FF3C" stroke="#000200" stroke-width="0.8947" stroke-miterlimit="10" width="15.21" height="14.316"/>
	
		<rect x="183.953" y="162.705" transform="matrix(-0.205 -0.9788 0.9788 -0.205 64.1359 392.7133)" fill="#FFFFFF" stroke="#000000" stroke-width="0.8947" stroke-miterlimit="10" width="15.21" height="15.21"/>
	
		<rect x="213.728" y="156.467" transform="matrix(-0.205 -0.9788 0.9788 -0.205 106.1185 414.3396)" fill="#FFFFFF" stroke="#000000" stroke-width="0.8947" stroke-miterlimit="10" width="15.211" height="15.21"/>
	
		<rect x="228.616" y="153.348" transform="matrix(-0.205 -0.9788 0.9788 -0.205 127.1115 425.1537)" fill="#FFFFFF" stroke="#000000" stroke-width="0.8947" stroke-miterlimit="10" width="15.21" height="15.211"/>
	
		<rect x="243.503" y="150.23" transform="matrix(-0.205 -0.9788 0.9788 -0.205 148.1017 435.9655)" fill="#FFFFFF" stroke="#000000" stroke-width="0.8947" stroke-miterlimit="10" width="15.211" height="15.21"/>
	
		<rect x="258.389" y="147.111" transform="matrix(-0.2051 -0.9787 0.9787 -0.2051 169.1127 446.7851)" fill="#FFFFFF" stroke="#000000" stroke-width="0.8947" stroke-miterlimit="10" width="15.21" height="15.211"/>
	
		<rect x="273.277" y="143.992" transform="matrix(-0.2051 -0.9787 0.9787 -0.2051 190.1057 457.5982)" fill="#FFFFFF" stroke="#000000" stroke-width="0.8947" stroke-miterlimit="10" width="15.21" height="15.211"/>
	
		<rect x="303.053" y="137.755" transform="matrix(-0.205 -0.9788 0.9788 -0.205 232.0707 479.2195)" fill="#FFFFFF" stroke="#000000" stroke-width="0.8947" stroke-miterlimit="10" width="15.21" height="15.21"/>
	
		<rect x="67.973" y="202.541" transform="matrix(-0.205 -0.9788 0.9788 -0.205 -114.6111 327.2011)" fill="#FFFFFF" stroke="#000000" stroke-width="0.8947" stroke-miterlimit="10" width="15.21" height="15.21"/>
	
		<rect x="157.296" y="183.829" transform="matrix(-0.205 -0.9788 0.9788 -0.205 11.3378 392.0774)" fill="#FFFFFF" stroke="#000000" stroke-width="0.8947" stroke-miterlimit="10" width="15.211" height="15.21"/>
	
		<rect x="187.072" y="177.592" transform="matrix(-0.2051 -0.9787 0.9787 -0.2051 53.337 413.7141)" fill="#FFFFFF" stroke="#000000" stroke-width="0.8947" stroke-miterlimit="10" width="15.21" height="15.21"/>
	
		<rect x="276.396" y="158.879" transform="matrix(-0.2051 -0.9787 0.9787 -0.2051 179.2928 478.5909)" fill="#FFFFFF" stroke="#000000" stroke-width="0.8947" stroke-miterlimit="10" width="15.21" height="15.212"/>
	
		<rect x="306.171" y="152.642" transform="matrix(-0.2051 -0.9787 0.9787 -0.2051 221.2783 500.2167)" fill="#FFFFFF" stroke="#000000" stroke-width="0.8947" stroke-miterlimit="10" width="15.21" height="15.211"/>
	
		<rect x="71.09" y="217.427" transform="matrix(-0.2051 -0.9787 0.9787 -0.2051 -125.4103 348.2146)" fill="#FFFFFF" stroke="#000000" stroke-width="0.8947" stroke-miterlimit="10" width="15.211" height="15.212"/>
	
		<rect x="100.866" y="211.191" transform="matrix(-0.2051 -0.9787 0.9787 -0.2051 -83.4307 369.8312)" fill="#FFFFFF" stroke="#000000" stroke-width="0.8947" stroke-miterlimit="10" width="15.21" height="15.211"/>
	
		<rect x="115.753" y="208.072" transform="matrix(-0.205 -0.9788 0.9788 -0.205 -62.4518 380.6272)" fill="#FFFFFF" stroke="#000000" stroke-width="0.8947" stroke-miterlimit="10" width="15.212" height="15.21"/>
	
		<rect x="130.641" y="204.954" transform="matrix(-0.205 -0.9788 0.9788 -0.205 -41.4586 391.4433)" fill="#FFFFFF" stroke="#000000" stroke-width="0.8947" stroke-miterlimit="10" width="15.211" height="15.211"/>
	
		<rect x="145.528" y="201.835" transform="matrix(-0.205 -0.9788 0.9788 -0.205 -20.4646 402.2586)" fill="#FFFFFF" stroke="#000000" stroke-width="0.8947" stroke-miterlimit="10" width="15.21" height="15.21"/>
	
		<rect x="160.415" y="198.716" transform="matrix(-0.2051 -0.9787 0.9787 -0.2051 0.5372 413.0789)" fill="#FFFFFF" stroke="#000000" stroke-width="0.8947" stroke-miterlimit="10" width="15.211" height="15.211"/>
	
		<rect x="190.19" y="192.479" transform="matrix(-0.2051 -0.9787 0.9787 -0.2051 42.5226 434.7058)" fill="#FFFFFF" stroke="#000000" stroke-width="0.8947" stroke-miterlimit="10" width="15.211" height="15.211"/>
	
		<rect x="205.078" y="189.361" transform="matrix(-0.205 -0.9788 0.9788 -0.205 63.5032 445.5115)" fill="#FFFFFF" stroke="#000000" stroke-width="0.8947" stroke-miterlimit="10" width="15.21" height="15.21"/>
	
		<rect x="219.965" y="186.241" transform="matrix(-0.205 -0.9788 0.9788 -0.205 84.4918 456.3221)" fill="#FFFFFF" stroke="#000000" stroke-width="0.8947" stroke-miterlimit="10" width="15.211" height="15.211"/>
	
		<rect x="234.852" y="183.123" transform="matrix(-0.205 -0.9788 0.9788 -0.205 105.4812 467.1345)" fill="#FFFFFF" stroke="#000000" stroke-width="0.8947" stroke-miterlimit="10" width="15.211" height="15.21"/>
	
		<rect x="249.739" y="180.004" transform="matrix(-0.2051 -0.9787 0.9787 -0.2051 126.4925 477.957)" fill="#FFFFFF" stroke="#000000" stroke-width="0.8947" stroke-miterlimit="10" width="15.211" height="15.212"/>
	
		<rect x="279.515" y="173.767" transform="matrix(-0.205 -0.9788 0.9788 -0.205 168.4589 499.5753)" fill="#FFFFFF" stroke="#000000" stroke-width="0.8947" stroke-miterlimit="10" width="15.211" height="15.211"/>
	
		<rect x="309.289" y="167.529" transform="matrix(-0.205 -0.9788 0.9788 -0.205 210.4418 521.2014)" fill="#FFFFFF" stroke="#000000" stroke-width="0.8947" stroke-miterlimit="10" width="15.211" height="15.211"/>
	
		<rect x="74.211" y="232.316" transform="matrix(-0.205 -0.9788 0.9788 -0.205 -136.2359 369.1853)" fill="#FFFFFF" stroke="#000000" stroke-width="0.8947" stroke-miterlimit="10" width="15.21" height="15.21"/>
	
		<rect x="103.984" y="226.078" transform="matrix(-0.205 -0.9788 0.9788 -0.205 -94.2552 390.8081)" fill="#FFFFFF" stroke="#000000" stroke-width="0.8947" stroke-miterlimit="10" width="15.211" height="15.211"/>
	
		<rect x="193.309" y="207.367" transform="matrix(-0.205 -0.9788 0.9788 -0.205 31.6953 455.688)" fill="#FFFFFF" stroke="#000000" stroke-width="0.8947" stroke-miterlimit="10" width="15.211" height="15.21"/>
	
		<rect x="252.859" y="194.892" transform="matrix(-0.205 -0.9788 0.9788 -0.205 115.6624 498.9412)" fill="#FFFFFF" stroke="#000000" stroke-width="0.8947" stroke-miterlimit="10" width="15.211" height="15.21"/>
	
		<rect x="282.634" y="188.655" transform="matrix(-0.205 -0.9788 0.9788 -0.205 157.6496 520.5691)" fill="#FFFFFF" stroke="#000000" stroke-width="0.8947" stroke-miterlimit="10" width="15.21" height="15.21"/>
	
		<rect x="312.408" y="182.417" transform="matrix(-0.2051 -0.9787 0.9787 -0.2051 199.6504 542.201)" fill="#FFFFFF" stroke="#000000" stroke-width="0.8947" stroke-miterlimit="10" width="15.211" height="15.211"/>
	
		<rect x="77.328" y="247.203" transform="matrix(-0.205 -0.9788 0.9788 -0.205 -147.053 390.1704)" fill="#FFFFFF" stroke="#000000" stroke-width="0.8947" stroke-miterlimit="10" width="15.212" height="15.21"/>
	
		<rect x="107.104" y="240.966" transform="matrix(-0.205 -0.9788 0.9788 -0.205 -105.0666 411.8031)" fill="#FFFFFF" stroke="#000000" stroke-width="0.8947" stroke-miterlimit="10" width="15.21" height="15.21"/>
	
		<rect x="121.99" y="237.847" transform="matrix(-0.205 -0.9788 0.9788 -0.205 -84.0769 422.6127)" fill="#FFFFFF" stroke="#000000" stroke-width="0.8947" stroke-miterlimit="10" width="15.211" height="15.211"/>
	
		<rect x="136.878" y="234.729" transform="matrix(-0.205 -0.9788 0.9788 -0.205 -63.0853 433.4268)" fill="#FFFFFF" stroke="#000000" stroke-width="0.8947" stroke-miterlimit="10" width="15.211" height="15.211"/>
	
		<rect x="151.766" y="231.61" transform="matrix(-0.205 -0.9788 0.9788 -0.205 -42.0932 444.2404)" fill="#FFFFFF" stroke="#000000" stroke-width="0.8947" stroke-miterlimit="10" width="15.211" height="15.211"/>
	
		<rect x="166.653" y="228.492" transform="matrix(-0.205 -0.9788 0.9788 -0.205 -21.0988 455.056)" fill="#FFFFFF" stroke="#000000" stroke-width="0.8947" stroke-miterlimit="10" width="15.21" height="15.21"/>
	
		<rect x="196.428" y="222.254" transform="matrix(-0.205 -0.9788 0.9788 -0.205 20.8845 476.682)" fill="#FFFFFF" stroke="#000000" stroke-width="0.8947" stroke-miterlimit="10" width="15.21" height="15.21"/>
	
		<rect x="211.315" y="219.135" transform="matrix(-0.205 -0.9788 0.9788 -0.205 41.8731 487.4921)" fill="#FFFFFF" stroke="#000000" stroke-width="0.8947" stroke-miterlimit="10" width="15.211" height="15.211"/>
	
		<rect x="226.202" y="216.016" transform="matrix(-0.2051 -0.9787 0.9787 -0.2051 62.8819 498.3158)" fill="#FFFFFF" stroke="#000000" stroke-width="0.8947" stroke-miterlimit="10" width="15.211" height="15.211"/>
	
		<rect x="255.978" y="209.779" transform="matrix(-0.2051 -0.9787 0.9787 -0.2051 104.8712 519.9448)" fill="#FFFFFF" stroke="#000000" stroke-width="0.8947" stroke-miterlimit="10" width="15.21" height="15.211"/>
	
		<rect x="285.751" y="203.542" transform="matrix(-0.205 -0.9788 0.9788 -0.205 146.8273 541.5565)" fill="#FFFFFF" stroke="#000000" stroke-width="0.8947" stroke-miterlimit="10" width="15.212" height="15.21"/>
	
		<rect x="300.639" y="200.423" transform="matrix(-0.205 -0.9788 0.9788 -0.205 167.8272 552.3739)" fill="#FFFFFF" stroke="#000000" stroke-width="0.8947" stroke-miterlimit="10" width="15.21" height="15.211"/>
	
		<rect x="315.527" y="197.304" transform="matrix(-0.205 -0.9788 0.9788 -0.205 188.8199 563.1868)" fill="#FFFFFF" stroke="#000000" stroke-width="0.8947" stroke-miterlimit="10" width="15.21" height="15.211"/>
	
		<rect x="80.447" y="262.091" transform="matrix(-0.2051 -0.9787 0.9787 -0.2051 -157.8551 411.1843)" fill="#FFFFFF" stroke="#000000" stroke-width="0.8947" stroke-miterlimit="10" width="15.21" height="15.211"/>
	
		<rect x="169.771" y="243.378" transform="matrix(-0.2051 -0.9787 0.9787 -0.2051 -31.9013 476.0576)" fill="#FFFFFF" stroke="#000000" stroke-width="0.8947" stroke-miterlimit="10" width="15.211" height="15.211"/>
	
		<rect x="199.545" y="237.141" transform="matrix(-0.2051 -0.9787 0.9787 -0.2051 10.0839 497.6823)" fill="#FFFFFF" stroke="#000000" stroke-width="0.8947" stroke-miterlimit="10" width="15.211" height="15.211"/>
	
		<rect x="259.096" y="224.666" transform="matrix(-0.205 -0.9788 0.9788 -0.205 94.0356 540.9237)" fill="#FFFFFF" stroke="#000000" stroke-width="0.8947" stroke-miterlimit="10" width="15.211" height="15.211"/>
	
		<rect x="318.645" y="212.192" transform="matrix(-0.2051 -0.9787 0.9787 -0.2051 178.0245 584.1863)" fill="#FFFFFF" stroke="#000000" stroke-width="0.8947" stroke-miterlimit="10" width="15.211" height="15.211"/>
	
		<rect x="83.566" y="276.978" transform="matrix(-0.205 -0.9788 0.9788 -0.205 -168.6785 432.1565)" fill="#FFFFFF" stroke="#000000" stroke-width="0.8947" stroke-miterlimit="10" width="15.211" height="15.211"/>
	
		<rect x="98.453" y="273.859" transform="matrix(-0.205 -0.9788 0.9788 -0.205 -147.687 442.9695)" fill="#FFFFFF" stroke="#000000" stroke-width="0.8947" stroke-miterlimit="10" width="15.211" height="15.21"/>
	
		<rect x="113.341" y="270.74" transform="matrix(-0.205 -0.9788 0.9788 -0.205 -126.6926 453.7864)" fill="#FFFFFF" stroke="#000000" stroke-width="0.8947" stroke-miterlimit="10" width="15.21" height="15.212"/>
	
		<rect x="143.115" y="264.503" transform="matrix(-0.205 -0.9788 0.9788 -0.205 -84.7114 475.4097)" fill="#FFFFFF" stroke="#000000" stroke-width="0.8947" stroke-miterlimit="10" width="15.211" height="15.211"/>
	
		<rect x="158.003" y="261.385" transform="matrix(-0.2051 -0.9787 0.9787 -0.2051 -63.7039 486.2408)" fill="#FFFFFF" stroke="#000000" stroke-width="0.8947" stroke-miterlimit="10" width="15.21" height="15.211"/>
	
		<rect x="172.89" y="258.266" transform="matrix(-0.205 -0.9788 0.9788 -0.205 -42.7279 497.0364)" fill="#FFFFFF" stroke="#000000" stroke-width="0.8947" stroke-miterlimit="10" width="15.211" height="15.21"/>
	
		<rect x="202.666" y="252.029" transform="matrix(-0.2051 -0.9787 0.9787 -0.2051 -0.7247 518.679)" fill="#FFFFFF" stroke="#000000" stroke-width="0.8947" stroke-miterlimit="10" width="15.21" height="15.21"/>
	
		<rect x="232.44" y="245.791" transform="matrix(-0.205 -0.9788 0.9788 -0.205 41.2386 540.2891)" fill="#FFFFFF" stroke="#000000" stroke-width="0.8947" stroke-miterlimit="10" width="15.211" height="15.211"/>
	
		<rect x="247.327" y="242.672" transform="matrix(-0.2051 -0.9787 0.9787 -0.2051 62.249 551.1143)" fill="#FFFFFF" stroke="#000000" stroke-width="0.8947" stroke-miterlimit="10" width="15.211" height="15.211"/>
	
		<rect x="262.215" y="239.554" transform="matrix(-0.205 -0.9788 0.9788 -0.205 83.2263 561.9182)" fill="#FFFFFF" stroke="#000000" stroke-width="0.8947" stroke-miterlimit="10" width="15.21" height="15.21"/>
	
		<rect x="277.101" y="236.434" transform="matrix(-0.2051 -0.9787 0.9787 -0.2051 104.2548 572.7504)" fill="#FFFFFF" stroke="#000000" stroke-width="0.8947" stroke-miterlimit="10" width="15.211" height="15.212"/>
	
		<rect x="291.99" y="233.317" transform="matrix(-0.205 -0.9788 0.9788 -0.205 125.2062 583.5428)" fill="#FFFFFF" stroke="#000000" stroke-width="0.8947" stroke-miterlimit="10" width="15.211" height="15.21"/>
	
		<rect x="321.765" y="227.08" transform="matrix(-0.205 -0.9788 0.9788 -0.205 167.1941 605.1711)" fill="#FFFFFF" stroke="#000000" stroke-width="0.8947" stroke-miterlimit="10" width="15.21" height="15.21"/>
	
		<rect x="146.234" y="279.391" transform="matrix(-0.205 -0.9788 0.9788 -0.205 -95.5217 496.4045)" fill="#FFFFFF" stroke="#000000" stroke-width="0.8947" stroke-miterlimit="10" width="15.21" height="15.21"/>
	
		<rect x="235.559" y="260.679" transform="matrix(-0.205 -0.9788 0.9788 -0.205 30.4289 561.284)" fill="#FFFFFF" stroke="#000000" stroke-width="0.8947" stroke-miterlimit="10" width="15.21" height="15.21"/>
	
		<rect x="324.882" y="241.967" transform="matrix(-0.205 -0.9788 0.9788 -0.205 156.3705 626.1577)" fill="#FFFFFF" stroke="#000000" stroke-width="0.8947" stroke-miterlimit="10" width="15.212" height="15.21"/>
	
		<rect x="89.803" y="306.752" transform="matrix(-0.2051 -0.9787 0.9787 -0.2051 -190.2939 474.158)" fill="#FFFFFF" stroke="#000000" stroke-width="0.8947" stroke-miterlimit="10" width="15.211" height="15.211"/>
	
		<rect x="104.691" y="303.634" transform="matrix(-0.205 -0.9788 0.9788 -0.205 -169.3124 484.954)" fill="#FFFFFF" stroke="#000000" stroke-width="0.8947" stroke-miterlimit="10" width="15.211" height="15.21"/>
	
		<rect x="119.578" y="300.516" transform="matrix(-0.205 -0.9788 0.9788 -0.205 -148.3195 495.7709)" fill="#FFFFFF" stroke="#000000" stroke-width="0.8947" stroke-miterlimit="10" width="15.21" height="15.21"/>
	
		<rect x="134.464" y="297.396" transform="matrix(-0.205 -0.9788 0.9788 -0.205 -127.3322 506.5756)" fill="#FFFFFF" stroke="#000000" stroke-width="0.8947" stroke-miterlimit="10" width="15.212" height="15.211"/>
	
		<rect x="149.352" y="294.278" transform="matrix(-0.2051 -0.9787 0.9787 -0.2051 -106.3251 517.4093)" fill="#FFFFFF" stroke="#000000" stroke-width="0.8947" stroke-miterlimit="10" width="15.211" height="15.211"/>
	
		<rect x="179.127" y="288.041" transform="matrix(-0.2051 -0.9787 0.9787 -0.2051 -64.3213 539.0543)" fill="#FFFFFF" stroke="#000000" stroke-width="0.8947" stroke-miterlimit="10" width="15.21" height="15.211"/>
	
		<rect x="194.015" y="284.922" transform="matrix(-0.205 -0.9788 0.9788 -0.205 -43.3624 549.8334)" fill="#FFFFFF" stroke="#000000" stroke-width="0.8947" stroke-miterlimit="10" width="15.211" height="15.21"/>
	
		<rect x="208.902" y="281.803" transform="matrix(-0.2051 -0.9787 0.9787 -0.2051 -22.3545 560.661)" fill="#FFFFFF" stroke="#000000" stroke-width="0.8947" stroke-miterlimit="10" width="15.211" height="15.211"/>
	
		<rect x="223.79" y="278.685" transform="matrix(-0.205 -0.9788 0.9788 -0.205 -1.3757 571.4626)" fill="#FFFFFF" stroke="#000000" stroke-width="0.8947" stroke-miterlimit="10" width="15.21" height="15.21"/>
	
		<rect x="238.676" y="275.566" transform="matrix(-0.2051 -0.9787 0.9787 -0.2051 19.6307 582.2858)" fill="#FFFFFF" stroke="#000000" stroke-width="0.8947" stroke-miterlimit="10" width="15.211" height="15.211"/>
	
		<rect x="268.452" y="269.329" transform="matrix(-0.2051 -0.9787 0.9787 -0.2051 61.6199 603.9161)" fill="#FFFFFF" stroke="#000000" stroke-width="0.8947" stroke-miterlimit="10" width="15.21" height="15.211"/>
	
		<rect x="283.34" y="266.21" transform="matrix(-0.205 -0.9788 0.9788 -0.205 82.5921 614.7156)" fill="#FFFFFF" stroke="#000000" stroke-width="0.8947" stroke-miterlimit="10" width="15.21" height="15.21"/>
	
		<rect x="298.226" y="263.091" transform="matrix(-0.2051 -0.9787 0.9787 -0.2051 103.6012 625.5375)" fill="#FFFFFF" stroke="#000000" stroke-width="0.8947" stroke-miterlimit="10" width="15.211" height="15.211"/>
	
		<rect x="313.114" y="259.973" transform="matrix(-0.205 -0.9788 0.9788 -0.205 124.5753 636.3416)" fill="#FFFFFF" stroke="#000000" stroke-width="0.8947" stroke-miterlimit="10" width="15.21" height="15.21"/>
	
		<rect x="328.001" y="256.854" transform="matrix(-0.2051 -0.9787 0.9787 -0.2051 145.6145 647.178)" fill="#FFFFFF" stroke="#000000" stroke-width="0.8947" stroke-miterlimit="10" width="15.21" height="15.212"/>
	
		<rect x="92.922" y="321.64" transform="matrix(-0.205 -0.9788 0.9788 -0.205 -201.1158 495.1365)" fill="#FFFFFF" stroke="#000000" stroke-width="0.8947" stroke-miterlimit="10" width="15.21" height="15.211"/>
	
		<rect x="182.246" y="302.928" transform="matrix(-0.205 -0.9788 0.9788 -0.205 -75.1676 560.0114)" fill="#FFFFFF" stroke="#000000" stroke-width="0.8947" stroke-miterlimit="10" width="15.211" height="15.211"/>
	
		<rect x="212.021" y="296.691" transform="matrix(-0.205 -0.9788 0.9788 -0.205 -33.1846 581.6375)" fill="#FFFFFF" stroke="#000000" stroke-width="0.8947" stroke-miterlimit="10" width="15.211" height="15.211"/>
	
		<rect x="271.57" y="284.216" transform="matrix(-0.205 -0.9788 0.9788 -0.205 50.7824 624.8907)" fill="#FFFFFF" stroke="#000000" stroke-width="0.8947" stroke-miterlimit="10" width="15.211" height="15.211"/>
	<polygon points="309.068,28.681 368.507,312.417 115.421,365.435 112.119,349.671 141.895,343.434 138.775,328.546 
		109.001,334.783 105.882,319.896 165.431,307.421 159.194,277.646 188.969,271.409 179.613,226.747 120.063,239.222 
		116.945,224.335 176.494,211.86 164.02,152.31 193.795,146.073 184.438,101.411 110.001,117.004 122.476,176.554 107.589,179.672 
		101.352,149.898 71.576,156.135 62.221,111.473 77.108,108.354 83.345,138.129 98.232,135.01 91.995,105.235 225.982,77.167 
		232.219,106.942 276.881,97.586 273.763,82.699 243.988,88.937 237.75,59.162 44.214,99.704 84.757,293.24 129.42,283.884 
		126.301,268.996 96.525,275.234 74.694,171.022 89.583,167.903 95.82,197.679 140.482,188.322 128.008,128.772 172.669,119.417 
		175.789,134.304 146.014,140.542 158.488,200.091 98.938,212.566 108.295,257.228 167.845,244.753 170.963,259.641 
		141.188,265.878 147.426,295.652 87.875,308.127 100.534,368.553 85.646,371.671 26.209,87.936 279.294,34.918 282.413,49.806 
		252.639,56.043 255.757,70.93 285.531,64.693 313.6,198.68 298.712,201.798 286.237,142.249 226.688,154.723 223.568,139.836 
		283.119,127.361 280,112.474 220.45,124.948 214.214,95.174 199.325,98.292 214.919,172.729 274.469,160.254 286.943,219.805 
		316.718,213.566 326.074,258.229 266.524,270.704 272.762,300.479 228.1,309.835 224.98,294.946 254.756,288.71 248.519,258.936 
		308.068,246.46 304.949,231.573 275.175,237.81 262.699,178.261 203.15,190.735 196.913,160.96 182.025,164.079 203.856,268.29 
		218.744,265.172 212.506,235.397 242.281,229.16 239.162,214.272 209.388,220.511 206.27,205.622 250.931,196.267 260.287,240.929 
		230.512,247.166 236.75,276.94 177.2,289.416 183.438,319.19 153.662,325.428 156.781,340.315 201.443,330.959 195.206,301.185 
		210.094,298.065 216.33,327.84 350.317,299.772 347.199,284.885 287.649,297.359 284.53,282.473 344.08,269.998 294.182,31.799 	
		"/>
	
		<rect x="96.04" y="336.527" transform="matrix(-0.205 -0.9788 0.9788 -0.205 -211.9329 516.1193)" fill="#FFFFFF" stroke="#000000" stroke-width="0.8947" stroke-miterlimit="10" width="15.212" height="15.21"/>
	
		<rect x="110.927" y="333.409" transform="matrix(-0.2051 -0.9787 0.9787 -0.2051 -190.9285 526.9561)" fill="#FFFFFF" stroke="#000000" stroke-width="0.8947" stroke-miterlimit="10" width="15.211" height="15.211"/>
	
		<rect x="125.815" y="330.29" transform="matrix(-0.2051 -0.9787 0.9787 -0.2051 -169.933 537.7732)" fill="#FFFFFF" stroke="#000000" stroke-width="0.8947" stroke-miterlimit="10" width="15.21" height="15.211"/>
	
		<rect x="155.59" y="324.053" transform="matrix(-0.205 -0.9788 0.9788 -0.205 -127.9641 559.3773)" fill="#FFFFFF" stroke="#000000" stroke-width="0.8947" stroke-miterlimit="10" width="15.211" height="15.21"/>
	
		<rect x="170.477" y="320.934" transform="matrix(-0.2051 -0.9787 0.9787 -0.2051 -106.958 570.2078)" fill="#FFFFFF" stroke="#000000" stroke-width="0.8947" stroke-miterlimit="10" width="15.211" height="15.211"/>
	
		<rect x="185.365" y="317.816" transform="matrix(-0.205 -0.9788 0.9788 -0.205 -85.9777 581.0071)" fill="#FFFFFF" stroke="#000000" stroke-width="0.8947" stroke-miterlimit="10" width="15.21" height="15.21"/>
	
		<rect x="215.139" y="311.578" transform="matrix(-0.2051 -0.9787 0.9787 -0.2051 -43.9804 602.6463)" fill="#FFFFFF" stroke="#000000" stroke-width="0.8947" stroke-miterlimit="10" width="15.211" height="15.211"/>
	
		<rect x="230.027" y="308.459" transform="matrix(-0.2051 -0.9787 0.9787 -0.2051 -22.9874 613.4595)" fill="#FFFFFF" stroke="#000000" stroke-width="0.8947" stroke-miterlimit="10" width="15.211" height="15.211"/>
	
		<rect x="244.915" y="305.341" transform="matrix(-0.205 -0.9788 0.9788 -0.205 -2.0136 624.2561)" fill="#FFFFFF" stroke="#000000" stroke-width="0.8947" stroke-miterlimit="10" width="15.211" height="15.21"/>
	
		<rect x="259.801" y="302.222" transform="matrix(-0.2051 -0.9787 0.9787 -0.2051 18.9977 635.0842)" fill="#FFFFFF" stroke="#000000" stroke-width="0.8947" stroke-miterlimit="10" width="15.211" height="15.211"/>
	
		<rect x="274.69" y="299.104" transform="matrix(-0.205 -0.9788 0.9788 -0.205 39.9733 645.886)" fill="#FFFFFF" stroke="#000000" stroke-width="0.8947" stroke-miterlimit="10" width="15.21" height="15.21"/>
	
		<rect x="289.576" y="295.984" transform="matrix(-0.205 -0.9788 0.9788 -0.205 60.9608 656.6953)" fill="#FFFFFF" stroke="#000000" stroke-width="0.8947" stroke-miterlimit="10" width="15.211" height="15.211"/>
	
		<rect x="304.463" y="292.866" transform="matrix(-0.205 -0.9788 0.9788 -0.205 81.9705 667.5198)" fill="#FFFFFF" stroke="#000000" stroke-width="0.8947" stroke-miterlimit="10" width="15.212" height="15.211"/>
	
		<rect x="319.351" y="289.747" transform="matrix(-0.2051 -0.9787 0.9787 -0.2051 102.9962 678.3531)" fill="#FFFFFF" stroke="#000000" stroke-width="0.8947" stroke-miterlimit="10" width="15.21" height="15.211"/>
	
		<rect x="334.239" y="286.629" transform="matrix(-0.205 -0.9788 0.9788 -0.205 123.9416 689.1383)" fill="#FFFFFF" stroke="#000000" stroke-width="0.8947" stroke-miterlimit="10" width="15.21" height="15.21"/>
	
		<rect x="99.159" y="351.416" transform="matrix(-0.205 -0.9788 0.9788 -0.205 -222.7429 537.12)" fill="#FFFFFF" stroke="#000000" stroke-width="0.8947" stroke-miterlimit="10" width="15.21" height="15.21"/>
	
		<rect x="154.884" y="246.498" transform="matrix(-0.205 -0.9788 0.9788 -0.205 -52.9063 465.2318)" fill="#FFFFFF" stroke="#000000" stroke-width="0.8947" stroke-miterlimit="10" width="15.211" height="15.21"/>
	
		<rect x="152.471" y="309.165" transform="matrix(-0.2051 -0.9787 0.9787 -0.2051 -117.1378 538.4017)" fill="#FFFFFF" stroke="#000000" stroke-width="0.8947" stroke-miterlimit="10" width="15.211" height="15.212"/>
	
		<rect x="294.402" y="170.649" transform="matrix(-0.205 -0.9788 0.9788 -0.205 189.4543 510.3904)" fill="#FFFFFF" stroke="#000000" stroke-width="0.8947" stroke-miterlimit="10" width="15.21" height="15.21"/>
	
		<rect x="264.627" y="176.886" transform="matrix(-0.2051 -0.9787 0.9787 -0.2051 147.4895 488.7718)" fill="#FFFFFF" stroke="#000000" stroke-width="0.8947" stroke-miterlimit="10" width="15.21" height="15.21"/>
	
		<rect x="263.921" y="99.33" transform="matrix(-0.205 -0.9788 0.9788 -0.205 222.5249 394.6171)" fill="#FFFFFF" stroke="#000000" stroke-width="0.8947" stroke-miterlimit="10" width="15.211" height="15.21"/>
</g>
<g id="Layer_20">
</g>
<g id="Layer_21">
	<rect x="172" y="218" width="200" height="150"/>
	<polygon fill="#FFFFFF" points="193.861,345.688 250.561,254.263 251.168,253.283 251.492,254.406 259.735,282.997 
		254.002,281.634 280.091,252.195 280.849,251.34 280.984,252.448 292.825,348.755 288.089,349.245 279.99,252.552 280.884,252.805 
		259.123,285.573 254.237,292.93 253.39,284.21 250.51,254.594 251.441,254.737 206.139,352.313 	"/>
	<polygon fill="#FFFFFF" points="234.802,346.418 282.078,271.825 282.941,272.331 240.882,349.986 	"/>
	<polygon fill="#00FF3C" points="287,254 330.383,251.527 335.733,251.223 332.981,255.943 296.113,319.207 294.84,317.044 
		341,314.834 341,322.166 294.84,319.956 292.482,319.844 293.566,317.793 327.784,253.057 330.383,257.473 287,255 	"/>
	<polygon fill="#FFFFFF" points="349,292.5 319.566,290 320.063,289.445 327.52,348.336 326.02,346.991 355,346.167 355,350.833 
		326.02,350.009 324.641,349.97 324.52,348.664 319.069,289.555 319.022,289.046 319.566,289 349,286.5 	"/>
	<line fill="none" stroke="#FFFFFF" stroke-miterlimit="10" x1="257" y1="316.5" x2="287" y2="316.5"/>
	
		<rect x="285.527" y="203.304" transform="matrix(-0.205 -0.9788 0.9788 -0.205 146.7971 541.054)" fill="#FFFFFF" stroke="#000000" stroke-width="0.8947" stroke-miterlimit="10" width="15.21" height="15.211"/>
	
		<rect x="288.527" y="218.304" transform="matrix(-0.205 -0.9788 0.9788 -0.205 135.7307 562.0654)" fill="#FFFFFF" stroke="#000000" stroke-width="0.8947" stroke-miterlimit="10" width="15.21" height="15.211"/>
	
		<rect x="318.527" y="212.304" transform="matrix(-0.205 -0.9788 0.9788 -0.205 177.7536 584.1982)" fill="#FFFFFF" stroke="#000000" stroke-width="0.8947" stroke-miterlimit="10" width="15.21" height="15.211"/>
	
		<rect x="321.527" y="226.304" transform="matrix(-0.205 -0.9788 0.9788 -0.205 167.666 604.0046)" fill="#FFFFFF" stroke="#000000" stroke-width="0.8947" stroke-miterlimit="10" width="15.21" height="15.211"/>
	
		<rect x="226.527" y="215.304" transform="matrix(-0.205 -0.9788 0.9788 -0.205 63.9563 497.7673)" fill="#FFFFFF" stroke="#000000" stroke-width="0.8947" stroke-miterlimit="10" width="15.21" height="15.211"/>
	
		<rect x="255.527" y="209.304" transform="matrix(-0.205 -0.9788 0.9788 -0.205 104.7742 518.9213)" fill="#FFFFFF" stroke="#000000" stroke-width="0.8947" stroke-miterlimit="10" width="15.21" height="15.211"/>
	
		<rect x="229.527" y="230.304" transform="matrix(-0.205 -0.9788 0.9788 -0.205 52.89 518.7787)" fill="#FFFFFF" stroke="#000000" stroke-width="0.8947" stroke-miterlimit="10" width="15.21" height="15.211"/>
	
		<rect x="187.527" y="255.304" transform="matrix(-0.205 -0.9788 0.9788 -0.205 -22.1895 507.7961)" fill="#FFFFFF" stroke="#000000" stroke-width="0.8947" stroke-miterlimit="10" width="15.21" height="15.211"/>
	
		<rect x="190.527" y="270.304" transform="matrix(-0.205 -0.9788 0.9788 -0.205 -33.2559 528.8076)" fill="#FFFFFF" stroke="#000000" stroke-width="0.8947" stroke-miterlimit="10" width="15.21" height="15.211"/>
	
		<rect x="172.527" y="258.304" transform="matrix(-0.205 -0.9788 0.9788 -0.205 -43.2009 496.7297)" fill="#FFFFFF" stroke="#000000" stroke-width="0.8947" stroke-miterlimit="10" width="15.21" height="15.211"/>
	
		<rect x="240.527" y="212.304" transform="matrix(-0.205 -0.9788 0.9788 -0.205 83.7627 507.8549)" fill="#FFFFFF" stroke="#000000" stroke-width="0.8947" stroke-miterlimit="10" width="15.21" height="15.211"/>
	
		<rect x="196.527" y="222.304" transform="matrix(-0.205 -0.9788 0.9788 -0.205 20.9547 476.8396)" fill="#FFFFFF" stroke="#000000" stroke-width="0.8947" stroke-miterlimit="10" width="15.21" height="15.211"/>
	
		<rect x="181.527" y="225.304" transform="matrix(-0.205 -0.9788 0.9788 -0.205 -0.0568 465.7732)" fill="#FFFFFF" stroke="#000000" stroke-width="0.8947" stroke-miterlimit="10" width="15.21" height="15.211"/>
	
		<rect x="166.527" y="228.304" transform="matrix(-0.205 -0.9788 0.9788 -0.205 -21.0682 454.7068)" fill="#FFFFFF" stroke="#000000" stroke-width="0.8947" stroke-miterlimit="10" width="15.21" height="15.211"/>
	
		<rect x="157.527" y="261.304" transform="matrix(-0.205 -0.9788 0.9788 -0.205 -64.2124 485.6634)" fill="#FFFFFF" stroke="#000000" stroke-width="0.8947" stroke-miterlimit="10" width="15.21" height="15.211"/>
	
		<rect x="170.527" y="321.304" transform="matrix(-0.205 -0.9788 0.9788 -0.205 -107.2728 570.6879)" fill="#FFFFFF" stroke="#000000" stroke-width="0.8947" stroke-miterlimit="10" width="15.21" height="15.211"/>
	
		<rect x="169.527" y="243.304" transform="matrix(-0.205 -0.9788 0.9788 -0.205 -32.1346 475.7183)" fill="#020000" stroke="#000000" stroke-width="0.8947" stroke-miterlimit="10" width="15.21" height="15.211"/>
	
		<rect x="300.527" y="200.304" transform="matrix(-0.205 -0.9788 0.9788 -0.205 167.8085 552.1204)" fill="#020000" stroke="#000000" stroke-width="0.8947" stroke-miterlimit="10" width="15.21" height="15.211"/>
	
		<rect x="193.527" y="207.304" transform="matrix(-0.205 -0.9788 0.9788 -0.205 32.021 455.8282)" fill="#FFFFFF" stroke="#000000" stroke-width="0.8947" stroke-miterlimit="10" width="15.21" height="15.211"/>
</g>
<g id="Layer_22">
</g>
<g id="Layer_23">
</g>
<g id="Layer_24">
</g>
</svg>
