<?xml version="1.0" encoding="utf-8"?>
<!-- Generator: Adobe Illustrator 16.0.0, SVG Export Plug-In . SVG Version: 6.00 Build 0)  -->
<!DOCTYPE svg PUBLIC "-//W3C//DTD SVG 1.1 Tiny//EN" "http://www.w3.org/Graphics/SVG/1.1/DTD/svg11-tiny.dtd">
<svg version="1.1" baseProfile="tiny" xmlns="http://www.w3.org/2000/svg" xmlns:xlink="http://www.w3.org/1999/xlink" x="0px"
	 y="0px" width="400px" height="400px" viewBox="0 0 400 400" xml:space="preserve">
<g id="Layer_1">
</g>
<g id="Layer_5">
</g>
<g id="Layer_4">
</g>
<g id="Layer_6">
</g>
<g id="Layer_3">
</g>
<g id="Layer_2">
</g>
<g id="Layer_7">
	<path fill="#FFFF00" stroke="#000000" stroke-width="4" stroke-miterlimit="10" d="M81.638,318h236.686L367.7,115.171
		c0,0-68.814,93.325-101.974,87.041c-35.01-6.634-65.479-125.536-65.479-125.536s-29.045,116.558-63.33,122.476
		c-31.7,5.474-93.922-86.035-93.922-86.035L81.638,318z"/>
	
		<ellipse fill="#FFFF00" stroke="#000000" stroke-width="4" stroke-miterlimit="10" cx="200.249" cy="71.364" rx="13.418" ry="13.268"/>
	
		<ellipse fill="#FFFF00" stroke="#000000" stroke-width="4" stroke-miterlimit="10" cx="369.846" cy="109.581" rx="13.418" ry="13.269"/>
	
		<ellipse fill="#FFFF00" stroke="#000000" stroke-width="4" stroke-miterlimit="10" cx="41.386" cy="107.456" rx="13.418" ry="13.27"/>
	<line fill="#FFFFFF" stroke="#000000" stroke-width="6" stroke-miterlimit="10" x1="327" y1="281" x2="75" y2="281"/>
</g>
<g id="Layer_12">
	<path fill="#EAE5D8" stroke="#000000" stroke-width="3" stroke-miterlimit="10" d="M277.708,166.068c-4.1-4.08-19.04-4.09-23.13,0
		c-15.37,15.37,10.84,68.08,0,86.92c-3.5,6.08-13.21-73.68-32.24-86.92c-6.72-4.68-26.97-5.79-32.76,0
		c-21.57,21.57-21.25,100.12,0,122c4.05,4.17,19.08,4.74,23.23,0.68c14.869-14.55-12.58-100.22-0.62-83.2
		c3.89,5.521,13.899,69.19,31.989,81.521c6.99,4.77,27.86,5.99,33.83,0C299.378,265.648,299.118,187.428,277.708,166.068z
		 M221.408,201.238c-5.44,2.31-9.12-17.61-15-18.28c-6.47-0.73-10.09,23.35-16,20.6c-5.4-2.521,1.96-18.2,5-23.32
		c1.77-2.97,7.2-7.98,10.5-9c2.93-0.91,9.87-0.69,12.17,1.33C223.508,177.328,228.059,198.419,221.408,201.238z M264.078,281.068
		c-2.2,1.35-8.18,1.43-10.33,0c-6.02-4-17.74-23.66-11.17-26.67c5.63-2.57,12,16.31,18.17,16.84c3.66,0.311,9.21-9.939,12.33-8
		C277.328,265.868,268.328,278.448,264.078,281.068z"/>
</g>
<g id="Layer_11">
	<path fill="#6B69D6" stroke="#000000" stroke-width="3" stroke-miterlimit="10" d="M158.436,169.249
		c-8.842-6.483-20.534-8.761-32,0c-23.42,17.89-46.471,98.667-28.641,122.136c4.69,6.17,24.87,4.91,31,0.17
		c5.9-4.57,1.45-24.34,7.33-28.92c3.82-2.97,15.35-2.73,19.34,0c6.42,4.39,4.9,24.61,11.33,29c6.19,4.23,25.54,6.03,30,0
		C214.545,267.595,182.546,186.918,158.436,169.249z M165.465,232.805c-5.26,10.28-32.53,11.14-39,1.58
		c-6.64-9.8,2.48-29.59,8.7-33.83c4.345-2.973,12.451-5.496,21.3,0C165.785,206.345,168.465,226.935,165.465,232.805z"/>
</g>
<g id="Layer_10">
	<path fill="#FF5A4D" stroke="#000000" stroke-width="3" stroke-miterlimit="10" d="M80.051,247.396c1.03-6.37,18.72-6.88,23-11.71
		c7.1-8.03,18.17-30.16,14.66-40.29c-3.66-10.55-26.92-22.09-38-23.5c-14.63-1.86-56.33,17.5-56.33,17.5s2.46,111.81,31.33,127.33
		c5.92,3.189,22.27-3.05,25.34-9.03c5.48-10.7-23.99-40.64-13.34-46.21c11.01-5.76,19.67,34.311,31.34,38.58
		c9.24,3.38,36.29,2.21,38.66-7.34C141.091,275.127,77.131,265.307,80.051,247.396z M43.381,199.727
		c4.89-8.41,22.78-16.54,32.33-14.66c5.96,1.17,24.96,7.94,27,13.66c2.17,6.08-7.6,20.62-12,25.34
		c-7.82,8.39-1.15-13.09-10.561-19.67C72.421,198.986,38.641,207.896,43.381,199.727z"/>
</g>
<g id="Layer_13">
	<path fill="#6AED66" stroke="#000000" stroke-width="3" stroke-miterlimit="10" d="M339.573,238.677
		c1.44-15.36,38.341-35.05,35.78-50.25c-1.33-7.89-18.17-19.77-26.069-18.55c-14.24,2.18-21.761,52.12-34.771,45.95
		c-11.49-5.46,19.89-39.43,12.03-49.43c-4.83-6.13-25.271-5.02-31.221,0.03c-24.529,20.83-39.55,100.69-21.01,126.99
		c3.641,5.149,19.62,8.05,24.82,4.479c9.41-6.46-2.74-43.479,8.59-44.83c14.28-1.71,12.41,43.62,23.84,52.351
		c8.44,6.45,35.51,15.279,41.931,6.819C385.754,296.117,337.693,258.837,339.573,238.677z M296.174,196.986
		c-6.68,5.44-5.74,81.7-13.91,81.181c-9.33-0.59-0.63-78.101,7.53-82.2C291.313,195.207,297.504,195.917,296.174,196.986z"/>
</g>
<g id="Layer_8" display="none">
	<path display="inline" fill="#B3E8E4" stroke="#000000" stroke-width="3" stroke-miterlimit="10" d="M135.604,343.5h70.949
		l14.801-61.049c0,0-20.628,27.723-30.567,25.843c-10.495-1.983-19.628-37.645-19.628-37.645s-8.706,34.816-18.984,36.587
		c-9.502,1.637-28.154-25.376-28.154-25.376L135.604,343.5z"/>
	
		<ellipse display="inline" fill="#B3E8E4" stroke="#000000" stroke-width="3" stroke-miterlimit="10" cx="171.158" cy="268.966" rx="4.022" ry="3.969"/>
	
		<ellipse display="inline" fill="#B3E8E4" stroke="#000000" stroke-width="3" stroke-miterlimit="10" cx="221.998" cy="280.396" rx="4.022" ry="3.971"/>
	
		<ellipse display="inline" fill="#B3E8E4" stroke="#000000" stroke-width="3" stroke-miterlimit="10" cx="123.538" cy="279.762" rx="4.022" ry="3.969"/>
	
		<line display="inline" fill="#B3E8E4" stroke="#000000" stroke-width="3" stroke-miterlimit="10" x1="209" y1="332.5" x2="133" y2="332.5"/>
</g>
<g id="Layer_9" display="none">
	<path display="inline" fill="#C6A877" stroke="#000000" stroke-width="2" stroke-miterlimit="10" d="M273.613,373h55.624
		l11.604-48.5c0,0-16.172,22.026-23.965,20.532c-8.229-1.576-15.389-29.906-15.389-29.906s-6.826,27.66-14.884,29.066
		c-7.45,1.3-22.073-20.162-22.073-20.162L273.613,373z"/>
	
		<circle display="inline" fill="#C6A877" stroke="#000000" stroke-width="2" stroke-miterlimit="10" cx="301.488" cy="313.787" r="3.153"/>
	
		<circle display="inline" fill="#C6A877" stroke="#000000" stroke-width="2" stroke-miterlimit="10" cx="341.346" cy="322.869" r="3.153"/>
	
		<circle display="inline" fill="#C6A877" stroke="#000000" stroke-width="2" stroke-miterlimit="10" cx="264.153" cy="322.365" r="3.153"/>
	
		<line display="inline" fill="#C6A877" stroke="#000000" stroke-width="3" stroke-miterlimit="10" x1="331" y1="364.5" x2="272" y2="364.5"/>
</g>
<g id="Layer_15">
</g>
<g id="Layer_14">
</g>
<g id="Layer_16">
</g>
<g id="Layer_17">
</g>
<g id="Layer_18">
</g>
<g id="Layer_19">
</g>
<g id="Layer_20">
</g>
<g id="Layer_21">
</g>
<g id="Layer_22">
</g>
<g id="Layer_23">
</g>
<g id="Layer_24">
</g>
</svg>
