<?xml version="1.0" encoding="utf-8"?>
<!-- Generator: Adobe Illustrator 16.0.0, SVG Export Plug-In . SVG Version: 6.00 Build 0)  -->
<!DOCTYPE svg PUBLIC "-//W3C//DTD SVG 1.1 Tiny//EN" "http://www.w3.org/Graphics/SVG/1.1/DTD/svg11-tiny.dtd">
<svg version="1.1" baseProfile="tiny" xmlns="http://www.w3.org/2000/svg" xmlns:xlink="http://www.w3.org/1999/xlink" x="0px"
	 y="0px" width="400px" height="400px" viewBox="0 0 400 400" xml:space="preserve">
<g id="Layer_1">
	<text transform="matrix(1 0 0 1 113.835 345.6895)" display="none" font-family="'InkFree'" font-size="144.5927">RPG</text>
</g>
<g id="Layer_5">
	<path fill="#7F7B75" stroke="#000000" stroke-width="4" stroke-miterlimit="10" d="M39.711,159.25L121,119h94
		c0,0,25.165,61.285,25,83.25c-0.191,25.466-9.768,85.813-31,99.875c-24.397,16.158-92.428-0.687-115.5-18.688
		C66.768,262.581,39.711,159.25,39.711,159.25z"/>
	<path fill="#D69C49" stroke="#000000" stroke-miterlimit="10" d="M57,167.5l70.5-32.5l80-3.5c0,0,18.028,53.067,18,71.5
		c-0.035,22.345-4.154,73.743-22.5,86.5c-14.235,9.898-52.58-1.434-69-7c-8.345-2.829-24.332-11.754-30-18.5
		C86.738,243.455,57,167.5,57,167.5z"/>
</g>
<g id="Layer_4">
	<path fill="#34E515" stroke="#000000" stroke-width="4" stroke-miterlimit="10" d="M378.114,236.839
		c-10.521-11.321-49.744-19.19-61.191-8.807c-3.598,3.262-2.335,15.74,0.874,19.37c4.366,4.934,20.357,3.818,23.335,9.689
		c2.567,5.05-5.47,10.247-11.005,11.447c-9.921,2.156-21.85,3.632-28.384-13.771c-10.296-27.425-1.921-59.87,8.044-67.361
		c8.816-6.639,13.475-8.44,23.827-4.58c9.774,3.641,8.816,15.75,19.149,17.171c4.229,0.579,14.308-3.841,15.076-8.039
		c2.641-14.308-19.896-41.315-33.404-46.724c-16.771-6.711-24.628-8.108-58.938,15.785c-13.987,9.741-19.829,54.922-17.553,71.823
		c6.144,45.641,14.743,56.296,30.385,65.157c19.422,11.004,38.085,7.951,52.803,0.482c8.522-4.335,7.839-27.355,16.077-32.363
		c5.061-3.083-1.895,26.954,4.176,32.794c3.252,3.135,14.973,3.304,18.055,0C389.14,288.508,387.804,247.266,378.114,236.839z
		 M374.127,266.75c-5.566,1.072-3.725-17.865-8.417-21.042c-1.578-1.073-6.05-1.073-7.628,0c-3.209,2.178-4.576,14.761-8.122,13.203
		c-4.43-1.945,4.345-15.287,1.608-19.273c-1.956-2.883-13.604-0.506-13.34-3.978c0.357-4.798,14.414-3.913,19.064-2.672
		c5.145,1.367,14.792,8.132,16.834,13.045C376.104,250.821,379.208,265.771,374.127,266.75z"/>
</g>
<g id="Layer_6">
	<polygon fill="#FFFFFF" stroke="#000000" stroke-width="4" stroke-miterlimit="10" points="208.865,305.537 248.715,286.864 
		327.815,137.78 344.333,149.333 350.667,141.333 329.67,126.154 354.315,91.747 345.793,85.042 321.333,119.333 299.667,105 
		293.333,115.5 310.304,126.16 200.586,265.654 	"/>
	
		<line fill="#D83030" stroke="#000000" stroke-width="4" stroke-miterlimit="10" x1="231.806" y1="269.299" x2="317.667" y2="133.667"/>
</g>
<g id="Layer_3">
	<path fill="#636AEA" stroke="#000000" stroke-width="4" stroke-miterlimit="10" d="M269.078,147.104
		c-18.094-6.434-77.828-17.625-92.983,0c-25.428,29.583-27.586,128.457,0,156.042c7.362,7.365,33.975,7.022,41.682,0
		c15.668-14.278-34.416-62.129-17.635-75.082c10.291-7.951,33.934,22.178,64.928,9.085c26.281-11.105,27.254-28.056,29.66-51.217
		C295.926,174.369,280.045,151.005,269.078,147.104z M270.832,217.387c-5.717,10.538-19.389-24.25-21.012-26.367
		c-16.652-21.621-39.791-27.574-14.963-34.553C273.418,145.618,283.305,194.418,270.832,217.387z"/>
</g>
<g id="Layer_2">
	<path fill="#D83030" stroke="#000000" stroke-width="4" stroke-miterlimit="10" d="M101.086,218.803c3.75-6.24,21.95,1.27,29.12,0
		c12.3-2.18,26-9.5,26-42.691c0-33.19-28.5-37.69-28.5-37.69s-54.31-13.83-67-2.87c-30.29,26.16-43.27,129.499-16.5,159.249
		c5.77,6.41,28.3,5.99,34.5,0c10.41-10.059-12.06-54.428,2-57.879c14.74-3.609,8.65,46.199,18.33,57.879
		c7.66,9.24,43.47,10.861,48-0.25C155.407,274.041,89.667,237.783,101.086,218.803z M119.374,170.302
		c-5.56-8.91-49.48-6.236-40.5-11.667c11.72-7.08,36.586-7.613,46.167,2.167c4.87,4.97,8.336,14.224,6.167,20.833
		c-1.82,5.54-10.143,13.876-15.833,15.167C100.454,200.182,127.474,183.282,119.374,170.302z"/>
</g>
<g id="Layer_7">
</g>
<g id="Layer_12">
</g>
<g id="Layer_11">
</g>
<g id="Layer_10">
</g>
<g id="Layer_13">
</g>
<g id="Layer_8" display="none">
</g>
<g id="Layer_9" display="none">
</g>
<g id="Layer_15">
</g>
<g id="Layer_14">
</g>
<g id="Layer_16">
</g>
<g id="Layer_17">
</g>
<g id="Layer_18">
</g>
<g id="Layer_19">
</g>
<g id="Layer_20">
</g>
<g id="Layer_21">
</g>
<g id="Layer_22">
</g>
<g id="Layer_23">
</g>
<g id="Layer_24">
</g>
</svg>
