<?xml version="1.0" encoding="utf-8"?>
<!-- Generator: Adobe Illustrator 16.0.0, SVG Export Plug-In . SVG Version: 6.00 Build 0)  -->
<!DOCTYPE svg PUBLIC "-//W3C//DTD SVG 1.1 Tiny//EN" "http://www.w3.org/Graphics/SVG/1.1/DTD/svg11-tiny.dtd">
<svg version="1.1" baseProfile="tiny" xmlns="http://www.w3.org/2000/svg" xmlns:xlink="http://www.w3.org/1999/xlink" x="0px"
	 y="0px" width="150px" height="200px" viewBox="0 0 150 200" xml:space="preserve">
<g id="Layer_1" display="none">
	<path display="inline" d="M64.855,81.925c0,0,0.629,0.19,1.79,0.581c1.156,0.396,2.837,0.951,4.968,1.754
		c1.075,0.383,2.241,0.859,3.515,1.396c1.276,0.534,2.656,1.131,4.099,1.872c2.878,1.475,6.133,3.349,9.254,6.221
		c1.533,1.458,3.06,3.125,4.33,5.131c1.251,1.983,2.352,4.303,2.847,6.728c0.115,0.564,0.268,1.025,0.353,1.686
		c0.075,0.653,0.149,1.312,0.226,1.973c0.033,0.327,0.068,0.666,0.077,0.987l-0.016,0.948c-0.013,0.63-0.026,1.264-0.04,1.9
		c-0.259,2.526-0.702,5.054-1.543,7.472c-1.55,4.878-4.013,9.409-6.854,13.745c-1.48,2.128-3.021,4.266-4.855,6.188
		c-1.751,1.998-3.761,3.817-5.952,5.462c-4.314,3.259-9.416,5.659-14.739,6.803c-5.322,1.128-10.821,1.303-16.043,0.356
		c-0.651-0.127-1.3-0.254-1.946-0.38c-0.64-0.161-1.275-0.331-1.905-0.511c-0.636-0.157-1.242-0.412-1.859-0.615l-0.918-0.324
		l-0.114-0.04l-0.196-0.081l-0.05-0.022l-0.199-0.091l-0.396-0.18c-0.528-0.241-1.053-0.48-1.576-0.718l-0.393-0.182l-0.436-0.236
		l-0.864-0.478c-0.565-0.327-1.147-0.646-1.682-0.981c-0.509-0.348-1.014-0.692-1.517-1.035c-3.979-2.804-7.099-6.22-9.462-9.657
		c-2.322-3.48-3.879-7.003-4.771-10.232c-0.265-0.792-0.431-1.588-0.588-2.352c-0.144-0.768-0.324-1.49-0.381-2.214
		c-0.08-0.713-0.157-1.396-0.231-2.049c-0.064-0.65-0.03-1.284-0.047-1.873c-0.04-1.179,0.039-2.229,0.145-3.136
		c0.046-0.45,0.09-0.866,0.129-1.248c0.075-0.378,0.143-0.721,0.204-1.028c0.263-1.211,0.403-1.856,0.403-1.856l0.697,0.064
		c0,0,0.08,0.639,0.23,1.837c0.033,0.295,0.069,0.624,0.11,0.986c0.07,0.358,0.147,0.75,0.23,1.173
		c0.086,0.421,0.173,0.87,0.255,1.347c0.081,0.478,0.253,0.975,0.387,1.499c0.505,2.108,1.459,4.561,2.745,7.201
		c1.332,2.623,3.085,5.438,5.451,8.096c2.311,2.696,5.235,5.216,8.602,7.339c0.421,0.265,0.845,0.531,1.271,0.799
		c0.424,0.241,0.845,0.441,1.268,0.67l0.63,0.347l0.314,0.177l0.389,0.176c0.523,0.233,1.051,0.469,1.58,0.706l0.398,0.178
		l0.199,0.089l0.05,0.022c0.048,0.021-0.236-0.102-0.094-0.041l0.091,0.034l0.73,0.275c0.493,0.173,0.969,0.398,1.482,0.533
		c0.508,0.149,1.016,0.31,1.524,0.48c0.521,0.135,1.043,0.27,1.568,0.404c2.116,0.49,4.327,0.826,6.598,0.938
		c2.271,0.11,4.588,0.005,6.92-0.264c1.161-0.163,2.331-0.336,3.491-0.59c0.59-0.092,1.168-0.232,1.749-0.375
		c0.581-0.142,1.171-0.267,1.74-0.455c0.575-0.171,1.167-0.312,1.741-0.502l1.722-0.592c1.103-0.439,2.183-0.845,3.367-1.464
		l0.868-0.429l0.741-0.431c0.521-0.314,1.068-0.6,1.579-0.941c0.987-0.727,2.02-1.415,2.934-2.253
		c0.949-0.798,1.786-1.712,2.649-2.604c0.435-0.442,0.784-0.956,1.182-1.431c0.385-0.483,0.778-0.961,1.105-1.484
		c0.698-1.017,1.354-2.056,1.904-3.148c0.603-1.063,1.033-2.204,1.487-3.317c0.799-2.27,1.364-4.583,1.568-6.871
		c0.288-2.278,0.147-4.513-0.025-6.62c-0.082-0.521-0.163-1.04-0.243-1.556l-0.116-0.765c-0.046-0.246-0.128-0.466-0.177-0.699
		c-0.105-0.458-0.21-0.913-0.314-1.364c-0.088-0.447-0.318-1.04-0.469-1.548c-0.526-1.886-1.352-3.475-2.229-5.046
		c-0.241-0.38-0.481-0.757-0.719-1.131c-0.233-0.377-0.544-0.707-0.797-1.068c-0.499-0.727-1.127-1.361-1.693-2.016
		c-2.372-2.564-5.064-4.632-7.508-6.441c-1.226-0.903-2.409-1.737-3.505-2.518c-1.102-0.771-2.136-1.466-3.051-2.134
		c-1.851-1.296-3.298-2.39-4.26-3.145c-0.952-0.77-1.45-1.199-1.45-1.199L64.855,81.925z"/>
	<path display="inline" d="M89.688,33.033c-0.334-0.465-0.633-0.942-0.946-1.415c-0.313-0.454-0.637-0.875-0.945-1.297l-0.993-1.242
		c-0.333-0.406-0.703-0.782-1.034-1.174c-0.349-0.382-0.732-0.732-1.078-1.102c-0.366-0.355-0.757-0.686-1.122-1.029l-1.162-0.961
		l-1.201-0.894c-0.424-0.269-0.831-0.55-1.242-0.825l-1.278-0.759c-0.439-0.234-0.866-0.482-1.309-0.705l-1.339-0.646
		c-1.807-0.823-3.69-1.486-5.616-2.06c-1.922-0.585-3.88-1.137-5.897-1.633c-1.01-0.238-2.031-0.479-3.07-0.672
		c-1.039-0.186-2.09-0.34-3.153-0.46l-1.599-0.114c-0.533-0.006-1.07-0.027-1.606-0.02c-1.071,0.025-2.142,0.107-3.204,0.263
		c-1.061,0.158-2.108,0.394-3.142,0.679l-1.53,0.487l-1.494,0.582l0.109-0.047c-1.193,0.712-2.347,1.487-3.348,2.442
		c-1.021,0.925-1.912,1.98-2.713,3.079c-0.813,1.092-1.478,2.284-2.12,3.458c-0.583,1.219-1.195,2.398-1.645,3.663
		c-0.504,1.232-0.933,2.495-1.319,3.768c-0.37,1.28-0.685,2.576-0.909,3.891l-0.046,0.246l-0.023,0.123l-0.011,0.061
		c-0.012,0.067,0.095-0.53,0.049-0.27l-0.001,0.017l-0.003,0.034L33.7,39.045l-0.097,1.088l-0.097,1.088
		c-0.035,0.365,0.018,0.611,0.012,0.92c0.024,0.593-0.005,1.157,0.039,1.765c0.072,0.624,0.121,1.248,0.176,1.871
		c0.212,1.23,0.349,2.476,0.717,3.682c0.151,0.609,0.279,1.228,0.519,1.817c0.226,0.592,0.366,1.217,0.625,1.805
		c0.252,0.59,0.516,1.177,0.753,1.781l0.886,1.749c0.269,0.601,0.658,1.144,0.982,1.726c0.327,0.58,0.688,1.146,1.076,1.699
		c0.729,1.138,1.573,2.214,2.405,3.321l1.326,1.612c0.45,0.536,0.935,1.044,1.393,1.587c0.456,0.546,0.96,1.044,1.456,1.559
		c0.492,0.52,0.976,1.058,1.501,1.551l3.134,3.089l-0.355,0.603c-1.424-0.467-2.844-0.99-4.203-1.642
		c-1.38-0.619-2.709-1.352-4.009-2.148c-1.32-0.774-2.557-1.681-3.785-2.622c-1.189-0.986-2.39-1.988-3.461-3.14
		c-0.558-0.554-1.104-1.125-1.593-1.752c-0.491-0.624-1.048-1.199-1.485-1.875c-0.452-0.662-0.915-1.321-1.356-1.998
		c-0.407-0.701-0.788-1.419-1.181-2.134c-0.711-1.468-1.386-2.977-1.822-4.577c-0.256-0.788-0.471-1.587-0.597-2.41
		c-0.134-0.818-0.333-1.631-0.379-2.459l-0.135-2.484c-0.002-0.844,0.083-1.736,0.134-2.598c0.034-0.417,0.055-0.903,0.121-1.259
		l0.197-1.075l0.198-1.075l0.101-0.537l0.064-0.354l0.021-0.071l0.042-0.143l0.084-0.285c0.427-1.522,0.956-3.016,1.552-4.481
		c0.608-1.461,1.293-2.894,2.122-4.25c0.823-1.356,1.762-2.647,2.791-3.851c1.06-1.184,2.16-2.318,3.389-3.306
		c0.585-0.519,1.237-0.969,1.851-1.441c0.663-0.421,1.271-0.896,1.952-1.273c1.297-0.839,2.69-1.5,4.06-2.159l0.079-0.038
		l0.031-0.01c1.081-0.346,2.164-0.671,3.25-0.976c0.55-0.13,1.089-0.296,1.636-0.436c0.551-0.121,1.095-0.274,1.644-0.411
		c0.553-0.115,1.101-0.258,1.653-0.39c0.555-0.109,1.108-0.246,1.664-0.371c1.115-0.231,2.238-0.46,3.375-0.662
		c1.136-0.199,2.286-0.368,3.447-0.491c1.161-0.109,2.334-0.198,3.513-0.2c1.179-0.001,2.361,0.07,3.54,0.209
		c0.589,0.072,1.173,0.188,1.761,0.282c0.584,0.114,1.162,0.271,1.743,0.407c1.151,0.323,2.289,0.712,3.397,1.182
		c1.113,0.46,2.195,1,3.248,1.597c1.057,0.593,2.056,1.289,3.03,2.01c0.479,0.375,0.938,0.779,1.402,1.166
		c0.449,0.411,0.885,0.836,1.313,1.264c0.407,0.454,0.818,0.899,1.21,1.359l1.092,1.45c0.327,0.511,0.657,1.014,0.962,1.53
		c0.285,0.531,0.567,1.059,0.822,1.596c0.236,0.55,0.471,1.096,0.676,1.649c0.178,0.57,0.37,1.118,0.516,1.693
		c0.127,0.588,0.26,1.169,0.362,1.733c0.055,0.564,0.125,1.124,0.159,1.695L89.688,33.033z"/>
	<path display="inline" d="M86.379,124.98c0,0-1.443,0.859-3.696,1.898c-1.123,0.53-2.441,1.117-3.912,1.629
		c-0.733,0.256-1.482,0.548-2.261,0.794c-0.776,0.254-1.564,0.512-2.353,0.77c-0.796,0.218-1.592,0.436-2.375,0.65
		c-0.78,0.225-1.564,0.39-2.314,0.58c-1.505,0.366-2.921,0.651-4.145,0.862c-2.442,0.441-4.119,0.564-4.119,0.564
		s1.493-0.771,3.806-1.67c1.153-0.459,2.513-0.951,3.972-1.449c0.733-0.239,1.481-0.517,2.258-0.741
		c0.774-0.235,1.561-0.475,2.347-0.713c0.784-0.232,1.568-0.464,2.339-0.692c0.77-0.235,1.543-0.417,2.284-0.62
		c0.739-0.213,1.472-0.351,2.154-0.547c0.682-0.193,1.336-0.351,1.939-0.495C84.714,125.209,86.379,124.98,86.379,124.98z"/>
	<path display="inline" d="M58.552,132.729c0,0-0.235-0.725-0.676-2.083c-0.22-0.679-0.492-1.517-0.812-2.502
		c-0.267-1-0.517-2.171-0.817-3.481c-0.337-1.309-0.552-2.775-0.797-4.373c-0.121-0.799-0.268-1.631-0.37-2.497
		c-0.082-0.869-0.167-1.769-0.253-2.698c-0.383-3.722-0.502-7.936-0.535-12.525c0.012-4.58,0.088-9.544,0.253-14.769
		c0.052-2.609,0.204-5.319,0.31-8.077c0.13-2.761,0.382-5.579,0.612-8.447c0.165-1.433,0.331-2.878,0.498-4.334
		c0.169-1.472,0.305-2.884,0.618-4.453c0.3-1.523,0.68-3.088,1.359-4.638c0.675-1.537,1.646-3.081,3.036-4.29
		c0.671-0.625,1.46-1.113,2.262-1.544c0.201-0.107,0.412-0.187,0.618-0.28l0.312-0.134l0.156-0.066
		c0.07-0.025-0.047,0.01,0.177-0.065l0.067-0.021l1.079-0.337l1.081-0.337l0.541-0.169l0.605-0.129l2.433-0.504
		c3.166-0.468,6.332-0.684,9.49-0.55c3.151,0.17,6.292,0.493,9.377,1.208l0.29,0.059l0.145,0.03l0.072,0.015
		c0.069,0.017-0.051-0.018,0.173,0.042l0.545,0.159l1.09,0.318c0.728,0.217,1.435,0.389,2.222,0.739l2.294,0.938l2.115,1.121
		c0.716,0.351,1.372,0.795,2.026,1.239c0.645,0.454,1.339,0.843,1.937,1.352l1.81,1.494c0.604,0.493,1.12,1.076,1.681,1.608
		c1.143,1.048,2.06,2.283,3.062,3.425c0.442,0.616,0.884,1.23,1.323,1.842c0.216,0.308,0.442,0.607,0.647,0.92l0.578,0.96
		c1.61,2.513,2.781,5.212,3.779,7.884c0.396,1.373,0.91,2.693,1.171,4.066c0.154,0.679,0.308,1.354,0.46,2.025
		c0.102,0.68,0.202,1.356,0.303,2.028c0.243,1.336,0.26,2.683,0.362,3.994c0.066,0.656,0.001,1.313,0.007,1.961
		c-0.017,0.667-0.01,1.252-0.059,1.968c-0.178,2.395-0.659,4.984-1.272,7.215c-0.679,2.261-1.491,4.371-2.473,6.274
		c-0.995,1.893-2.064,3.617-3.22,5.12c-2.273,3.039-4.722,5.275-6.851,6.915c-1.043,0.852-2.075,1.476-2.936,2.059
		c-0.905,0.518-1.661,0.975-2.295,1.309c-1.28,0.637-1.963,0.977-1.963,0.977s0.645-0.404,1.853-1.163
		c0.593-0.393,1.297-0.921,2.134-1.516c0.787-0.666,1.742-1.361,2.696-2.274c1.948-1.771,4.118-4.144,6.107-7.183
		c2.004-3.027,3.693-6.799,4.722-11.09c0.463-2.204,0.766-4.32,0.827-6.845c-0.035-1.106-0.015-2.37-0.111-3.57
		c-0.146-1.216-0.201-2.458-0.479-3.69c-0.116-0.618-0.233-1.24-0.351-1.867c-0.165-0.616-0.332-1.235-0.5-1.858
		c-0.284-1.26-0.816-2.463-1.225-3.713c-1.039-2.417-2.125-4.893-3.668-7.148l-0.546-0.866c-0.194-0.281-0.409-0.548-0.612-0.824
		c-0.412-0.548-0.825-1.097-1.24-1.649c-0.938-1.008-1.787-2.115-2.841-3.028c-1.978-1.959-4.28-3.596-6.722-4.976l-1.868-0.976
		l-1.893-0.76c-0.588-0.281-1.353-0.467-2.075-0.676l-1.092-0.31l-0.547-0.155c0.179,0.045,0.012,0.005,0.034,0.012l-0.067-0.013
		l-0.134-0.026l-0.268-0.052c-2.83-0.64-5.772-0.909-8.691-1.055c-2.926-0.149-5.856,0.04-8.688,0.43l-2.02,0.394l-0.506,0.096
		l-0.542,0.165l-1.083,0.329l-1.081,0.329l-0.743,0.321c-0.517,0.282-1.025,0.575-1.452,0.976c-1.771,1.52-2.729,4.077-3.305,6.77
		c-0.299,1.306-0.486,2.797-0.677,4.2c-0.197,1.419-0.392,2.828-0.585,4.225c-0.3,2.812-0.578,5.581-0.831,8.297
		c-0.208,2.726-0.46,5.374-0.613,7.992c-0.333,5.211-0.648,10.138-0.939,14.686c-0.184,4.536-0.354,8.699-0.23,12.38
		c0.024,0.922,0.047,1.813,0.07,2.675c0.062,0.857,0.121,1.685,0.178,2.479c0.112,1.593,0.205,3.06,0.43,4.357
		c0.186,1.312,0.353,2.483,0.498,3.503c0.221,1.012,0.409,1.872,0.562,2.569C58.39,131.984,58.552,132.729,58.552,132.729z"/>
	<path display="inline" d="M81.799,135.91c0,0-0.12-0.188-0.352-0.552c-0.211-0.381-0.628-0.861-0.953-1.664
		c-0.791-1.54-1.515-3.971-1.728-7.165c-0.01-0.794-0.066-1.639-0.025-2.519c0.063-0.876,0.084-1.804,0.232-2.752
		c0.201-1.914,0.659-3.946,1.276-6.078c0.62-2.133,1.473-4.35,2.609-6.587c0.274-0.563,0.575-1.124,0.912-1.678
		c0.315-0.563,0.657-1.124,1.042-1.672l0.578-0.852c0.204-0.264,0.366-0.505,0.609-0.791c0.457-0.565,0.919-1.082,1.446-1.586
		c1.035-1.005,2.281-1.906,3.75-2.543c1.473-0.607,3.24-0.888,4.922-0.51c0.425,0.075,0.83,0.201,1.23,0.347l0.151,0.052
		l0.075,0.026c0.056,0.022-0.018-0.013,0.145,0.057l0.247,0.115l0.493,0.237c0.337,0.167,0.758,0.446,1.129,0.675
		c0.334,0.259,0.678,0.507,0.992,0.789c1.255,1.131,2.248,2.506,2.994,3.975c1.469,2.961,2.213,6.157,2.555,9.434
		c0.431,3.143,0.612,6.561,0.562,9.921c-0.115,6.74-0.955,13.615-1.956,20.556c-0.242,1.737-0.505,3.478-0.783,5.22
		c-0.263,1.744-0.526,3.493-0.791,5.246c-0.499,3.509-1.021,7.049-1.826,10.56c-0.398,1.756-0.859,3.506-1.434,5.228
		c-0.308,0.846-0.559,1.736-0.953,2.591c-0.398,0.878-0.836,1.679-1.319,2.47c-0.975,1.566-2.084,3.04-3.377,4.392
		c-1.306,1.328-2.768,2.614-4.776,3.334c-0.993,0.342-2.191,0.506-3.342,0.178c-1.15-0.305-2.115-1.001-2.823-1.768
		c-0.182-0.193-0.36-0.388-0.504-0.593l-0.229-0.306l-0.114-0.152c-0.01-0.009-0.13-0.206-0.098-0.155l-0.041-0.07
		c-0.217-0.398-0.438-0.692-0.651-1.174c-0.459-0.997-0.742-1.938-0.902-2.89c-0.331-1.915-0.22-3.81,0.1-5.6
		c0.324-1.795,0.862-3.503,1.523-5.13c0.668-1.625,1.442-3.183,2.37-4.644l0.352-0.545l0.088-0.136l0.13-0.19l0.183-0.245
		l0.728-0.979l0.723-0.975c0.261-0.324,0.561-0.647,0.838-0.97c1.113-1.333,2.3-2.457,3.474-3.582
		c1.23-1.052,2.443-2.091,3.704-3.015c4.997-3.786,10.081-6.587,14.572-9.416c4.587-2.711,8.489-5.515,11.888-8.12
		c3.411-2.69,6.221-5.12,8.091-7.508c1.935-2.345,2.576-4.723,2.405-6.305c-0.078-0.392-0.148-0.737-0.208-1.035
		c-0.069-0.299-0.209-0.524-0.28-0.721c-0.165-0.388-0.25-0.588-0.25-0.588l0.254-0.158c0,0,0.112,0.198,0.328,0.583
		c0.097,0.198,0.268,0.425,0.377,0.734c0.099,0.317,0.214,0.685,0.344,1.101c0.367,1.714-0.165,4.442-1.998,7.085
		c-1.747,2.704-4.59,5.386-7.791,8.279c-3.287,2.913-7.224,5.984-11.709,8.901c-4.437,3.004-9.405,5.98-14.115,9.646
		c-2.343,1.818-4.659,3.897-6.607,6.148c-0.247,0.284-0.501,0.547-0.747,0.85l-0.726,0.972l-0.729,0.977l-0.184,0.245l-0.119,0.185
		l-0.314,0.485c-0.82,1.309-1.581,2.692-2.203,4.142c-1.233,2.877-2.07,6.078-1.638,9.055c0.103,0.744,0.329,1.459,0.562,2.043
		c0.112,0.317,0.392,0.738,0.581,1.104l0.039,0.07c0.059,0.098-0.036-0.052-0.012-0.018l0.079,0.108l0.156,0.218
		c0.099,0.154,0.214,0.278,0.328,0.404c0.92,1.038,1.965,1.368,3.308,0.958c1.331-0.401,2.675-1.407,3.856-2.545
		c1.189-1.152,2.273-2.478,3.223-3.885c0.478-0.696,0.935-1.431,1.311-2.149c0.396-0.737,0.673-1.55,1.02-2.354
		c0.643-1.616,1.186-3.282,1.672-4.971c0.952-3.385,1.648-6.861,2.314-10.34c0.629-3.486,1.276-6.954,1.771-10.413
		c1.03-6.906,1.602-13.79,1.246-20.394c-0.161-3.304-0.501-6.439-1.129-9.628l-0.209-1.183c-0.046-0.307-0.164-0.736-0.241-1.097
		c-0.187-0.748-0.386-1.485-0.609-2.203c-0.437-1.438-0.957-2.819-1.641-4.051c-0.681-1.229-1.476-2.339-2.441-3.187
		c-0.239-0.213-0.501-0.394-0.746-0.588c-0.263-0.145-0.442-0.296-0.76-0.453l-0.494-0.233l-0.245-0.119
		c0.119,0.054,0.002,0.004,0.015,0.012l-0.053-0.019l-0.105-0.037c-0.28-0.107-0.562-0.202-0.848-0.253
		c-1.135-0.276-2.292-0.11-3.383,0.308c-1.085,0.453-2.105,1.142-2.992,1.981c-0.441,0.414-0.884,0.861-1.259,1.302
		c-0.19,0.203-0.404,0.492-0.604,0.732l-0.525,0.727c-0.366,0.485-0.698,0.991-1.009,1.507c-0.328,0.501-0.627,1.016-0.901,1.537
		c-1.116,2.069-2.066,4.118-2.746,6.122c-1.399,3.995-2.028,7.674-2.127,10.71c-0.078,3.033,0.43,5.438,1.013,6.931
		c0.207,0.786,0.578,1.343,0.739,1.737c0.188,0.389,0.284,0.589,0.284,0.589L81.799,135.91z"/>
	<path display="inline" d="M104.976,105.948c0,0,0.082,0.163,0.236,0.469c0.155,0.291,0.318,0.796,0.483,1.438
		c0.31,1.262,0.501,3.1,0.346,5.258c-0.09,1.076-0.208,2.243-0.517,3.437c-0.29,1.199-0.808,2.41-1.35,3.644
		c-0.536,1.236-1.073,2.501-1.459,3.835c-0.432,1.32-0.754,2.702-1.098,4.099c-0.333,1.399-0.74,2.798-1.313,4.107
		c-0.591,1.303-1.212,2.584-1.982,3.756c-0.729,1.191-1.636,2.258-2.648,3.142c-0.99,0.905-2.192,1.54-3.338,1.978
		c-0.614,0.155-1.177,0.335-1.761,0.344c-0.286,0.017-0.56,0.053-0.828,0.03c-0.266-0.035-0.523-0.069-0.774-0.103
		c-0.499-0.031-0.926-0.246-1.319-0.377c-0.402-0.118-0.713-0.349-1.002-0.519c-0.592-0.319-0.939-0.72-1.198-0.946
		c-0.244-0.242-0.374-0.371-0.374-0.371l0.166-0.25c0,0,0.174,0.046,0.5,0.131c0.321,0.076,0.761,0.258,1.345,0.314
		c0.564,0.112,1.249,0.141,1.967,0.052c0.177-0.028,0.359-0.057,0.547-0.087c0.184-0.042,0.366-0.125,0.554-0.176
		c0.38-0.079,0.742-0.329,1.125-0.502c0.746-0.462,1.511-1.035,2.242-1.825c0.737-0.768,1.493-1.642,2.243-2.622
		c0.763-0.963,1.472-2.058,2.18-3.187c0.662-1.156,1.457-2.294,2.147-3.505c0.725-1.195,1.317-2.465,1.758-3.762
		c0.44-1.298,0.673-2.639,0.775-3.951c0.111-1.312,0.151-2.58,0.31-3.748c0.158-1.169,0.386-2.254,0.573-3.262
		c0.196-1.006,0.376-1.928,0.535-2.745c0.063-0.409,0.135-0.792,0.213-1.149c0.06-0.354,0.103-0.681,0.167-0.98
		c0.08-0.578,0.182-1.039,0.194-1.39c0.039-0.341,0.061-0.523,0.061-0.523L104.976,105.948z"/>
</g>
<g id="Layer_3" display="none">
	<rect x="-3.5" y="-2.5" display="inline" stroke="#FFFFFF" stroke-miterlimit="10" width="162" height="205"/>
</g>
<g id="Layer_2">
	<path fill="#FFFFFF" d="M64.831,81.969c0,0,0.62,0.207,1.766,0.625c1.143,0.422,2.807,1.016,4.917,1.854
		c1.063,0.404,2.22,0.895,3.482,1.449c1.264,0.55,2.629,1.165,4.05,1.929c2.853,1.489,6.07,3.374,9.137,6.226
		c1.507,1.446,3.005,3.093,4.249,5.065c1.225,1.954,2.306,4.221,2.804,6.608c0.116,0.561,0.275,1.031,0.36,1.676
		c0.077,0.639,0.154,1.282,0.231,1.93c0.035,0.32,0.073,0.65,0.084,0.966l-0.006,0.936c-0.006,0.622-0.013,1.247-0.02,1.876
		c-0.228,2.496-0.63,5.003-1.432,7.411c-1.466,4.857-3.884,9.396-6.712,13.72c-1.467,2.127-3.039,4.228-4.867,6.136
		c-1.758,1.973-3.773,3.758-5.964,5.361c-4.321,3.184-9.399,5.49-14.673,6.601c-5.274,1.089-10.712,1.234-15.863,0.283
		c-0.643-0.128-1.282-0.256-1.919-0.382c-0.631-0.162-1.257-0.331-1.878-0.509c-0.627-0.155-1.224-0.408-1.832-0.609l-0.905-0.32
		l-0.113-0.04l-0.226-0.095l-0.199-0.09l-0.396-0.181c-0.528-0.24-1.053-0.479-1.576-0.717c-0.252-0.106-0.529-0.248-0.82-0.413
		l-0.848-0.469c-0.555-0.32-1.125-0.63-1.652-0.958c-0.502-0.342-1.002-0.682-1.499-1.02c-3.936-2.754-7.041-6.106-9.401-9.491
		c-2.325-3.422-3.896-6.894-4.819-10.08c-0.272-0.781-0.445-1.567-0.61-2.322c-0.153-0.758-0.343-1.473-0.409-2.188
		c-0.09-0.705-0.176-1.381-0.258-2.027c-0.073-0.645-0.05-1.272-0.077-1.856c-0.061-1.17,0.002-2.214,0.088-3.115
		c0.037-0.448,0.072-0.863,0.104-1.243c0.066-0.377,0.127-0.719,0.181-1.025c0.233-1.21,0.357-1.854,0.357-1.854l0.598,0.055
		c0,0,0.064,0.64,0.185,1.839c0.026,0.295,0.055,0.626,0.087,0.989c0.063,0.36,0.131,0.753,0.205,1.178
		c0.071,0.421,0.147,0.873,0.228,1.355c0.072,0.48,0.235,0.981,0.358,1.512c0.466,2.127,1.379,4.61,2.638,7.293
		c1.3,2.666,3.04,5.531,5.403,8.248c2.314,2.749,5.252,5.333,8.663,7.504c0.427,0.271,0.856,0.542,1.289,0.816
		c0.432,0.248,0.864,0.456,1.297,0.692l0.646,0.355c0.204,0.121,0.435,0.241,0.712,0.357c0.524,0.233,1.05,0.47,1.58,0.706
		c1.815,0.771,3.935,1.523,6.066,1.996c2.151,0.486,4.396,0.816,6.697,0.914c2.301,0.097,4.646-0.023,7.001-0.313
		c1.173-0.175,2.353-0.358,3.523-0.626c0.595-0.1,1.177-0.248,1.761-0.399c0.584-0.149,1.178-0.282,1.75-0.479
		c0.578-0.182,1.172-0.332,1.748-0.532l1.727-0.621c1.108-0.462,2.198-0.892,3.368-1.521l0.861-0.44l0.747-0.448
		c0.521-0.324,1.066-0.619,1.575-0.97c0.986-0.741,2.016-1.445,2.926-2.296c0.948-0.809,1.782-1.732,2.643-2.634
		c0.433-0.447,0.778-0.968,1.172-1.447c0.377-0.492,0.78-0.966,1.11-1.49c0.708-1.016,1.364-2.061,1.92-3.154
		c0.609-1.066,1.049-2.208,1.514-3.321c0.822-2.271,1.425-4.587,1.667-6.886c0.328-2.289,0.229-4.544,0.087-6.682
		c-0.075-0.529-0.149-1.056-0.223-1.58l-0.107-0.777c-0.043-0.252-0.122-0.48-0.169-0.721c-0.104-0.472-0.206-0.941-0.309-1.407
		c-0.088-0.463-0.313-1.046-0.46-1.558c-0.524-1.925-1.369-3.565-2.274-5.166c-0.248-0.388-0.494-0.772-0.737-1.153
		c-0.241-0.384-0.557-0.72-0.817-1.086c-0.514-0.738-1.154-1.379-1.733-2.041c-2.428-2.584-5.157-4.641-7.627-6.437
		c-1.247-0.881-2.445-1.696-3.553-2.461c-1.123-0.757-2.153-1.453-3.084-2.082c-1.871-1.261-3.335-2.316-4.311-3.046
		c-0.967-0.742-1.474-1.155-1.474-1.155L64.831,81.969z"/>
	<path fill="#FFFFFF" d="M89.735,33.017c-0.313-0.473-0.596-0.956-0.891-1.435c-0.299-0.462-0.608-0.894-0.904-1.329l-0.951-1.278
		c-0.325-0.416-0.692-0.8-1.016-1.204c-0.342-0.393-0.719-0.755-1.061-1.137c-0.361-0.367-0.748-0.709-1.11-1.065l-1.157-0.996
		l-1.201-0.928l-1.247-0.856l-1.288-0.788c-0.443-0.243-0.874-0.499-1.32-0.73l-1.354-0.667c-1.828-0.85-3.736-1.532-5.689-2.111
		c-1.95-0.588-3.938-1.121-5.979-1.581c-1.021-0.221-2.054-0.438-3.102-0.61c-1.047-0.164-2.105-0.295-3.174-0.392
		c-1.066-0.059-2.141-0.104-3.217-0.078c-1.074,0.042-2.147,0.136-3.212,0.299c-1.063,0.167-2.114,0.405-3.151,0.691l-1.538,0.486
		l-1.503,0.577l0.093-0.041c-1.206,0.708-2.378,1.473-3.393,2.43c-1.051,0.904-1.965,1.954-2.797,3.045
		c-0.846,1.08-1.548,2.265-2.213,3.445c-0.608,1.222-1.248,2.407-1.724,3.678c-0.527,1.241-0.974,2.516-1.377,3.802
		c-0.386,1.293-0.716,2.603-0.955,3.934l-0.049,0.248l-0.024,0.124l-0.012,0.062c-0.011,0.058,0.082-0.453,0.042-0.229l-0.001,0.017
		l-0.003,0.034l-0.049,0.544l-0.104,1.087l-0.104,1.087c-0.037,0.364,0.01,0.627,0.002,0.944c0.019,0.612-0.014,1.199,0.027,1.824
		l0.173,1.915c0.211,1.26,0.357,2.535,0.735,3.767c0.157,0.623,0.293,1.253,0.54,1.854c0.233,0.604,0.384,1.239,0.651,1.836
		c0.262,0.599,0.535,1.195,0.784,1.806l0.919,1.766c0.281,0.606,0.682,1.152,1.018,1.736c0.34,0.583,0.709,1.153,1.107,1.708
		c0.738,1.153,1.638,2.197,2.483,3.306l1.363,1.597l1.436,1.558c0.469,0.537,0.985,1.024,1.493,1.528
		c0.504,0.509,1.002,1.033,1.539,1.513c1.04,1.008,2.13,1.969,3.211,2.986l-0.305,0.517c-1.397-0.51-2.792-1.066-4.126-1.745
		c-1.355-0.647-2.659-1.402-3.934-2.217c-1.298-0.789-2.49-1.73-3.706-2.667c-1.176-0.983-2.321-2.017-3.383-3.155
		c-0.549-0.551-1.086-1.119-1.563-1.744c-0.479-0.621-1.024-1.193-1.449-1.863c-0.44-0.657-0.892-1.31-1.322-1.98
		c-0.395-0.694-0.768-1.403-1.15-2.108c-0.689-1.45-1.35-2.935-1.773-4.509c-0.248-0.775-0.462-1.561-0.584-2.369
		c-0.131-0.804-0.326-1.602-0.374-2.416l-0.139-2.44c-0.005-0.828,0.077-1.696,0.122-2.539c0.032-0.409,0.048-0.878,0.111-1.235
		l0.19-1.076l0.19-1.076l0.098-0.538l0.056-0.313l0.021-0.07l0.041-0.141l0.081-0.282c0.413-1.507,0.926-2.988,1.506-4.439
		c0.592-1.448,1.259-2.869,2.064-4.216c0.797-1.348,1.709-2.635,2.712-3.834c1.038-1.178,2.101-2.319,3.295-3.319
		c0.57-0.524,1.208-0.976,1.809-1.454c0.65-0.425,1.243-0.908,1.91-1.294c1.284-0.838,2.657-1.509,4.015-2.172l0.064-0.031
		l0.03-0.01c1.075-0.351,2.151-0.678,3.235-0.983l1.63-0.433l1.639-0.402l1.649-0.375l1.66-0.349
		c0.557-0.093,1.113-0.22,1.673-0.329l1.689-0.276c1.131-0.175,2.274-0.322,3.427-0.422c1.152-0.087,2.315-0.153,3.481-0.138
		c1.167,0.017,2.335,0.102,3.5,0.25c0.582,0.076,1.159,0.195,1.74,0.292c0.578,0.115,1.147,0.273,1.722,0.409
		c1.138,0.321,2.262,0.705,3.358,1.164c1.101,0.452,2.172,0.979,3.214,1.563c1.045,0.582,2.036,1.258,3.003,1.963
		c0.475,0.366,0.931,0.759,1.393,1.137c0.447,0.401,0.881,0.816,1.309,1.232c0.407,0.443,0.817,0.878,1.21,1.327l1.097,1.415
		c0.33,0.499,0.664,0.99,0.973,1.495c0.29,0.519,0.58,1.034,0.842,1.561c0.502,1.07,0.916,2.162,1.251,3.275
		c0.139,0.576,0.286,1.146,0.403,1.702c0.073,0.558,0.159,1.111,0.215,1.675L89.735,33.017z"/>
	<path fill="#FFFFFF" d="M86.379,124.98c0,0-0.346,0.259-0.971,0.653c-0.624,0.396-1.524,0.94-2.631,1.515
		c-0.553,0.291-1.151,0.607-1.794,0.911c-0.638,0.313-1.347,0.584-2.069,0.873c-1.453,0.568-3.026,1.119-4.615,1.617
		c-3.175,0.913-6.414,1.615-8.898,1.891c-1.237,0.165-2.287,0.234-3.026,0.268c-0.739,0.035-1.171,0.021-1.171,0.021
		s0.36-0.237,1.008-0.595c0.647-0.356,1.579-0.847,2.72-1.352c2.275-1.048,5.357-2.196,8.513-3.106
		c1.556-0.48,3.128-0.908,4.623-1.258c0.753-0.167,1.48-0.328,2.171-0.481c0.692-0.163,1.357-0.289,1.971-0.406
		c1.224-0.241,2.268-0.376,3.003-0.456S86.379,124.98,86.379,124.98z"/>
	<path fill="#FFFFFF" d="M58.359,132.781c0,0-0.266-0.716-0.765-2.059c-0.241-0.674-0.538-1.505-0.886-2.481
		c-0.299-0.999-0.564-2.18-0.904-3.496c-0.148-0.66-0.378-1.357-0.483-2.092c-0.123-0.735-0.252-1.504-0.386-2.306
		c-0.128-0.804-0.286-1.64-0.406-2.51c-0.087-0.873-0.177-1.777-0.271-2.711c-0.419-3.742-0.491-7.972-0.521-12.572
		c0.082-4.586,0.203-9.552,0.543-14.768c0.157-2.603,0.44-5.311,0.728-8.053c0.317-2.747,0.737-5.545,1.149-8.384
		c0.245-1.416,0.493-2.843,0.742-4.282c0.255-1.44,0.444-2.873,0.803-4.352c0.357-1.457,0.76-2.932,1.406-4.345
		c0.643-1.408,1.538-2.753,2.742-3.819c0.584-0.551,1.275-0.977,1.979-1.362c0.373-0.177,0.701-0.326,1.129-0.49l1.076-0.345
		c0.73-0.216,1.401-0.524,2.182-0.665l2.292-0.514c3.045-0.551,6.145-0.876,9.254-0.849c3.104,0.027,6.228,0.193,9.312,0.762
		l0.29,0.048l0.145,0.024l0.072,0.012c0.059,0.014-0.028-0.014,0.15,0.033l0.551,0.138l1.102,0.276
		c0.735,0.188,1.455,0.333,2.235,0.651l2.291,0.866l2.131,1.059c2.783,1.494,5.37,3.335,7.577,5.505
		c1.174,1.021,2.125,2.231,3.164,3.353c0.461,0.607,0.921,1.212,1.379,1.815c0.226,0.304,0.462,0.6,0.678,0.909l0.607,0.95
		c3.291,5.03,5.291,10.625,6.035,16.078c0.254,1.354,0.278,2.72,0.39,4.052c0.07,0.665,0.009,1.334,0.019,1.992l-0.018,0.984
		l-0.012,0.489l-0.006,0.244l-0.006,0.129l-0.006,0.058l-0.012,0.115c-0.122,1.221-0.221,2.407-0.473,3.711
		c-0.183,1.287-0.527,2.443-0.809,3.616c-1.381,4.607-3.479,8.524-5.859,11.549c-2.344,3.058-4.85,5.3-7.042,6.908
		c-1.077,0.832-2.134,1.439-3.01,2.017c-0.924,0.506-1.689,0.961-2.338,1.277c-1.312,0.601-2.01,0.921-2.01,0.921l-0.186-0.355
		c0,0,0.629-0.424,1.807-1.219c0.577-0.41,1.271-0.94,2.09-1.547c0.772-0.673,1.702-1.384,2.622-2.316
		c1.884-1.804,3.997-4.169,5.917-7.189c1.929-3.008,3.586-6.712,4.554-10.935c0.193-1.057,0.462-2.158,0.553-3.232
		c0.053-0.559,0.158-1.049,0.174-1.673c0.03-0.604,0.062-1.214,0.092-1.828c-0.012-0.563-0.024-1.13-0.036-1.703
		c-0.026-0.591,0.021-1.188-0.064-1.787c-0.138-1.196-0.184-2.418-0.451-3.632c-0.11-0.609-0.223-1.223-0.335-1.84
		c-0.159-0.607-0.32-1.218-0.481-1.833c-0.261-1.246-0.754-2.443-1.131-3.688c-0.964-2.413-2.033-4.862-3.474-7.151l-0.517-0.876
		c-0.184-0.284-0.389-0.555-0.583-0.835c-0.393-0.557-0.787-1.115-1.184-1.676c-0.901-1.028-1.716-2.159-2.738-3.1
		c-1.908-2.024-4.178-3.714-6.598-5.164l-1.853-1.038l-1.895-0.833c-0.596-0.313-1.348-0.527-2.063-0.764L89.433,54.3l-0.541-0.176
		l-0.457-0.107c-2.831-0.786-5.791-1.212-8.757-1.501c-2.975-0.255-5.97-0.176-8.923,0.131l-2.161,0.384
		c-0.719,0.088-1.452,0.38-2.175,0.561l-1.084,0.32c-0.272,0.105-0.637,0.257-0.943,0.398c-0.616,0.329-1.222,0.684-1.735,1.158
		c-1.078,0.894-1.824,2.128-2.394,3.418c-0.579,1.295-0.918,2.702-1.158,4.115c-0.253,1.395-0.386,2.867-0.492,4.3
		c-0.114,1.437-0.228,2.863-0.34,4.277c-0.119,2.841-0.229,5.63-0.294,8.361c-0.028,1.366-0.056,2.717-0.083,4.053
		c-0.055,1.33-0.088,2.653-0.111,3.962c-0.162,5.232-0.46,10.148-0.649,14.687c-0.18,4.525-0.303,8.673-0.216,12.333
		c0.018,0.917,0.036,1.805,0.053,2.661c0.029,0.855,0.098,1.675,0.142,2.467c0.095,1.585,0.174,3.045,0.357,4.333
		c0.154,1.307,0.292,2.474,0.411,3.488c0.191,1.02,0.354,1.887,0.486,2.59c0.247,1.412,0.378,2.164,0.378,2.164L58.359,132.781z"/>
	<path fill="#FFFFFF" d="M81.93,135.837c0,0-0.114-0.19-0.336-0.561c-0.199-0.382-0.607-0.886-0.901-1.676
		c-0.735-1.511-1.455-3.925-1.588-7.078c-0.112-3.144,0.315-6.992,1.567-11.205c0.611-2.111,1.474-4.297,2.572-6.52
		c0.268-0.559,0.558-1.117,0.892-1.663c0.312-0.557,0.647-1.109,1.025-1.649l0.564-0.833c0.201-0.261,0.371-0.512,0.604-0.785
		c0.438-0.548,0.897-1.053,1.404-1.548c1-0.989,2.2-1.872,3.607-2.497c1.41-0.594,3.093-0.877,4.709-0.529
		c0.407,0.068,0.799,0.186,1.187,0.323c0.12,0.042,0.144,0.042,0.344,0.121l0.248,0.113l0.497,0.229
		c0.337,0.161,0.732,0.42,1.095,0.636c0.328,0.248,0.666,0.484,0.976,0.754c1.243,1.083,2.228,2.427,3.004,3.857
		c0.782,1.434,1.346,2.966,1.811,4.525c0.236,0.78,0.428,1.572,0.612,2.368c0.081,0.418,0.178,0.755,0.247,1.243l0.188,1.186
		c0.229,1.598,0.576,3.152,0.65,4.859c0.109,1.675,0.322,3.387,0.294,5.071c0.161,6.777-0.472,13.742-1.486,20.708
		c-0.487,3.49-1.089,6.976-1.652,10.473c-0.575,3.499-1.181,7.052-2.07,10.576c-0.452,1.761-0.975,3.514-1.606,5.236
		c-0.336,0.842-0.618,1.738-1.047,2.601c-0.437,0.894-0.903,1.686-1.414,2.475c-1.02,1.565-2.17,3.029-3.504,4.369
		c-1.347,1.316-2.851,2.59-4.906,3.287c-1.017,0.329-2.237,0.476-3.402,0.135c-1.165-0.321-2.132-1.036-2.836-1.815
		c-0.179-0.196-0.355-0.394-0.497-0.603l-0.225-0.31l-0.111-0.155c-0.009-0.009-0.131-0.21-0.098-0.158l-0.039-0.07
		c-0.211-0.401-0.425-0.7-0.632-1.186c-0.444-1.004-0.711-1.945-0.855-2.896c-0.299-1.912-0.156-3.793,0.19-5.565
		c0.353-1.777,0.916-3.463,1.6-5.066c0.687-1.603,1.495-3.125,2.419-4.566l0.352-0.537c0.074-0.108,0.084-0.136,0.211-0.311
		l0.185-0.243l0.735-0.973l0.736-0.964c0.264-0.318,0.563-0.633,0.841-0.946c2.236-2.549,4.662-4.617,7.165-6.478
		c4.979-3.737,10.058-6.537,14.56-9.366c4.571-2.744,8.512-5.553,11.899-8.21c3.379-2.718,6.226-5.174,8.07-7.642
		c1.903-2.417,2.572-4.871,2.357-6.513c-0.09-0.402-0.17-0.758-0.238-1.064c-0.079-0.305-0.227-0.533-0.304-0.733
		c-0.179-0.393-0.271-0.595-0.271-0.595s0.104,0.196,0.308,0.576c0.091,0.195,0.254,0.419,0.354,0.722
		c0.091,0.309,0.194,0.666,0.313,1.07c0.324,1.655-0.182,4.308-2.044,6.878c-1.773,2.624-4.579,5.279-7.813,8.146
		c-0.836,0.703-1.699,1.429-2.588,2.176c-0.885,0.755-1.801,1.525-2.804,2.226c-0.99,0.721-2.006,1.46-3.045,2.217
		c-1.063,0.715-2.15,1.447-3.261,2.194c-4.425,3.003-9.399,5.98-14.127,9.693c-1.195,0.915-2.323,1.927-3.468,2.945
		c-1.084,1.072-2.202,2.154-3.151,3.324c-0.247,0.292-0.502,0.564-0.745,0.872l-0.713,0.982l-0.721,0.983l-0.181,0.246l-0.128,0.2
		l-0.313,0.493c-0.824,1.329-1.551,2.748-2.154,4.219c-1.188,2.923-1.969,6.169-1.471,9.152c0.118,0.745,0.361,1.459,0.607,2.036
		c0.12,0.313,0.406,0.73,0.602,1.091l0.041,0.07c0.06,0.099-0.036-0.054-0.012-0.021l0.081,0.106l0.16,0.214
		c0.102,0.151,0.22,0.271,0.335,0.395c0.935,1.009,1.94,1.304,3.235,0.867c1.284-0.425,2.586-1.443,3.727-2.593
		c1.148-1.163,2.191-2.498,3.097-3.906c0.449-0.698,0.877-1.441,1.215-2.145c0.361-0.729,0.607-1.536,0.926-2.345
		c0.586-1.615,1.067-3.278,1.499-4.963c0.868-3.37,1.479-6.835,2.07-10.322c0.581-3.495,1.196-6.963,1.694-10.406
		c1.016-6.882,1.794-13.675,1.715-20.24c0.053-1.654-0.13-3.235-0.204-4.828c-0.039-1.573-0.355-3.207-0.541-4.791
		c-0.377-3.082-1.128-6.091-2.398-8.645c-0.648-1.268-1.453-2.408-2.431-3.305c-0.244-0.224-0.512-0.416-0.763-0.622
		c-0.272-0.158-0.477-0.329-0.794-0.492l-0.491-0.241l-0.244-0.121c0.03,0.019-0.119-0.041-0.17-0.058
		c-0.293-0.116-0.589-0.219-0.892-0.277c-1.2-0.304-2.442-0.141-3.596,0.289c-1.147,0.465-2.213,1.174-3.135,2.028
		c-0.462,0.422-0.907,0.881-1.301,1.339c-0.201,0.216-0.407,0.496-0.609,0.739l-0.539,0.744c-0.373,0.494-0.71,1.008-1.025,1.529
		c-0.332,0.51-0.641,1.026-0.922,1.553c-1.154,2.083-2.095,4.165-2.784,6.189c-1.411,4.039-2.008,7.777-2.043,10.853
		c0.003,3.075,0.515,5.497,1.153,7.019c0.238,0.798,0.617,1.333,0.791,1.726C81.828,135.64,81.93,135.837,81.93,135.837z"/>
	<path fill="#FFFFFF" d="M104.828,105.975c0,0,0.06,0.167,0.172,0.48c0.117,0.308,0.237,0.79,0.357,1.416
		c0.106,0.62,0.211,1.38,0.257,2.255c0.043,0.872,0.068,1.862,0.012,2.935c-0.048,1.072-0.125,2.235-0.3,3.451
		c-0.156,1.22-0.353,2.502-0.64,3.813c-0.551,2.625-1.359,5.384-2.44,8.058c-0.533,1.338-1.156,2.648-1.827,3.911
		c-0.694,1.255-1.43,2.468-2.284,3.566c-0.819,1.115-1.773,2.101-2.772,2.938c-0.974,0.866-2.124,1.467-3.214,1.874
		c-1.126,0.354-2.228,0.475-3.158,0.3c-0.928-0.129-1.678-0.445-2.229-0.77c-0.583-0.269-0.938-0.64-1.207-0.834
		c-0.256-0.212-0.393-0.325-0.393-0.325s0.167,0.062,0.48,0.177c0.313,0.109,0.745,0.32,1.336,0.427
		c0.571,0.158,1.288,0.231,2.061,0.178c0.191-0.021,0.39-0.042,0.593-0.064c0.2-0.033,0.4-0.115,0.604-0.17
		c0.414-0.085,0.814-0.319,1.233-0.502c0.802-0.493,1.618-1.1,2.366-1.929c0.751-0.813,1.459-1.769,2.119-2.825
		c0.68-1.037,1.273-2.199,1.878-3.377c0.564-1.203,1.144-2.428,1.634-3.7c0.526-1.255,0.977-2.546,1.435-3.813
		c0.428-1.278,0.848-2.54,1.215-3.775c0.366-1.234,0.728-2.432,1.02-3.579s0.561-2.235,0.79-3.247
		c0.213-1.013,0.401-1.943,0.548-2.776c0.125-0.831,0.235-1.561,0.291-2.167c0.033-0.596,0.093-1.077,0.067-1.412
		C104.829,106.152,104.828,105.975,104.828,105.975z"/>
</g>
</svg>
