<?xml version="1.0" encoding="utf-8"?>
<!-- Generator: Adobe Illustrator 16.0.0, SVG Export Plug-In . SVG Version: 6.00 Build 0)  -->
<!DOCTYPE svg PUBLIC "-//W3C//DTD SVG 1.1 Tiny//EN" "http://www.w3.org/Graphics/SVG/1.1/DTD/svg11-tiny.dtd">
<svg version="1.1" baseProfile="tiny" id="Layer_1" xmlns="http://www.w3.org/2000/svg" xmlns:xlink="http://www.w3.org/1999/xlink"
	 x="0px" y="0px" width="150px" height="200px" viewBox="0 0 150 200" xml:space="preserve">
<path d="M64.855,81.925c0,0,0.629,0.189,1.79,0.581c1.156,0.396,2.838,0.951,4.969,1.755c1.074,0.383,2.24,0.858,3.515,1.396
	c1.276,0.534,2.655,1.131,4.098,1.872c2.879,1.476,6.133,3.349,9.256,6.222c1.533,1.458,3.059,3.125,4.328,5.131
	c1.252,1.982,2.352,4.303,2.848,6.728c0.115,0.564,0.268,1.025,0.352,1.686c0.076,0.653,0.15,1.312,0.227,1.974
	c0.033,0.327,0.068,0.665,0.076,0.986l-0.016,0.948c-0.012,0.63-0.025,1.264-0.039,1.9c-0.258,2.526-0.703,5.054-1.543,7.472
	c-1.551,4.878-4.014,9.409-6.854,13.745c-1.48,2.128-3.021,4.266-4.855,6.188c-1.752,1.998-3.762,3.817-5.953,5.462
	c-4.313,3.259-9.416,5.659-14.739,6.803c-5.321,1.128-10.821,1.303-16.043,0.356c-0.651-0.127-1.3-0.254-1.946-0.38
	c-0.64-0.161-1.275-0.331-1.905-0.511c-0.636-0.157-1.242-0.412-1.858-0.615l-0.919-0.324l-0.114-0.041l-0.196-0.08l-0.05-0.022
	l-0.198-0.091l-0.396-0.181c-0.528-0.24-1.054-0.479-1.575-0.717l-0.394-0.182l-0.436-0.236l-0.864-0.478
	c-0.565-0.327-1.147-0.646-1.682-0.981c-0.509-0.348-1.015-0.692-1.517-1.035c-3.979-2.804-7.099-6.22-9.462-9.657
	c-2.321-3.48-3.879-7.003-4.771-10.232c-0.265-0.792-0.432-1.588-0.589-2.352c-0.144-0.768-0.324-1.49-0.381-2.214
	c-0.081-0.713-0.157-1.396-0.231-2.049c-0.064-0.65-0.029-1.284-0.047-1.873c-0.04-1.179,0.039-2.229,0.145-3.136
	c0.047-0.45,0.09-0.866,0.129-1.248c0.075-0.378,0.143-0.721,0.204-1.028c0.263-1.211,0.402-1.856,0.402-1.856l0.697,0.064
	c0,0,0.08,0.639,0.23,1.837c0.032,0.295,0.069,0.624,0.109,0.986c0.07,0.358,0.147,0.75,0.23,1.173
	c0.086,0.421,0.172,0.87,0.255,1.347c0.081,0.478,0.254,0.975,0.387,1.499c0.505,2.108,1.459,4.561,2.745,7.201
	c1.331,2.623,3.085,5.438,5.451,8.096c2.31,2.696,5.234,5.216,8.601,7.339c0.422,0.265,0.846,0.53,1.272,0.799
	c0.424,0.241,0.845,0.441,1.268,0.67l0.63,0.346l0.315,0.178l0.388,0.176c0.524,0.233,1.051,0.469,1.581,0.706l0.397,0.178
	l0.199,0.089l0.05,0.022c0.048,0.021-0.235-0.102-0.095-0.041l0.092,0.034l0.73,0.275c0.492,0.173,0.969,0.398,1.482,0.533
	c0.508,0.149,1.016,0.31,1.523,0.48c0.521,0.135,1.044,0.27,1.569,0.404c2.115,0.49,4.326,0.826,6.597,0.938
	c2.271,0.11,4.589,0.005,6.921-0.264c1.161-0.163,2.33-0.336,3.49-0.59c0.59-0.092,1.169-0.232,1.749-0.375
	c0.581-0.142,1.171-0.267,1.74-0.455c0.575-0.171,1.167-0.312,1.741-0.502l1.722-0.592c1.103-0.439,2.183-0.845,3.367-1.464
	l0.868-0.429l0.74-0.431c0.521-0.314,1.068-0.6,1.58-0.941c0.986-0.727,2.02-1.415,2.934-2.253c0.949-0.798,1.785-1.712,2.648-2.604
	c0.436-0.442,0.785-0.956,1.182-1.431c0.385-0.483,0.779-0.961,1.105-1.484c0.699-1.017,1.355-2.056,1.904-3.148
	c0.604-1.063,1.035-2.204,1.488-3.317c0.799-2.27,1.363-4.583,1.568-6.871c0.289-2.278,0.148-4.513-0.025-6.62
	c-0.082-0.521-0.162-1.04-0.244-1.556l-0.115-0.765c-0.047-0.246-0.129-0.466-0.178-0.699c-0.105-0.458-0.209-0.912-0.314-1.364
	c-0.088-0.447-0.318-1.04-0.469-1.547c-0.525-1.887-1.352-3.476-2.229-5.047c-0.242-0.38-0.48-0.757-0.719-1.131
	c-0.234-0.377-0.545-0.707-0.797-1.067c-0.498-0.728-1.127-1.361-1.693-2.017c-2.373-2.564-5.064-4.632-7.508-6.441
	c-1.225-0.903-2.409-1.736-3.505-2.518c-1.102-0.771-2.136-1.466-3.051-2.135c-1.85-1.296-3.298-2.39-4.26-3.145
	c-0.952-0.77-1.45-1.199-1.45-1.199L64.855,81.925z"/>
<path d="M89.688,33.033c-0.334-0.465-0.633-0.942-0.947-1.415c-0.313-0.454-0.637-0.875-0.945-1.298l-0.992-1.241
	c-0.332-0.406-0.703-0.782-1.035-1.175c-0.348-0.381-0.73-0.731-1.078-1.102c-0.365-0.355-0.756-0.686-1.121-1.029l-1.162-0.961
	l-1.201-0.894c-0.424-0.269-0.832-0.55-1.242-0.825l-1.279-0.759c-0.439-0.234-0.865-0.482-1.307-0.705l-1.34-0.646
	c-1.807-0.823-3.69-1.486-5.616-2.06c-1.922-0.585-3.881-1.137-5.897-1.633c-1.01-0.238-2.031-0.479-3.07-0.672
	c-1.038-0.186-2.089-0.34-3.152-0.46l-1.599-0.114c-0.533-0.006-1.07-0.027-1.606-0.02c-1.07,0.025-2.142,0.107-3.203,0.263
	c-1.062,0.158-2.109,0.394-3.143,0.679l-1.529,0.487l-1.494,0.582l0.108-0.047c-1.193,0.712-2.347,1.487-3.348,2.442
	c-1.021,0.925-1.912,1.979-2.713,3.079c-0.813,1.092-1.478,2.283-2.12,3.457c-0.583,1.22-1.194,2.399-1.645,3.663
	c-0.505,1.232-0.933,2.495-1.32,3.768c-0.37,1.28-0.685,2.576-0.908,3.892l-0.046,0.245l-0.023,0.123l-0.012,0.062
	c-0.012,0.066,0.096-0.531,0.05-0.27l-0.002,0.017l-0.003,0.034l-0.045,0.545l-0.097,1.088l-0.098,1.089
	c-0.035,0.365,0.018,0.61,0.012,0.919c0.024,0.594-0.005,1.157,0.039,1.766c0.072,0.624,0.121,1.248,0.176,1.871
	c0.213,1.23,0.35,2.476,0.718,3.682c0.15,0.609,0.279,1.228,0.519,1.817c0.227,0.592,0.366,1.218,0.624,1.805
	c0.252,0.591,0.517,1.178,0.754,1.781l0.886,1.748c0.269,0.602,0.658,1.145,0.981,1.726c0.326,0.581,0.688,1.146,1.076,1.699
	c0.729,1.138,1.573,2.214,2.405,3.32l1.326,1.613c0.449,0.536,0.935,1.044,1.393,1.586c0.455,0.547,0.96,1.045,1.456,1.559
	c0.492,0.521,0.977,1.059,1.501,1.552l3.135,3.089l-0.355,0.604c-1.424-0.468-2.844-0.99-4.203-1.643
	c-1.38-0.618-2.709-1.352-4.009-2.147c-1.319-0.774-2.557-1.682-3.785-2.623c-1.189-0.985-2.39-1.987-3.462-3.14
	c-0.558-0.554-1.104-1.126-1.593-1.753c-0.49-0.624-1.048-1.198-1.484-1.874c-0.452-0.662-0.915-1.321-1.356-1.998
	c-0.407-0.7-0.788-1.419-1.181-2.133c-0.711-1.468-1.386-2.978-1.822-4.577c-0.255-0.788-0.471-1.588-0.597-2.41
	c-0.135-0.818-0.333-1.631-0.379-2.46l-0.136-2.483c-0.003-0.845,0.083-1.737,0.134-2.598c0.034-0.418,0.055-0.903,0.12-1.26
	l0.197-1.074l0.197-1.075l0.102-0.537l0.064-0.354l0.021-0.071l0.041-0.142l0.084-0.285c0.428-1.521,0.956-3.017,1.553-4.481
	c0.607-1.462,1.293-2.895,2.122-4.251c0.822-1.355,1.762-2.647,2.79-3.85c1.061-1.184,2.16-2.318,3.389-3.307
	c0.585-0.519,1.236-0.969,1.851-1.441c0.663-0.421,1.271-0.896,1.952-1.273c1.297-0.839,2.689-1.5,4.06-2.159l0.079-0.038l0.03-0.01
	c1.082-0.346,2.164-0.671,3.251-0.976c0.55-0.13,1.09-0.296,1.637-0.436c0.551-0.121,1.095-0.274,1.644-0.411
	c0.552-0.115,1.101-0.258,1.652-0.39c0.555-0.109,1.107-0.246,1.664-0.371c1.115-0.231,2.237-0.46,3.374-0.662
	c1.137-0.199,2.286-0.368,3.447-0.491c1.161-0.109,2.335-0.198,3.514-0.2c1.179-0.001,2.36,0.07,3.54,0.209
	c0.589,0.072,1.173,0.188,1.762,0.282c0.584,0.114,1.161,0.271,1.743,0.407c1.151,0.323,2.288,0.712,3.396,1.182
	c1.114,0.46,2.196,1,3.249,1.596c1.057,0.593,2.055,1.29,3.031,2.011c0.479,0.375,0.936,0.778,1.4,1.166
	c0.449,0.411,0.885,0.836,1.314,1.263c0.406,0.454,0.818,0.9,1.211,1.36l1.09,1.45c0.328,0.511,0.658,1.014,0.963,1.53
	c0.285,0.531,0.566,1.059,0.822,1.597c0.236,0.55,0.471,1.095,0.676,1.648c0.178,0.569,0.369,1.118,0.516,1.693
	c0.127,0.587,0.26,1.168,0.361,1.732c0.055,0.564,0.125,1.123,0.16,1.695L89.688,33.033z"/>
<path d="M86.379,124.98c0,0-1.443,0.859-3.697,1.898c-1.121,0.53-2.439,1.117-3.91,1.629c-0.734,0.256-1.482,0.548-2.262,0.794
	c-0.776,0.254-1.564,0.512-2.353,0.769c-0.796,0.219-1.592,0.437-2.375,0.651c-0.78,0.225-1.564,0.39-2.314,0.58
	c-1.505,0.366-2.921,0.651-4.145,0.862c-2.442,0.441-4.119,0.564-4.119,0.564s1.493-0.771,3.806-1.67
	c1.154-0.459,2.514-0.951,3.973-1.45c0.733-0.238,1.481-0.516,2.259-0.74c0.773-0.235,1.561-0.475,2.347-0.713
	c0.783-0.232,1.567-0.464,2.339-0.692c0.769-0.235,1.544-0.417,2.285-0.62c0.738-0.213,1.471-0.351,2.154-0.547
	c0.682-0.193,1.336-0.351,1.939-0.495C84.715,125.209,86.379,124.98,86.379,124.98z"/>
<path d="M58.552,132.729c0,0-0.235-0.725-0.676-2.083c-0.22-0.679-0.492-1.517-0.812-2.502c-0.267-1-0.517-2.171-0.817-3.481
	c-0.337-1.309-0.552-2.775-0.796-4.373c-0.121-0.799-0.269-1.631-0.37-2.497c-0.082-0.869-0.166-1.769-0.254-2.698
	c-0.382-3.722-0.502-7.936-0.535-12.525c0.012-4.58,0.088-9.544,0.254-14.77c0.052-2.608,0.204-5.318,0.31-8.076
	c0.13-2.761,0.382-5.579,0.612-8.447c0.165-1.434,0.331-2.879,0.498-4.334c0.169-1.472,0.305-2.884,0.617-4.453
	c0.301-1.522,0.681-3.087,1.359-4.637c0.675-1.538,1.646-3.081,3.035-4.29c0.671-0.625,1.46-1.112,2.263-1.544
	c0.201-0.106,0.411-0.187,0.618-0.28l0.312-0.134l0.156-0.066c0.07-0.025-0.047,0.01,0.177-0.065l0.067-0.021l1.079-0.337
	l1.08-0.337l0.541-0.169l0.605-0.13l2.433-0.504c3.166-0.468,6.332-0.684,9.49-0.55c3.15,0.17,6.291,0.492,9.377,1.208l0.289,0.059
	l0.145,0.03l0.074,0.015c0.068,0.017-0.053-0.018,0.172,0.042l0.545,0.159l1.09,0.318c0.727,0.217,1.436,0.389,2.221,0.739
	l2.295,0.938l2.115,1.12c0.717,0.352,1.371,0.796,2.025,1.239c0.646,0.455,1.34,0.843,1.938,1.352l1.809,1.494
	c0.605,0.493,1.121,1.076,1.682,1.608c1.143,1.048,2.061,2.283,3.061,3.425c0.443,0.616,0.885,1.23,1.324,1.842
	c0.215,0.308,0.441,0.607,0.648,0.92l0.576,0.96c1.611,2.514,2.781,5.213,3.779,7.884c0.398,1.373,0.912,2.693,1.172,4.066
	c0.154,0.68,0.309,1.354,0.459,2.025c0.102,0.681,0.203,1.356,0.303,2.028c0.244,1.336,0.26,2.683,0.363,3.994
	c0.066,0.655,0,1.313,0.006,1.961c-0.016,0.667-0.01,1.252-0.059,1.968c-0.178,2.395-0.658,4.984-1.271,7.216
	c-0.678,2.261-1.49,4.371-2.473,6.274c-0.996,1.893-2.064,3.617-3.219,5.12c-2.273,3.039-4.723,5.275-6.852,6.915
	c-1.043,0.852-2.074,1.476-2.936,2.059c-0.904,0.518-1.66,0.975-2.295,1.309c-1.279,0.637-1.963,0.977-1.963,0.977
	s0.645-0.404,1.854-1.163c0.592-0.393,1.297-0.921,2.133-1.516c0.787-0.666,1.742-1.361,2.697-2.274
	c1.947-1.771,4.117-4.144,6.107-7.183c2.004-3.027,3.691-6.799,4.721-11.09c0.463-2.203,0.766-4.32,0.828-6.846
	c-0.037-1.105-0.016-2.369-0.113-3.57c-0.146-1.216-0.201-2.458-0.479-3.689c-0.117-0.618-0.232-1.24-0.352-1.867
	c-0.164-0.615-0.332-1.234-0.498-1.858c-0.285-1.26-0.816-2.463-1.225-3.713c-1.039-2.418-2.127-4.894-3.67-7.148l-0.545-0.866
	c-0.195-0.28-0.408-0.548-0.613-0.823c-0.41-0.548-0.824-1.098-1.24-1.649c-0.938-1.008-1.787-2.115-2.84-3.027
	c-1.979-1.96-4.281-3.597-6.723-4.977l-1.867-0.976l-1.893-0.76c-0.588-0.281-1.352-0.468-2.076-0.676l-1.092-0.31l-0.547-0.155
	c0.18,0.045,0.012,0.005,0.035,0.012l-0.066-0.013l-0.135-0.026l-0.268-0.052c-2.83-0.64-5.771-0.908-8.691-1.055
	c-2.926-0.149-5.856,0.04-8.688,0.43l-2.02,0.395l-0.506,0.096l-0.542,0.164l-1.083,0.329l-1.081,0.329l-0.742,0.32
	c-0.518,0.282-1.026,0.576-1.452,0.976c-1.771,1.521-2.729,4.078-3.306,6.77c-0.298,1.307-0.485,2.798-0.677,4.2
	c-0.196,1.419-0.392,2.828-0.585,4.225c-0.3,2.812-0.578,5.581-0.83,8.298c-0.209,2.726-0.461,5.374-0.613,7.992
	c-0.334,5.211-0.648,10.138-0.939,14.686c-0.184,4.536-0.354,8.699-0.23,12.38c0.024,0.922,0.047,1.813,0.069,2.675
	c0.062,0.857,0.121,1.685,0.179,2.479c0.111,1.593,0.205,3.06,0.43,4.357c0.187,1.312,0.353,2.483,0.497,3.503
	c0.222,1.012,0.409,1.872,0.562,2.569C58.39,131.984,58.552,132.729,58.552,132.729z"/>
<path d="M81.799,135.91c0,0-0.121-0.188-0.352-0.552c-0.211-0.381-0.629-0.861-0.953-1.664c-0.791-1.54-1.516-3.971-1.729-7.165
	c-0.01-0.794-0.066-1.639-0.025-2.519c0.064-0.876,0.084-1.804,0.232-2.752c0.201-1.914,0.66-3.946,1.277-6.078
	c0.619-2.133,1.473-4.35,2.609-6.587c0.273-0.563,0.574-1.124,0.912-1.678c0.314-0.563,0.656-1.124,1.041-1.672l0.578-0.852
	c0.205-0.264,0.367-0.505,0.609-0.791c0.457-0.566,0.92-1.082,1.447-1.586c1.035-1.005,2.281-1.906,3.75-2.543
	c1.473-0.607,3.24-0.888,4.922-0.51c0.424,0.074,0.83,0.2,1.23,0.347l0.15,0.052l0.076,0.026c0.055,0.022-0.018-0.014,0.145,0.057
	l0.246,0.115l0.494,0.237c0.336,0.166,0.758,0.445,1.129,0.675c0.334,0.26,0.678,0.508,0.992,0.789
	c1.254,1.131,2.248,2.506,2.994,3.975c1.469,2.961,2.213,6.156,2.555,9.434c0.432,3.143,0.613,6.561,0.563,9.921
	c-0.115,6.74-0.955,13.615-1.957,20.556c-0.242,1.737-0.506,3.478-0.783,5.22c-0.264,1.744-0.527,3.493-0.791,5.246
	c-0.5,3.509-1.021,7.049-1.826,10.56c-0.398,1.756-0.859,3.506-1.434,5.228c-0.307,0.846-0.559,1.737-0.953,2.591
	c-0.398,0.878-0.836,1.679-1.318,2.47c-0.977,1.566-2.086,3.04-3.379,4.392c-1.305,1.328-2.768,2.614-4.775,3.334
	c-0.992,0.342-2.191,0.506-3.342,0.178c-1.15-0.305-2.115-1.001-2.824-1.768c-0.18-0.192-0.359-0.387-0.504-0.593l-0.229-0.305
	l-0.113-0.153c-0.01-0.008-0.131-0.206-0.098-0.155l-0.041-0.07c-0.217-0.397-0.438-0.692-0.652-1.174
	c-0.457-0.997-0.74-1.938-0.902-2.89c-0.33-1.914-0.219-3.809,0.1-5.6c0.326-1.795,0.863-3.502,1.523-5.13
	c0.668-1.624,1.443-3.183,2.371-4.643l0.352-0.546l0.088-0.136l0.129-0.19l0.184-0.245l0.727-0.979l0.723-0.975
	c0.262-0.323,0.561-0.647,0.838-0.97c1.113-1.333,2.301-2.457,3.475-3.582c1.23-1.052,2.443-2.091,3.703-3.015
	c4.998-3.786,10.082-6.587,14.572-9.416c4.588-2.711,8.49-5.515,11.889-8.12c3.412-2.69,6.221-5.12,8.09-7.508
	c1.936-2.345,2.576-4.722,2.406-6.305c-0.078-0.392-0.148-0.737-0.207-1.035c-0.07-0.299-0.209-0.524-0.281-0.721
	c-0.164-0.388-0.25-0.588-0.25-0.588l0.254-0.158c0,0,0.111,0.198,0.328,0.583c0.098,0.198,0.268,0.425,0.377,0.735
	c0.1,0.316,0.213,0.684,0.344,1.1c0.367,1.714-0.166,4.443-1.998,7.085c-1.748,2.704-4.59,5.386-7.791,8.279
	c-3.287,2.914-7.225,5.985-11.709,8.902c-4.438,3.003-9.406,5.979-14.115,9.645c-2.344,1.818-4.66,3.897-6.607,6.148
	c-0.248,0.284-0.502,0.547-0.748,0.85l-0.725,0.972l-0.73,0.977l-0.184,0.245l-0.119,0.185l-0.314,0.485
	c-0.82,1.309-1.58,2.692-2.203,4.143c-1.232,2.876-2.07,6.077-1.637,9.054c0.104,0.744,0.33,1.459,0.561,2.044
	c0.113,0.316,0.393,0.738,0.582,1.103L84.805,180c0.059,0.098-0.037-0.053-0.012-0.019l0.078,0.108l0.156,0.218
	c0.1,0.154,0.215,0.278,0.328,0.404c0.92,1.038,1.965,1.368,3.309,0.958c1.33-0.401,2.676-1.407,3.857-2.546
	c1.189-1.151,2.271-2.477,3.223-3.884c0.477-0.696,0.934-1.431,1.311-2.149c0.395-0.737,0.672-1.549,1.02-2.354
	c0.643-1.616,1.186-3.282,1.67-4.971c0.953-3.385,1.648-6.861,2.314-10.34c0.629-3.486,1.277-6.954,1.773-10.413
	c1.029-6.907,1.6-13.79,1.246-20.394c-0.162-3.304-0.502-6.439-1.129-9.628l-0.209-1.183c-0.047-0.307-0.164-0.736-0.242-1.097
	c-0.188-0.748-0.387-1.485-0.609-2.203c-0.438-1.437-0.957-2.819-1.641-4.051c-0.682-1.229-1.477-2.339-2.441-3.187
	c-0.238-0.213-0.502-0.393-0.746-0.588c-0.264-0.145-0.443-0.296-0.76-0.453l-0.494-0.233l-0.246-0.119
	c0.119,0.054,0.002,0.005,0.016,0.012l-0.053-0.019l-0.105-0.037c-0.281-0.107-0.563-0.202-0.848-0.253
	c-1.135-0.276-2.293-0.11-3.383,0.308c-1.086,0.453-2.105,1.142-2.992,1.981c-0.441,0.413-0.885,0.861-1.26,1.302
	c-0.189,0.203-0.404,0.492-0.604,0.732l-0.525,0.727c-0.365,0.485-0.697,0.991-1.008,1.507c-0.328,0.501-0.627,1.016-0.902,1.537
	c-1.115,2.069-2.066,4.118-2.746,6.122c-1.398,3.995-2.029,7.674-2.127,10.71c-0.078,3.033,0.43,5.438,1.014,6.931
	c0.207,0.786,0.578,1.343,0.738,1.737c0.188,0.389,0.285,0.589,0.285,0.589L81.799,135.91z"/>
<path d="M104.977,105.948c0,0,0.082,0.163,0.236,0.469c0.154,0.291,0.318,0.796,0.482,1.438c0.311,1.262,0.502,3.1,0.346,5.258
	c-0.09,1.076-0.207,2.243-0.516,3.437c-0.291,1.199-0.809,2.41-1.35,3.644c-0.537,1.236-1.074,2.501-1.459,3.835
	c-0.432,1.32-0.754,2.702-1.098,4.099c-0.334,1.399-0.74,2.798-1.314,4.107c-0.59,1.303-1.211,2.584-1.982,3.756
	c-0.729,1.191-1.635,2.258-2.648,3.142c-0.99,0.905-2.191,1.54-3.338,1.978c-0.613,0.155-1.176,0.335-1.76,0.344
	c-0.287,0.017-0.561,0.053-0.828,0.03c-0.266-0.035-0.523-0.069-0.775-0.103c-0.498-0.031-0.926-0.246-1.318-0.377
	c-0.402-0.118-0.713-0.349-1.002-0.519c-0.592-0.319-0.939-0.72-1.199-0.946c-0.244-0.242-0.373-0.371-0.373-0.371l0.166-0.25
	c0,0,0.174,0.046,0.5,0.131c0.32,0.076,0.76,0.258,1.344,0.314c0.564,0.112,1.25,0.141,1.967,0.052
	c0.178-0.028,0.359-0.057,0.547-0.087c0.184-0.042,0.367-0.125,0.555-0.176c0.379-0.079,0.742-0.329,1.125-0.502
	c0.746-0.462,1.51-1.035,2.242-1.825c0.736-0.768,1.492-1.642,2.242-2.622c0.764-0.963,1.473-2.058,2.18-3.187
	c0.662-1.156,1.457-2.294,2.148-3.505c0.725-1.195,1.316-2.465,1.758-3.762c0.439-1.298,0.672-2.639,0.775-3.951
	c0.111-1.312,0.15-2.58,0.309-3.748c0.158-1.169,0.387-2.254,0.574-3.262c0.195-1.006,0.375-1.928,0.535-2.745
	c0.063-0.409,0.135-0.792,0.213-1.149c0.059-0.354,0.102-0.681,0.166-0.98c0.08-0.578,0.182-1.039,0.195-1.39
	c0.039-0.341,0.061-0.523,0.061-0.523L104.977,105.948z"/>
</svg>
