<?xml version="1.0" encoding="utf-8"?>
<!-- Generator: Adobe Illustrator 16.0.0, SVG Export Plug-In . SVG Version: 6.00 Build 0)  -->
<!DOCTYPE svg PUBLIC "-//W3C//DTD SVG 1.1//EN" "http://www.w3.org/Graphics/SVG/1.1/DTD/svg11.dtd">
<svg version="1.1" id="Layer_1" xmlns="http://www.w3.org/2000/svg" xmlns:xlink="http://www.w3.org/1999/xlink" x="0px" y="0px"
	 width="534px" height="516.332px" viewBox="0 0 534 516.332" enable-background="new 0 0 534 516.332" xml:space="preserve">
<circle cx="187.18" cy="399.047" r="107.448"/>
<circle cx="347.107" cy="399.047" r="107.449"/>
<circle cx="267.144" cy="295.709" r="107.448"/>
<path d="M117.286,150.977c33.776,34.94,44.139,80.653,23.147,102.103c-20.991,21.447-65.39,10.51-99.165-24.432
	c-33.776-34.94-44.14-80.653-23.148-102.102S83.51,116.035,117.286,150.977z"/>
<path d="M234.407,67.84c17.506,45.333,9.253,91.474-18.434,103.058c-27.685,11.582-64.322-15.78-81.827-61.114
	C116.641,64.45,124.893,18.309,152.58,6.726C180.265-4.856,216.901,22.504,234.407,67.84z"/>
<path d="M401.668,106.471c-17.06,45.503-53.899,74.485-82.282,64.733c-28.381-9.753-37.561-54.548-20.5-100.052
	c17.06-45.504,53.899-74.486,82.281-64.733C409.55,16.172,418.729,60.966,401.668,106.471z"/>
<path d="M493.113,230.82c-34.94,33.775-80.653,44.138-102.103,23.147c-21.447-20.991-10.51-65.39,24.432-99.164
	c34.94-33.776,80.653-44.14,102.102-23.148S528.054,197.044,493.113,230.82z"/>
</svg>
