<?xml version="1.0" encoding="utf-8"?>
<!-- Generator: Adobe Illustrator 16.0.0, SVG Export Plug-In . SVG Version: 6.00 Build 0)  -->
<!DOCTYPE svg PUBLIC "-//W3C//DTD SVG 1.1 Tiny//EN" "http://www.w3.org/Graphics/SVG/1.1/DTD/svg11-tiny.dtd">
<svg version="1.1" baseProfile="tiny" id="Layer_1" xmlns="http://www.w3.org/2000/svg" xmlns:xlink="http://www.w3.org/1999/xlink"
	 x="0px" y="0px" width="400px" height="400px" viewBox="0 0 400 400" xml:space="preserve">
<circle fill="#FFFFFF" cx="200" cy="200" r="199"/>
<g id="Ellipse_1">
	<ellipse cx="141.247" cy="291.009" rx="72.282" ry="72.171"/>
</g>
<g id="Ellipse_1_copy">
	<ellipse cx="258.516" cy="291.009" rx="72.281" ry="72.171"/>
</g>
<g id="Ellipse_1_copy_2">
	<ellipse cx="198.871" cy="226.407" rx="72.282" ry="72.171"/>
</g>
<g id="Ellipse_2">
	<path d="M99.973,132.681c-21.223-21.19-48.236-28.574-60.336-16.493c-12.101,12.082-4.705,39.054,16.518,60.244
		c21.223,21.189,48.236,28.574,60.336,16.492C128.59,180.843,121.195,153.87,99.973,132.681z"/>
</g>
<g id="Ellipse_2_copy">
	<path d="M180.005,78.842c-7.768-28.945-27.465-48.825-43.994-44.403c-16.529,4.422-23.631,31.472-15.863,60.418
		c7.768,28.946,27.465,48.827,43.994,44.405C180.671,134.839,187.773,107.788,180.005,78.842z"/>
</g>
<g id="Ellipse_2_copy_2">
	<path d="M357.335,116.299c-12.123-12.056-39.188-4.688-60.449,16.458c-21.265,21.145-28.673,48.061-16.551,60.117
		c12.123,12.055,39.188,4.688,60.452-16.459C362.049,155.27,369.459,128.355,357.335,116.299z"/>
</g>
<g id="Ellipse_2_copy_2_2_">
	<path d="M260.777,34.72c-16.562-4.412-36.295,15.427-44.078,44.312c-7.782,28.886-0.666,55.879,15.894,60.292
		c16.562,4.413,36.295-15.426,44.078-44.312C284.454,66.127,277.338,39.134,260.777,34.72z"/>
</g>
</svg>
